SplineFontDB: 3.2
FontName: PassionOne-Share-BoldItalic
FullName: Passion One Share Bold Italic
FamilyName: Passion One Share
Weight: Bold
Copyright: Copyright (c) 2011 Fontstage (info@fontstage.com), with Reserved Font Name "Passion"\n"Fair and Share" glphys created by Vector Hasting and released under CC 4.0 SA-BY
Version: 1.002
ItalicAngle: 0
UnderlinePosition: -102
UnderlineWidth: 51
Ascent: 819
Descent: 205
InvalidEm: 0
sfntRevision: 0x00010083
LayerCount: 2
Layer: 0 1 "Back" 1
Layer: 1 1 "Fore" 0
XUID: [1021 508 542950195 364]
StyleMap: 0x0020
FSType: 0
OS2Version: 2
OS2_WeightWidthSlopeOnly: 0
OS2_UseTypoMetrics: 0
CreationTime: 1323135789
ModificationTime: 1758757997
PfmFamily: 17
TTFWeight: 700
TTFWidth: 5
LineGap: 0
VLineGap: 0
Panose: 2 0 5 6 5 0 0 2 0 4
OS2TypoAscent: 855
OS2TypoAOffset: 0
OS2TypoDescent: -272
OS2TypoDOffset: 0
OS2TypoLinegap: 0
OS2WinAscent: 855
OS2WinAOffset: 0
OS2WinDescent: 272
OS2WinDOffset: 0
HheadAscent: 855
HheadAOffset: 0
HheadDescent: -272
HheadDOffset: 0
OS2SubXSize: 717
OS2SubYSize: 666
OS2SubXOff: 0
OS2SubYOff: 143
OS2SupXSize: 717
OS2SupYSize: 666
OS2SupXOff: 0
OS2SupYOff: 488
OS2StrikeYSize: 51
OS2StrikeYPos: 256
OS2CapHeight: 636
OS2XHeight: 490
OS2Vendor: 'PYRS'
OS2CodePages: 20000001.00000000
OS2UnicodeRanges: 800000ef.4000204a.00000000.00000000
MarkAttachClasses: 1
DEI: 91125
TtTable: prep
PUSHW_1
 511
SCANCTRL
PUSHB_1
 4
SCANTYPE
EndTTInstrs
ShortTable: maxp 16
  1
  0
  269
  76
  7
  0
  0
  2
  0
  1
  1
  0
  64
  0
  0
  0
EndShort
LangName: 1033 "" "" "" "" "" "Version 1.002" "" "Passion is a trademark of Fontstage." "Fontstage" "Alejandro Lo Celso" "" "www.fontstage.com" "www.fontstage.com" "This Font Software is licensed under the SIL Open Font License, Version 1.1. This license is available with a FAQ at: http://scripts.sil.org/OFL" "http://scripts.sil.org/OFL"
GaspTable: 1 65535 15 1
Encoding: UnicodeBmp
UnicodeInterp: none
NameList: AGL For New Fonts
DisplaySize: -72
AntiAlias: 1
FitToEm: 0

StartChar: exclam
Encoding: 33 33 4
Width: 337
GlyphClass: 2
Flags: W
LayerCount: 2
Fore
SplineSet
73 180 m 1,0,-1
 141 636 l 1,1,-1
 346 636 l 1,2,-1
 250 180 l 1,3,-1
 73 180 l 1,0,-1
56 10 m 128,-1,5
 37 30 37 30 44.5 72 c 128,-1,6
 52 114 52 114 77.5 134 c 128,-1,7
 103 154 103 154 159.5 154 c 128,-1,8
 216 154 216 154 234 134 c 128,-1,9
 252 114 252 114 244.5 72 c 128,-1,10
 237 30 237 30 211.5 10 c 128,-1,11
 186 -10 186 -10 130.5 -10 c 128,-1,4
 75 -10 75 -10 56 10 c 128,-1,5
EndSplineSet
EndChar

StartChar: quotedbl
Encoding: 34 34 5
Width: 499
GlyphClass: 2
Flags: W
LayerCount: 2
Fore
SplineSet
90 651 m 128,-1,1
 119 671 119 671 174 671 c 128,-1,2
 229 671 229 671 248.5 648 c 128,-1,3
 268 625 268 625 258 570.5 c 128,-1,4
 248 516 248 516 208 476.5 c 128,-1,5
 168 437 168 437 102 401 c 1,6,-1
 16 415 l 1,7,-1
 103 510 l 1,8,9
 70 517 70 517 58 533.5 c 128,-1,10
 46 550 46 550 53.5 590.5 c 128,-1,0
 61 631 61 631 90 651 c 128,-1,1
313 651 m 128,-1,12
 342 671 342 671 397 671 c 128,-1,13
 452 671 452 671 471.5 648 c 128,-1,14
 491 625 491 625 481 570.5 c 128,-1,15
 471 516 471 516 431.5 476.5 c 128,-1,16
 392 437 392 437 325 401 c 1,17,-1
 239 415 l 1,18,-1
 326 510 l 1,19,20
 293 517 293 517 281 533.5 c 128,-1,21
 269 550 269 550 276.5 590.5 c 128,-1,11
 284 631 284 631 313 651 c 128,-1,12
EndSplineSet
EndChar

StartChar: numbersign
Encoding: 35 35 6
Width: 567
GlyphClass: 2
Flags: W
LayerCount: 2
Fore
SplineSet
550 319 m 1,0,-1
 466 319 l 1,1,-1
 456 292 l 1,2,-1
 521 292 l 1,3,-1
 497 153 l 1,4,-1
 411 153 l 1,5,-1
 361 0 l 1,6,-1
 198 0 l 1,7,-1
 246 153 l 1,8,-1
 221 153 l 1,9,-1
 170 0 l 1,10,-1
 -1 0 l 1,11,-1
 52 153 l 1,12,-1
 -6 153 l 1,13,-1
 18 292 l 1,14,-1
 98 292 l 1,15,-1
 108 319 l 1,16,-1
 48 319 l 1,17,-1
 72 457 l 1,18,-1
 152 457 l 1,19,-1
 204 606 l 1,20,-1
 369 606 l 1,21,-1
 321 457 l 1,22,-1
 344 457 l 1,23,-1
 393 606 l 1,24,-1
 559 606 l 1,25,-1
 510 457 l 1,26,-1
 574 457 l 1,27,-1
 550 319 l 1,0,-1
304 325 m 1,28,-1
 275 325 l 1,29,-1
 261 287 l 1,30,-1
 290 287 l 1,31,-1
 304 325 l 1,28,-1
EndSplineSet
EndChar

StartChar: dollar
Encoding: 36 36 7
Width: 539
GlyphClass: 2
Flags: W
LayerCount: 2
Fore
SplineSet
52 431 m 0,0,1
 80 592 80 592 240 634 c 1,2,-1
 257 727 l 1,3,-1
 428 727 l 1,4,-1
 413 642 l 1,5,6
 503 633 503 633 543 626 c 1,7,-1
 488 445 l 1,8,9
 365 471 365 471 324.5 471 c 128,-1,10
 284 471 284 471 280 446 c 0,11,12
 278 437 278 437 283.5 433.5 c 128,-1,13
 289 430 289 430 291.5 428 c 128,-1,14
 294 426 294 426 302.5 423 c 128,-1,15
 311 420 311 420 316 417.5 c 128,-1,16
 321 415 321 415 350.5 402 c 128,-1,17
 380 389 380 389 394 381.5 c 128,-1,18
 408 374 408 374 433 356 c 0,19,20
 504 304 504 304 485 199 c 0,21,22
 472 127 472 127 423 73 c 128,-1,23
 374 19 374 19 300 2 c 1,24,-1
 284 -84 l 1,25,-1
 113 -84 l 1,26,-1
 127 -5 l 1,27,28
 58 1 58 1 -3 17 c 1,29,-1
 43 190 l 1,30,31
 174 155 174 155 222 156 c 0,32,33
 254 156 254 156 258 178 c 0,34,35
 260 188 260 188 253 194.5 c 128,-1,36
 246 201 246 201 232.5 208 c 128,-1,37
 219 215 219 215 192 227 c 128,-1,38
 165 239 165 239 147 247.5 c 128,-1,39
 129 256 129 256 107 274 c 0,40,41
 34 331 34 331 52 431 c 0,0,1
EndSplineSet
EndChar

StartChar: percent
Encoding: 37 37 8
Width: 951
GlyphClass: 2
Flags: W
LayerCount: 2
Fore
SplineSet
709 636 m 1,0,-1
 394 0 l 1,1,-1
 243 0 l 1,2,-1
 558 636 l 1,3,-1
 709 636 l 1,0,-1
250 409 m 2,4,-1
 258 453 l 2,5,6
 264 488 264 488 262 497 c 128,-1,7
 260 506 260 506 257.5 516 c 128,-1,8
 255 526 255 526 239 526 c 128,-1,9
 223 526 223 526 215 520 c 0,10,11
 199 510 199 510 183 422 c 2,12,-1
 181 409 l 2,13,14
 170 347 170 347 170.5 326 c 128,-1,15
 171 305 171 305 177.5 299 c 128,-1,16
 184 293 184 293 198 293 c 0,17,18
 221 293 221 293 229.5 317 c 128,-1,19
 238 341 238 341 250 409 c 2,4,-1
389.5 591 m 128,-1,21
 416 536 416 536 395 415.5 c 128,-1,22
 374 295 374 295 328 240.5 c 128,-1,23
 282 186 282 186 177 186 c 128,-1,24
 72 186 72 186 44 241 c 128,-1,25
 16 296 16 296 37 415.5 c 128,-1,26
 58 535 58 535 105 590.5 c 128,-1,27
 152 646 152 646 257.5 646 c 128,-1,20
 363 646 363 646 389.5 591 c 128,-1,21
768 212 m 2,28,-1
 776 256 l 2,29,30
 782 291 782 291 780 300 c 128,-1,31
 778 309 778 309 775.5 319.5 c 128,-1,32
 773 330 773 330 757 330 c 128,-1,33
 741 330 741 330 733 324 c 0,34,35
 717 314 717 314 702 225 c 2,36,-1
 699 212 l 2,37,38
 688 150 688 150 688.5 129.5 c 128,-1,39
 689 109 689 109 695.5 102.5 c 128,-1,40
 702 96 702 96 716 96 c 0,41,42
 739 96 739 96 747.5 120 c 128,-1,43
 756 144 756 144 768 212 c 2,28,-1
908 394.5 m 128,-1,45
 935 339 935 339 913.5 218.5 c 128,-1,46
 892 98 892 98 846 44 c 128,-1,47
 800 -10 800 -10 695 -10 c 128,-1,48
 590 -10 590 -10 562 44.5 c 128,-1,49
 534 99 534 99 555.5 218.5 c 128,-1,50
 577 338 577 338 623.5 394 c 128,-1,51
 670 450 670 450 775.5 450 c 128,-1,44
 881 450 881 450 908 394.5 c 128,-1,45
EndSplineSet
EndChar

StartChar: ampersand
Encoding: 38 38 9
Width: 710
GlyphClass: 2
Flags: W
LayerCount: 2
Fore
SplineSet
207 -10 m 0,0,1
 84 -10 84 -10 35.5 35.5 c 128,-1,2
 -13 81 -13 81 6 188 c 0,3,4
 19 259 19 259 54.5 297.5 c 128,-1,5
 90 336 90 336 151 357 c 1,6,7
 110 414 110 414 124 494 c 0,8,9
 153 657 153 657 373.5 656.5 c 128,-1,10
 594 656 594 656 564 489 c 0,11,12
 552 422 552 422 521 388.5 c 128,-1,13
 490 355 490 355 412 312 c 1,14,-1
 472 231 l 1,15,-1
 478 231 l 1,16,-1
 495 328 l 1,17,-1
 656 328 l 1,18,-1
 643 253 l 2,19,20
 630 177 630 177 568 136 c 1,21,-1
 567 132 l 1,22,-1
 654 132 l 1,23,-1
 611 -10 l 1,24,-1
 514 -10 l 2,25,26
 441 -10 441 -10 401 20 c 1,27,-1
 393 20 l 1,28,29
 356 3 356 3 317.5 -3.5 c 128,-1,30
 279 -10 279 -10 207 -10 c 0,0,1
209 186 m 0,31,32
 200 136 200 136 253 136 c 2,33,-1
 307 136 l 1,34,-1
 308 140 l 1,35,-1
 235 229 l 1,36,37
 215 218 215 218 209 186 c 0,31,32
375 456 m 0,38,39
 380 487 380 487 349.5 486.5 c 128,-1,40
 319 486 319 486 314 458 c 0,41,42
 312 445 312 445 314.5 439.5 c 128,-1,43
 317 434 317 434 317.5 432 c 128,-1,44
 318 430 318 430 321 426.5 c 128,-1,45
 324 423 324 423 325 422 c 128,-1,46
 326 421 326 421 330 416.5 c 128,-1,47
 334 412 334 412 336 411 c 0,48,49
 356 425 356 425 364.5 433.5 c 128,-1,50
 373 442 373 442 375 456 c 0,38,39
EndSplineSet
EndChar

StartChar: quotesingle
Encoding: 39 39 10
Width: 258
GlyphClass: 2
Flags: W
LayerCount: 2
Fore
SplineSet
92 651 m 128,-1,1
 121 671 121 671 176 671 c 128,-1,2
 231 671 231 671 250.5 648 c 128,-1,3
 270 625 270 625 260 570.5 c 128,-1,4
 250 516 250 516 210 476.5 c 128,-1,5
 170 437 170 437 104 401 c 1,6,-1
 18 415 l 1,7,-1
 105 510 l 1,8,9
 72 517 72 517 60 533.5 c 128,-1,10
 48 550 48 550 55.5 590.5 c 128,-1,0
 63 631 63 631 92 651 c 128,-1,1
EndSplineSet
EndChar

StartChar: parenleft
Encoding: 40 40 11
Width: 397
GlyphClass: 2
Flags: W
LayerCount: 2
Fore
SplineSet
293 660 m 1,0,-1
 444 611 l 1,1,2
 295 450 295 450 262 265.5 c 128,-1,3
 229 81 229 81 317 -111 c 1,4,-1
 143 -151 l 1,5,6
 66 -60 66 -60 34.5 34 c 128,-1,7
 3 128 3 128 26 258 c 128,-1,8
 49 388 49 388 114 483 c 128,-1,9
 179 578 179 578 293 660 c 1,0,-1
EndSplineSet
EndChar

StartChar: parenright
Encoding: 41 41 12
Width: 397
GlyphClass: 2
Flags: W
LayerCount: 2
Fore
SplineSet
364 482 m 128,-1,1
 396 385 396 385 373.5 258.5 c 128,-1,2
 351 132 351 132 284 35.5 c 128,-1,3
 217 -61 217 -61 109 -151 c 1,4,-1
 -48 -111 l 1,5,6
 105 66 105 66 138.5 257.5 c 128,-1,7
 172 449 172 449 79 610 c 1,8,-1
 249 660 l 1,9,0
 332 579 332 579 364 482 c 128,-1,1
EndSplineSet
EndChar

StartChar: asterisk
Encoding: 42 42 13
Width: 478
GlyphClass: 2
Flags: W
LayerCount: 2
Fore
SplineSet
453 475 m 1,0,-1
 353 444 l 1,1,-1
 405 351 l 1,2,-1
 280 286 l 1,3,-1
 222 362 l 1,4,-1
 140 287 l 1,5,-1
 38 352 l 1,6,-1
 112 443 l 1,7,-1
 24 475 l 1,8,-1
 78 596 l 1,9,-1
 176 573 l 1,10,-1
 204 673 l 1,11,-1
 346 673 l 1,12,-1
 337 573 l 1,13,-1
 436 595 l 1,14,-1
 453 475 l 1,0,-1
EndSplineSet
EndChar

StartChar: plus
Encoding: 43 43 14
Width: 487
GlyphClass: 2
Flags: W
LayerCount: 2
Fore
SplineSet
124 86 m 1,0,-1
 146 214 l 1,1,-1
 18 214 l 1,2,-1
 48 380 l 1,3,-1
 176 380 l 1,4,-1
 198 508 l 1,5,-1
 364 508 l 1,6,-1
 342 380 l 1,7,-1
 470 380 l 1,8,-1
 440 214 l 1,9,-1
 312 214 l 1,10,-1
 290 86 l 1,11,-1
 124 86 l 1,0,-1
EndSplineSet
EndChar

StartChar: comma
Encoding: 44 44 15
Width: 313
GlyphClass: 2
Flags: W
LayerCount: 2
Fore
SplineSet
102.5 135 m 128,-1,1
 132 155 132 155 186.5 155 c 128,-1,2
 241 155 241 155 260.5 132 c 128,-1,3
 280 109 280 109 270 54.5 c 128,-1,4
 260 0 260 0 220.5 -39.5 c 128,-1,5
 181 -79 181 -79 114 -115 c 1,6,-1
 28 -101 l 1,7,-1
 115 -6 l 1,8,9
 82 1 82 1 70 17.5 c 128,-1,10
 58 34 58 34 65.5 74.5 c 128,-1,0
 73 115 73 115 102.5 135 c 128,-1,1
EndSplineSet
EndChar

StartChar: hyphen
Encoding: 45 45 16
Width: 412
GlyphClass: 2
Flags: W
LayerCount: 2
Fore
SplineSet
365 183 m 1,0,-1
 18 183 l 1,1,-1
 48 349 l 1,2,-1
 395 349 l 1,3,-1
 365 183 l 1,0,-1
EndSplineSet
EndChar

StartChar: period
Encoding: 46 46 17
Width: 297
GlyphClass: 2
Flags: W
LayerCount: 2
Fore
SplineSet
61 10 m 128,-1,1
 42 30 42 30 49 72 c 128,-1,2
 56 114 56 114 81.5 134 c 128,-1,3
 107 154 107 154 163.5 154 c 128,-1,4
 220 154 220 154 238 134 c 128,-1,5
 256 114 256 114 249 72 c 128,-1,6
 242 30 242 30 216.5 10 c 128,-1,7
 191 -10 191 -10 135.5 -10 c 128,-1,0
 80 -10 80 -10 61 10 c 128,-1,1
EndSplineSet
EndChar

StartChar: slash
Encoding: 47 47 18
Width: 427
GlyphClass: 2
Flags: W
LayerCount: 2
Fore
SplineSet
510 631 m 1,0,-1
 126 -145 l 1,1,-1
 -83 -145 l 1,2,-1
 300 631 l 1,3,-1
 510 631 l 1,0,-1
EndSplineSet
EndChar

StartChar: zero
Encoding: 48 48 19
Width: 551
GlyphClass: 2
Flags: W
LayerCount: 2
Fore
SplineSet
325 307 m 2,0,-1
 329 327 l 2,1,2
 351 451 351 451 331 467 c 0,3,4
 321 475 321 475 306 475 c 128,-1,5
 291 475 291 475 282 471.5 c 128,-1,6
 273 468 273 468 266.5 457 c 128,-1,7
 260 446 260 446 254 437 c 0,8,9
 245 419 245 419 237 372 c 2,10,-1
 225 307 l 2,11,12
 210 222 210 222 210.5 191 c 128,-1,13
 211 160 211 160 220 151 c 128,-1,14
 229 142 229 142 249 142 c 0,15,16
 282 142 282 142 295 176 c 128,-1,17
 308 210 308 210 325 307 c 2,0,-1
546 457.5 m 128,-1,19
 546 401 546 401 531 316.5 c 128,-1,20
 516 232 516 232 496 176 c 128,-1,21
 476 120 476 120 440 76 c 0,22,23
 374 -10 374 -10 219 -10 c 128,-1,24
 64 -10 64 -10 27 76 c 0,25,26
 7 120 7 120 6 176 c 128,-1,27
 5 232 5 232 19.5 316 c 128,-1,28
 34 400 34 400 55 457 c 128,-1,29
 76 514 76 514 111 559 c 0,30,31
 179 646 179 646 334 646 c 128,-1,32
 489 646 489 646 525 559 c 0,33,18
 546 514 546 514 546 457.5 c 128,-1,19
EndSplineSet
EndChar

StartChar: one
Encoding: 49 49 20
Width: 332
GlyphClass: 2
Flags: W
LayerCount: 2
Fore
SplineSet
232 0 m 1,0,-1
 20 0 l 1,1,-1
 102 463 l 1,2,-1
 30 463 l 1,3,-1
 50 579 l 1,4,-1
 174 636 l 1,5,-1
 344 636 l 1,6,-1
 232 0 l 1,0,-1
EndSplineSet
EndChar

StartChar: two
Encoding: 50 50 21
Width: 480
GlyphClass: 2
Flags: W
LayerCount: 2
Fore
SplineSet
53 600 m 1,0,1
 182 646 182 646 295 646 c 128,-1,2
 408 646 408 646 455.5 595 c 128,-1,3
 503 544 503 544 487.5 455 c 128,-1,4
 472 366 472 366 426.5 305.5 c 128,-1,5
 381 245 381 245 287 162 c 1,6,-1
 286 158 l 1,7,-1
 437 158 l 1,8,-1
 409 0 l 1,9,-1
 -28 0 l 1,10,-1
 -19 111 l 1,11,12
 -7 121 -7 121 35 155.5 c 128,-1,13
 77 190 77 190 91.5 202.5 c 128,-1,14
 106 215 106 215 138 243.5 c 128,-1,15
 170 272 170 272 183.5 287.5 c 128,-1,16
 197 303 197 303 223 333.5 c 128,-1,17
 249 364 249 364 256 401 c 0,18,19
 265 450 265 450 217 451 c 0,20,21
 172 451 172 451 55 421 c 1,22,-1
 53 600 l 1,0,1
EndSplineSet
EndChar

StartChar: three
Encoding: 51 51 22
Width: 480
GlyphClass: 2
Flags: W
LayerCount: 2
Fore
SplineSet
53 594 m 1,0,1
 171 646 171 646 285 646 c 128,-1,2
 399 646 399 646 449.5 599 c 128,-1,3
 500 552 500 552 485 467 c 0,4,5
 477 420 477 420 454 389 c 128,-1,6
 431 358 431 358 387 336 c 1,7,-1
 386 332 l 1,8,9
 463 295 463 295 445 186 c 0,10,11
 428 92 428 92 357.5 41 c 128,-1,12
 287 -10 287 -10 169 -10 c 0,13,14
 113 -10 113 -10 71 -1 c 128,-1,15
 29 8 29 8 -32 33 c 1,16,-1
 40 190 l 1,17,18
 145 156 145 156 176 157 c 0,19,20
 216 157 216 157 223.5 201.5 c 128,-1,21
 231 246 231 246 184 246 c 2,22,-1
 93 246 l 1,23,-1
 119 389 l 1,24,-1
 209 389 l 2,25,26
 244 389 244 389 250.5 430 c 128,-1,27
 257 471 257 471 216 471 c 0,28,29
 187 471 187 471 70 433 c 1,30,-1
 53 594 l 1,0,1
EndSplineSet
EndChar

StartChar: four
Encoding: 52 52 23
Width: 561
GlyphClass: 2
Flags: W
LayerCount: 2
Fore
SplineSet
519 120 m 1,0,-1
 450 120 l 1,1,-1
 428 0 l 1,2,-1
 216 0 l 1,3,-1
 238 120 l 1,4,-1
 -9 120 l 1,5,-1
 -4 246 l 1,6,-1
 287 631 l 1,7,-1
 540 631 l 1,8,-1
 476 269 l 1,9,-1
 553 269 l 1,10,-1
 519 120 l 1,0,-1
269 265 m 1,11,-1
 293 398 l 1,12,-1
 288 398 l 1,13,-1
 193 265 l 1,14,-1
 269 265 l 1,11,-1
EndSplineSet
EndChar

StartChar: five
Encoding: 53 53 24
Width: 483
GlyphClass: 2
Flags: W
LayerCount: 2
Fore
SplineSet
451 217 m 0,0,1
 411 -10 411 -10 177 -10 c 0,2,3
 67 -10 67 -10 -20 22 c 1,4,-1
 27 197 l 1,5,6
 159 161 159 161 187.5 161 c 128,-1,7
 216 161 216 161 227 172 c 128,-1,8
 238 183 238 183 242 207 c 0,9,10
 250 251 250 251 220 251 c 0,11,12
 205 251 205 251 194 234 c 1,13,-1
 22 255 l 1,14,-1
 89 631 l 1,15,-1
 493 631 l 1,16,-1
 464 468 l 1,17,-1
 259 468 l 1,18,-1
 247 401 l 1,19,20
 276 409 276 409 312 410 c 0,21,22
 485 410 485 410 451 217 c 0,0,1
EndSplineSet
EndChar

StartChar: six
Encoding: 54 54 25
Width: 524
GlyphClass: 2
Flags: W
LayerCount: 2
Fore
SplineSet
261.5 256 m 128,-1,1
 236 256 236 256 217 252 c 1,2,3
 212 236 212 236 211 229 c 0,4,5
 195 138 195 138 248 138 c 0,6,7
 290 138 290 138 301 198 c 0,8,9
 306 229 306 229 296.5 242.5 c 128,-1,0
 287 256 287 256 261.5 256 c 128,-1,1
333 402 m 0,10,11
 429 402 429 402 473.5 355.5 c 128,-1,12
 518 309 518 309 500 206 c 128,-1,13
 482 103 482 103 415 46.5 c 128,-1,14
 348 -10 348 -10 218.5 -10 c 128,-1,15
 89 -10 89 -10 36.5 62 c 128,-1,16
 -16 134 -16 134 8 272 c 0,17,18
 42 466 42 466 162.5 556 c 128,-1,19
 283 646 283 646 524 646 c 1,20,-1
 481 478 l 1,21,22
 304 478 304 478 253 395 c 1,23,24
 286 402 286 402 333 402 c 0,10,11
EndSplineSet
EndChar

StartChar: seven
Encoding: 55 55 26
Width: 476
GlyphClass: 2
Flags: W
LayerCount: 2
Fore
SplineSet
510 531 m 1,0,-1
 219 0 l 1,1,-1
 -17 0 l 1,2,-1
 252 458 l 1,3,-1
 27 458 l 1,4,-1
 58 631 l 1,5,-1
 528 631 l 1,6,-1
 510 531 l 1,0,-1
EndSplineSet
EndChar

StartChar: eight
Encoding: 56 56 27
Width: 531
GlyphClass: 2
Flags: W
LayerCount: 2
Fore
SplineSet
135.5 599 m 128,-1,1
 210 646 210 646 324 646 c 128,-1,2
 438 646 438 646 494.5 601 c 128,-1,3
 551 556 551 556 537 475 c 0,4,5
 527 419 527 419 503.5 385.5 c 128,-1,6
 480 352 480 352 432 324 c 1,7,-1
 431 319 l 1,8,9
 510 278 510 278 493.5 184 c 128,-1,10
 477 90 477 90 403.5 40 c 128,-1,11
 330 -10 330 -10 210 -10 c 128,-1,12
 90 -10 90 -10 31.5 38 c 128,-1,13
 -27 86 -27 86 -11 177 c 0,14,15
 -2 230 -2 230 25 262 c 128,-1,16
 52 294 52 294 99 314 c 1,17,-1
 100 318 l 1,18,19
 63 347 63 347 50 382 c 128,-1,20
 37 417 37 417 47 471 c 0,21,0
 61 552 61 552 135.5 599 c 128,-1,1
235 134 m 0,22,23
 277 134 277 134 284 176 c 0,24,25
 288 196 288 196 278 210 c 128,-1,26
 268 224 268 224 242 243 c 1,27,28
 203 216 203 216 198 188 c 0,29,30
 189 134 189 134 235 134 c 0,22,23
299 490 m 0,31,32
 257 490 257 490 251 452 c 0,33,34
 247 432 247 432 256.5 419.5 c 128,-1,35
 266 407 266 407 289 389 c 1,36,37
 332 419 332 419 336 444 c 0,38,39
 344 490 344 490 299 490 c 0,31,32
EndSplineSet
EndChar

StartChar: nine
Encoding: 57 57 28
Width: 521
GlyphClass: 2
Flags: W
LayerCount: 2
Fore
SplineSet
223 376 m 128,-1,1
 231 361 231 361 257.5 361 c 128,-1,2
 284 361 284 361 305 368 c 1,3,-1
 308 386 l 2,4,5
 317 435 317 435 312 458 c 128,-1,6
 307 481 307 481 274 481 c 0,7,8
 231 481 231 481 221 424 c 0,9,0
 215 391 215 391 223 376 c 128,-1,1
185 224 m 0,10,11
 89 224 89 224 46.5 271.5 c 128,-1,12
 4 319 4 319 22.5 423.5 c 128,-1,13
 41 528 41 528 111 587 c 128,-1,14
 181 646 181 646 310 646 c 128,-1,15
 439 646 439 646 489 579.5 c 128,-1,16
 539 513 539 513 515 372 c 0,17,18
 498 276 498 276 462.5 206.5 c 128,-1,19
 427 137 427 137 367 88 c 0,20,21
 248 -10 248 -10 -6 -10 c 1,22,-1
 29 144 l 1,23,24
 130 144 130 144 182.5 164 c 128,-1,25
 235 184 235 184 264 230 c 1,26,27
 226 224 226 224 185 224 c 0,10,11
EndSplineSet
EndChar

StartChar: colon
Encoding: 58 58 29
Width: 297
GlyphClass: 2
Flags: W
LayerCount: 2
Fore
SplineSet
34 10 m 128,-1,1
 15 30 15 30 22.5 72 c 128,-1,2
 30 114 30 114 55.5 134 c 128,-1,3
 81 154 81 154 137.5 154 c 128,-1,4
 194 154 194 154 212 134 c 128,-1,5
 230 114 230 114 222.5 72 c 128,-1,6
 215 30 215 30 189.5 10 c 128,-1,7
 164 -10 164 -10 108.5 -10 c 128,-1,0
 53 -10 53 -10 34 10 c 128,-1,1
87 309 m 128,-1,9
 68 329 68 329 75.5 371 c 128,-1,10
 83 413 83 413 108.5 433 c 128,-1,11
 134 453 134 453 190.5 453 c 128,-1,12
 247 453 247 453 265 433 c 128,-1,13
 283 413 283 413 275.5 371 c 128,-1,14
 268 329 268 329 242.5 309 c 128,-1,15
 217 289 217 289 161.5 289 c 128,-1,8
 106 289 106 289 87 309 c 128,-1,9
EndSplineSet
EndChar

StartChar: semicolon
Encoding: 59 59 30
Width: 313
GlyphClass: 2
Flags: W
LayerCount: 2
Fore
SplineSet
103 309 m 128,-1,1
 84 329 84 329 91.5 371 c 128,-1,2
 99 413 99 413 124.5 433 c 128,-1,3
 150 453 150 453 206.5 453 c 128,-1,4
 263 453 263 453 281 433 c 128,-1,5
 299 413 299 413 291.5 371 c 128,-1,6
 284 329 284 329 258.5 309 c 128,-1,7
 233 289 233 289 177.5 289 c 128,-1,0
 122 289 122 289 103 309 c 128,-1,1
76 135 m 128,-1,9
 106 155 106 155 160.5 155 c 128,-1,10
 215 155 215 155 234 132 c 128,-1,11
 253 109 253 109 243.5 54.5 c 128,-1,12
 234 0 234 0 194 -39.5 c 128,-1,13
 154 -79 154 -79 88 -115 c 1,14,-1
 1 -101 l 1,15,-1
 89 -6 l 1,16,17
 56 1 56 1 44 17.5 c 128,-1,18
 32 34 32 34 39 74.5 c 128,-1,8
 46 115 46 115 76 135 c 128,-1,9
EndSplineSet
EndChar

StartChar: less
Encoding: 60 60 31
Width: 510
GlyphClass: 2
Flags: W
LayerCount: 2
Fore
SplineSet
433 31 m 1,0,-1
 20 212 l 1,1,-1
 47 370 l 1,2,-1
 523 546 l 1,3,-1
 494 382 l 1,4,-1
 235 292 l 1,5,-1
 461 194 l 1,6,-1
 433 31 l 1,0,-1
EndSplineSet
EndChar

StartChar: equal
Encoding: 61 61 32
Width: 464
GlyphClass: 2
Flags: W
LayerCount: 2
Fore
SplineSet
432 287 m 1,0,-1
 41 287 l 1,1,-1
 67 437 l 1,2,-1
 458 437 l 1,3,-1
 432 287 l 1,0,-1
398 95 m 1,4,-1
 7 95 l 1,5,-1
 33 246 l 1,6,-1
 424 246 l 1,7,-1
 398 95 l 1,4,-1
EndSplineSet
EndChar

StartChar: greater
Encoding: 62 62 33
Width: 510
GlyphClass: 2
Flags: W
LayerCount: 2
Fore
SplineSet
465 212 m 1,0,-1
 -12 31 l 1,1,-1
 16 194 l 1,2,-1
 277 292 l 1,3,-1
 49 382 l 1,4,-1
 78 546 l 1,5,-1
 492 370 l 1,6,-1
 465 212 l 1,0,-1
EndSplineSet
EndChar

StartChar: question
Encoding: 63 63 34
Width: 404
GlyphClass: 2
Flags: W
LayerCount: 2
Fore
SplineSet
417 455 m 0,0,1
 402 370 402 370 351 324 c 0,2,3
 325 300 325 300 300.5 284.5 c 128,-1,4
 276 269 276 269 236 250 c 1,5,-1
 224 180 l 1,6,-1
 53 180 l 1,7,-1
 73 294 l 2,8,9
 79 327 79 327 96 347.5 c 128,-1,10
 113 368 113 368 147.5 381.5 c 128,-1,11
 182 395 182 395 195.5 405.5 c 128,-1,12
 209 416 209 416 212 433 c 0,13,14
 217 463 217 463 183 463 c 0,15,16
 163 463 163 463 47 441 c 1,17,-1
 79 620 l 1,18,19
 180 642 180 642 254 641 c 0,20,21
 450 641 450 641 417 455 c 0,0,1
31.5 10 m 128,-1,23
 12 30 12 30 19 72 c 128,-1,24
 26 114 26 114 52 134 c 128,-1,25
 78 154 78 154 134.5 154 c 128,-1,26
 191 154 191 154 208.5 134 c 128,-1,27
 226 114 226 114 219 72 c 128,-1,28
 212 30 212 30 186.5 10 c 128,-1,29
 161 -10 161 -10 106 -10 c 128,-1,22
 51 -10 51 -10 31.5 10 c 128,-1,23
EndSplineSet
EndChar

StartChar: at
Encoding: 64 64 35
Width: 979
GlyphClass: 2
Flags: W
LayerCount: 2
Fore
SplineSet
392 -184 m 0,0,1
 -52 -184 -52 -184 23 238 c 0,2,3
 60 448 60 448 210 566 c 128,-1,4
 360 684 360 684 582.5 684 c 128,-1,5
 805 684 805 684 899.5 578 c 128,-1,6
 994 472 994 472 961 286 c 0,7,8
 909 -10 909 -10 637 -10 c 0,9,10
 584 -10 584 -10 555 -1.5 c 128,-1,11
 526 7 526 7 505 30 c 1,12,-1
 498 30 l 1,13,14
 442 -10 442 -10 367.5 -10 c 128,-1,15
 293 -10 293 -10 261.5 29.5 c 128,-1,16
 230 69 230 69 242 138 c 0,17,18
 257 224 257 224 321 258 c 128,-1,19
 385 292 385 292 513 301 c 1,20,-1
 516 319 l 2,21,22
 519 337 519 337 500 338 c 0,23,24
 448 338 448 338 315 306 c 1,25,-1
 321 464 l 1,26,27
 492 503 492 503 584 503 c 128,-1,28
 676 503 676 503 710 468 c 128,-1,29
 744 433 744 433 731 358 c 2,30,-1
 689 154 l 2,31,32
 685 131 685 131 709 131 c 0,33,34
 768 131 768 131 796 285 c 0,35,36
 818 409 818 409 763.5 475 c 128,-1,37
 709 541 709 541 550 541 c 128,-1,38
 391 541 391 541 303 466 c 128,-1,39
 215 391 215 391 188 238.5 c 128,-1,40
 161 86 161 86 223.5 20.5 c 128,-1,41
 286 -45 286 -45 437 -45 c 0,42,43
 529 -45 529 -45 656 -30 c 1,44,-1
 632 -162 l 1,45,46
 515 -184 515 -184 392 -184 c 0,0,1
457 122 m 0,47,48
 487 122 487 122 493 153 c 2,49,-1
 500 191 l 1,50,51
 446 184 446 184 440 151 c 0,52,53
 433 122 433 122 457 122 c 0,47,48
EndSplineSet
EndChar

StartChar: A
Encoding: 65 65 36
Width: 576
GlyphClass: 2
Flags: W
LayerCount: 2
Fore
SplineSet
521 0 m 1,0,-1
 305 0 l 1,1,-1
 302 98 l 1,2,-1
 188 98 l 1,3,-1
 150 0 l 1,4,-1
 -56 0 l 1,5,-1
 188 636 l 1,6,-1
 500 636 l 1,7,-1
 521 0 l 1,0,-1
310 230 m 1,8,-1
 309 443 l 1,9,-1
 305 443 l 1,10,-1
 227 230 l 1,11,-1
 310 230 l 1,8,-1
EndSplineSet
EndChar

StartChar: B
Encoding: 66 66 37
Width: 576
GlyphClass: 2
Flags: W
LayerCount: 2
Fore
SplineSet
539 186 m 0,0,1
 506 0 506 0 275 0 c 2,2,-1
 -15 0 l 1,3,-1
 97 636 l 1,4,-1
 383 636 l 2,5,6
 498 636 498 636 545.5 595 c 128,-1,7
 593 554 593 554 578 469 c 128,-1,8
 563 384 563 384 483 338 c 1,9,-1
 482 334 l 1,10,11
 558 296 558 296 539 186 c 0,0,1
294 139 m 128,-1,13
 306 151 306 151 312.5 188.5 c 128,-1,14
 319 226 319 226 311.5 242 c 128,-1,15
 304 258 304 258 278 258 c 2,16,-1
 248 258 l 1,17,-1
 225 127 l 1,18,-1
 255 127 l 2,19,12
 282 127 282 127 294 139 c 128,-1,13
328.5 383 m 128,-1,21
 340 395 340 395 345 425.5 c 128,-1,22
 350 456 350 456 343.5 469 c 128,-1,23
 337 482 337 482 318 482 c 2,24,-1
 288 482 l 1,25,-1
 268 371 l 1,26,-1
 299 371 l 2,27,20
 317 371 317 371 328.5 383 c 128,-1,21
EndSplineSet
EndChar

StartChar: C
Encoding: 67 67 38
Width: 476
GlyphClass: 2
Flags: W
LayerCount: 2
Fore
SplineSet
237.5 197 m 128,-1,1
 248 162 248 162 289 162 c 128,-1,2
 330 162 330 162 430 184 c 1,3,-1
 434 22 l 1,4,5
 328 -10 328 -10 235 -10 c 0,6,7
 93 -10 93 -10 42 71.5 c 128,-1,8
 -9 153 -9 153 19.5 314 c 128,-1,9
 48 475 48 475 131 560.5 c 128,-1,10
 214 646 214 646 366 646 c 0,11,12
 455 646 455 646 538 611 c 1,13,-1
 473 429 l 1,14,15
 377 459 377 459 339 459 c 128,-1,16
 301 459 301 459 277.5 423.5 c 128,-1,17
 254 388 254 388 240.5 310 c 128,-1,0
 227 232 227 232 237.5 197 c 128,-1,1
EndSplineSet
EndChar

StartChar: D
Encoding: 68 68 39
Width: 613
GlyphClass: 2
Flags: W
LayerCount: 2
Fore
SplineSet
593 332 m 0,0,1
 534 0 534 0 232 0 c 2,2,-1
 -15 0 l 1,3,-1
 97 636 l 1,4,-1
 349 636 l 2,5,6
 512 636 512 636 565.5 557.5 c 128,-1,7
 619 479 619 479 593 332 c 0,0,1
331 195.5 m 128,-1,9
 353 231 353 231 367.5 314.5 c 128,-1,10
 382 398 382 398 371.5 433.5 c 128,-1,11
 361 469 361 469 308 469 c 2,12,-1
 286 469 l 1,13,-1
 231 160 l 1,14,-1
 257 160 l 2,15,8
 309 160 309 160 331 195.5 c 128,-1,9
EndSplineSet
EndChar

StartChar: E
Encoding: 69 69 40
Width: 472
GlyphClass: 2
Flags: W
LayerCount: 2
Fore
SplineSet
390 0 m 1,0,-1
 -15 0 l 1,1,-1
 97 636 l 1,2,-1
 517 636 l 1,3,-1
 472 467 l 1,4,-1
 286 467 l 1,5,-1
 273 390 l 1,6,-1
 436 390 l 1,7,-1
 410 243 l 1,8,-1
 247 243 l 1,9,-1
 231 156 l 1,10,-1
 432 156 l 1,11,-1
 390 0 l 1,0,-1
EndSplineSet
EndChar

StartChar: F
Encoding: 70 70 41
Width: 450
GlyphClass: 2
Flags: W
LayerCount: 2
Fore
SplineSet
472 467 m 1,0,-1
 286 467 l 1,1,-1
 271 380 l 1,2,-1
 412 380 l 1,3,-1
 386 232 l 1,4,-1
 245 232 l 1,5,-1
 204 0 l 1,6,-1
 -15 0 l 1,7,-1
 97 636 l 1,8,-1
 517 636 l 1,9,-1
 472 467 l 1,0,-1
EndSplineSet
EndChar

StartChar: G
Encoding: 71 71 42
Width: 606
GlyphClass: 2
Flags: W
LayerCount: 2
Fore
SplineSet
294 157 m 0,0,1
 312 157 312 157 344 163 c 1,2,-1
 354 224 l 1,3,-1
 302 224 l 1,4,-1
 327 366 l 1,5,-1
 569 366 l 1,6,-1
 505 0 l 1,7,-1
 351 0 l 1,8,-1
 341 33 l 1,9,-1
 337 33 l 1,10,11
 276 -10 276 -10 203 -10 c 0,12,13
 -37 -10 -37 -10 21 313 c 0,14,15
 50 475 50 475 130 560.5 c 128,-1,16
 210 646 210 646 364 646 c 0,17,18
 479 646 479 646 575 614 c 1,19,-1
 507 422 l 1,20,21
 398 454 398 454 348.5 454 c 128,-1,22
 299 454 299 454 277.5 421 c 128,-1,23
 256 388 256 388 242 309 c 128,-1,24
 228 230 228 230 237 193.5 c 128,-1,25
 246 157 246 157 294 157 c 0,0,1
EndSplineSet
EndChar

StartChar: H
Encoding: 72 72 43
Width: 627
GlyphClass: 2
Flags: W
LayerCount: 2
Fore
SplineSet
531 0 m 1,0,-1
 315 0 l 1,1,-1
 354 224 l 1,2,-1
 243 224 l 1,3,-1
 204 0 l 1,4,-1
 -15 0 l 1,5,-1
 97 636 l 1,6,-1
 316 636 l 1,7,-1
 274 398 l 1,8,-1
 385 398 l 1,9,-1
 427 636 l 1,10,-1
 643 636 l 1,11,-1
 531 0 l 1,0,-1
EndSplineSet
EndChar

StartChar: I
Encoding: 73 73 44
Width: 310
GlyphClass: 2
Flags: W
LayerCount: 2
Fore
SplineSet
207 0 m 1,0,-1
 -9 0 l 1,1,-1
 103 636 l 1,2,-1
 319 636 l 1,3,-1
 207 0 l 1,0,-1
EndSplineSet
EndChar

StartChar: J
Encoding: 74 74 45
Width: 333
GlyphClass: 2
Flags: W
LayerCount: 2
Fore
SplineSet
346 636 m 1,0,-1
 257 133 l 2,1,2
 243 51 243 51 195.5 20.5 c 128,-1,3
 148 -10 148 -10 33 -10 c 2,4,-1
 -42 -10 l 1,5,-1
 -26 141 l 1,6,-1
 25 141 l 2,7,8
 36 141 36 141 40.5 145.5 c 128,-1,9
 45 150 45 150 47 159 c 2,10,-1
 131 636 l 1,11,-1
 346 636 l 1,0,-1
EndSplineSet
EndChar

StartChar: K
Encoding: 75 75 46
Width: 565
GlyphClass: 2
Flags: W
LayerCount: 2
Fore
SplineSet
509 0 m 1,0,-1
 269 0 l 1,1,-1
 241 211 l 1,2,-1
 230 211 l 1,3,-1
 193 0 l 1,4,-1
 -15 0 l 1,5,-1
 97 636 l 1,6,-1
 305 636 l 1,7,-1
 261 384 l 1,8,-1
 272 384 l 1,9,-1
 397 636 l 1,10,-1
 631 636 l 1,11,-1
 441 305 l 1,12,-1
 509 0 l 1,0,-1
EndSplineSet
EndChar

StartChar: L
Encoding: 76 76 47
Width: 422
GlyphClass: 2
Flags: W
LayerCount: 2
Fore
SplineSet
367 0 m 1,0,-1
 -15 0 l 1,1,-1
 97 636 l 1,2,-1
 316 636 l 1,3,-1
 233 165 l 1,4,-1
 410 165 l 1,5,-1
 367 0 l 1,0,-1
EndSplineSet
EndChar

StartChar: M
Encoding: 77 77 48
Width: 772
GlyphClass: 2
Flags: W
LayerCount: 2
Fore
SplineSet
677 0 m 1,0,-1
 484 0 l 1,1,-1
 537 303 l 1,2,-1
 532 303 l 1,3,-1
 418 0 l 1,4,-1
 239 0 l 1,5,-1
 233 303 l 1,6,-1
 227 303 l 1,7,-1
 174 0 l 1,8,-1
 -17 0 l 1,9,-1
 119 636 l 1,10,-1
 392 636 l 1,11,-1
 389 348 l 1,12,-1
 398 348 l 1,13,-1
 496 636 l 1,14,-1
 766 636 l 1,15,-1
 677 0 l 1,0,-1
EndSplineSet
EndChar

StartChar: N
Encoding: 78 78 49
Width: 621
GlyphClass: 2
Flags: W
LayerCount: 2
Fore
SplineSet
525 0 m 1,0,-1
 316 0 l 1,1,-1
 231 251 l 1,2,-1
 224 251 l 1,3,-1
 180 0 l 1,4,-1
 -15 0 l 1,5,-1
 97 636 l 1,6,-1
 313 636 l 1,7,-1
 388 377 l 1,8,-1
 394 377 l 1,9,-1
 440 636 l 1,10,-1
 637 636 l 1,11,-1
 525 0 l 1,0,-1
EndSplineSet
EndChar

StartChar: O
Encoding: 79 79 50
Width: 623
GlyphClass: 2
Flags: W
LayerCount: 2
Fore
SplineSet
133 569.5 m 128,-1,1
 215 646 215 646 371 646 c 128,-1,2
 527 646 527 646 580.5 570.5 c 128,-1,3
 634 495 634 495 604 324.5 c 128,-1,4
 574 154 574 154 490.5 72 c 128,-1,5
 407 -10 407 -10 253 -10 c 128,-1,6
 99 -10 99 -10 45 71 c 128,-1,7
 -9 152 -9 152 21 322.5 c 128,-1,0
 51 493 51 493 133 569.5 c 128,-1,1
339 470 m 128,-1,9
 295 470 295 470 278.5 444.5 c 128,-1,10
 262 419 262 419 247 335 c 2,11,-1
 239 290 l 2,12,13
 224 204 224 204 232.5 178.5 c 128,-1,14
 241 153 241 153 286 153 c 128,-1,15
 331 153 331 153 347 177.5 c 128,-1,16
 363 202 363 202 378 287 c 2,17,-1
 386 334 l 2,18,19
 401 418 401 418 392 444 c 128,-1,8
 383 470 383 470 339 470 c 128,-1,9
EndSplineSet
EndChar

StartChar: P
Encoding: 80 80 51
Width: 537
GlyphClass: 2
Flags: W
LayerCount: 2
Fore
SplineSet
279 199 m 2,0,-1
 235 199 l 1,1,-1
 200 0 l 1,2,-1
 -15 0 l 1,3,-1
 97 636 l 1,4,-1
 345 636 l 2,5,6
 471 636 471 636 519 585 c 128,-1,7
 567 534 567 534 546 416 c 128,-1,8
 525 298 525 298 461.5 248.5 c 128,-1,9
 398 199 398 199 279 199 c 2,0,-1
334 402.5 m 128,-1,11
 341 441 341 441 334.5 457.5 c 128,-1,12
 328 474 328 474 301 474 c 2,13,-1
 280 474 l 1,14,-1
 254 331 l 1,15,-1
 281 331 l 2,16,17
 305 331 305 331 316 347.5 c 128,-1,10
 327 364 327 364 334 402.5 c 128,-1,11
EndSplineSet
EndChar

StartChar: Q
Encoding: 81 81 52
Width: 627
GlyphClass: 2
Flags: W
LayerCount: 2
Fore
SplineSet
377.5 646 m 128,-1,1
 533 646 533 646 587 570.5 c 128,-1,2
 641 495 641 495 611 328 c 0,3,4
 591 214 591 214 550.5 149 c 128,-1,5
 510 84 510 84 435 43 c 1,6,-1
 434 39 l 1,7,-1
 580 39 l 1,8,-1
 541 -105 l 1,9,-1
 498 -105 l 2,10,11
 399 -105 399 -105 339 -66 c 2,12,-1
 258 -10 l 1,13,14
 101 -10 101 -10 49.5 73.5 c 128,-1,15
 -2 157 -2 157 27.5 325 c 128,-1,16
 57 493 57 493 139.5 569.5 c 128,-1,0
 222 646 222 646 377.5 646 c 128,-1,1
345 470 m 128,-1,18
 301 470 301 470 284.5 444.5 c 128,-1,19
 268 419 268 419 253 335 c 2,20,-1
 245 290 l 2,21,22
 230 204 230 204 238.5 178.5 c 128,-1,23
 247 153 247 153 292 153 c 128,-1,24
 337 153 337 153 353 177.5 c 128,-1,25
 369 202 369 202 384 287 c 2,26,-1
 392 334 l 2,27,28
 407 418 407 418 398 444 c 128,-1,17
 389 470 389 470 345 470 c 128,-1,18
EndSplineSet
EndChar

StartChar: R
Encoding: 82 82 53
Width: 576
GlyphClass: 2
Flags: W
LayerCount: 2
Fore
SplineSet
564 431 m 0,0,1
 553 370 553 370 526.5 333.5 c 128,-1,2
 500 297 500 297 453 269 c 1,3,-1
 501 0 l 1,4,-1
 275 0 l 1,5,-1
 250 219 l 1,6,-1
 234 219 l 1,7,-1
 195 0 l 1,8,-1
 -15 0 l 1,9,-1
 97 636 l 1,10,-1
 368 636 l 2,11,12
 487 636 487 636 535 586 c 128,-1,13
 583 536 583 536 564 431 c 0,0,1
313 358 m 128,-1,15
 325 372 325 372 331 406.5 c 128,-1,16
 337 441 337 441 329 454.5 c 128,-1,17
 321 468 321 468 299 468 c 2,18,-1
 273 468 l 1,19,-1
 252 344 l 1,20,-1
 277 344 l 2,21,14
 301 344 301 344 313 358 c 128,-1,15
EndSplineSet
EndChar

StartChar: S
Encoding: 83 83 54
Width: 494
GlyphClass: 2
Flags: W
LayerCount: 2
Fore
SplineSet
119.5 590 m 128,-1,1
 191 646 191 646 300 646 c 128,-1,2
 409 646 409 646 521 626 c 1,3,-1
 465 445 l 1,4,5
 342 471 342 471 302.5 471 c 128,-1,6
 263 471 263 471 259 446 c 0,7,8
 257 437 257 437 262.5 433.5 c 128,-1,9
 268 430 268 430 270.5 428 c 128,-1,10
 273 426 273 426 281 423 c 128,-1,11
 289 420 289 420 294.5 417.5 c 128,-1,12
 300 415 300 415 329 402 c 128,-1,13
 358 389 358 389 372.5 381.5 c 128,-1,14
 387 374 387 374 411 356 c 0,15,16
 482 304 482 304 464 202.5 c 128,-1,17
 446 101 446 101 376 45.5 c 128,-1,18
 306 -10 306 -10 192.5 -10 c 128,-1,19
 79 -10 79 -10 -24 17 c 1,20,-1
 20 190 l 1,21,22
 151 155 151 155 199 156 c 0,23,24
 231 156 231 156 235 178 c 0,25,26
 237 188 237 188 230.5 194.5 c 128,-1,27
 224 201 224 201 210.5 208 c 128,-1,28
 197 215 197 215 170.5 227 c 128,-1,29
 144 239 144 239 126 247.5 c 128,-1,30
 108 256 108 256 84 274 c 0,31,32
 12 330 12 330 30 432 c 128,-1,0
 48 534 48 534 119.5 590 c 128,-1,1
EndSplineSet
EndChar

StartChar: T
Encoding: 84 84 55
Width: 487
GlyphClass: 2
Flags: W
LayerCount: 2
Fore
SplineSet
511 463 m 1,0,-1
 376 463 l 1,1,-1
 294 0 l 1,2,-1
 76 0 l 1,3,-1
 158 463 l 1,4,-1
 16 463 l 1,5,-1
 55 636 l 1,6,-1
 554 636 l 1,7,-1
 511 463 l 1,0,-1
EndSplineSet
EndChar

StartChar: U
Encoding: 85 85 56
Width: 627
GlyphClass: 2
Flags: W
LayerCount: 2
Fore
SplineSet
250 225 m 2,0,1
 240 170 240 170 290.5 170 c 128,-1,2
 341 170 341 170 351 226 c 2,3,-1
 423 636 l 1,4,-1
 642 636 l 1,5,-1
 567 213 l 2,6,7
 547 100 547 100 466.5 45 c 128,-1,8
 386 -10 386 -10 254 -10 c 0,9,10
 -14 -10 -14 -10 25 211 c 2,11,-1
 100 636 l 1,12,-1
 323 636 l 1,13,-1
 250 225 l 2,0,1
EndSplineSet
EndChar

StartChar: V
Encoding: 86 86 57
Width: 587
GlyphClass: 2
Flags: W
LayerCount: 2
Fore
SplineSet
634 636 m 1,0,-1
 399 0 l 1,1,-1
 84 0 l 1,2,-1
 66 636 l 1,3,-1
 303 636 l 1,4,-1
 283 246 l 1,5,-1
 295 246 l 1,6,-1
 408 636 l 1,7,-1
 634 636 l 1,0,-1
EndSplineSet
EndChar

StartChar: W
Encoding: 87 87 58
Width: 772
GlyphClass: 2
Flags: W
LayerCount: 2
Fore
SplineSet
808 636 m 1,0,-1
 628 0 l 1,1,-1
 384 0 l 1,2,-1
 381 258 l 1,3,-1
 373 258 l 1,4,-1
 287 0 l 1,5,-1
 43 0 l 1,6,-1
 76 636 l 1,7,-1
 277 636 l 1,8,-1
 252 344 l 1,9,-1
 261 344 l 1,10,-1
 351 636 l 1,11,-1
 544 636 l 1,12,-1
 536 344 l 1,13,-1
 544 344 l 1,14,-1
 614 636 l 1,15,-1
 808 636 l 1,0,-1
EndSplineSet
EndChar

StartChar: X
Encoding: 88 88 59
Width: 586
GlyphClass: 2
Flags: W
LayerCount: 2
Fore
SplineSet
531 0 m 1,0,-1
 296 0 l 1,1,-1
 269 173 l 1,2,-1
 260 173 l 1,3,-1
 168 0 l 1,4,-1
 -56 0 l 1,5,-1
 124 324 l 1,6,-1
 68 636 l 1,7,-1
 307 636 l 1,8,-1
 323 458 l 1,9,-1
 331 458 l 1,10,-1
 414 636 l 1,11,-1
 627 636 l 1,12,-1
 470 323 l 1,13,-1
 531 0 l 1,0,-1
EndSplineSet
EndChar

StartChar: Y
Encoding: 89 89 60
Width: 548
GlyphClass: 2
Flags: W
LayerCount: 2
Fore
SplineSet
605 636 m 1,0,-1
 361 202 l 1,1,-1
 325 0 l 1,2,-1
 107 0 l 1,3,-1
 143 203 l 1,4,-1
 56 636 l 1,5,-1
 286 636 l 1,6,-1
 290 402 l 1,7,-1
 297 402 l 1,8,-1
 381 636 l 1,9,-1
 605 636 l 1,0,-1
EndSplineSet
EndChar

StartChar: Z
Encoding: 90 90 61
Width: 539
GlyphClass: 2
Flags: W
LayerCount: 2
Fore
SplineSet
471 0 m 1,0,-1
 -10 0 l 1,1,-1
 2 110 l 1,2,-1
 261 461 l 1,3,-1
 49 461 l 1,4,-1
 68 636 l 1,5,-1
 567 636 l 1,6,-1
 555 528 l 1,7,-1
 307 163 l 1,8,-1
 500 163 l 1,9,-1
 471 0 l 1,0,-1
EndSplineSet
EndChar

StartChar: bracketleft
Encoding: 91 91 62
Width: 388
GlyphClass: 2
Flags: W
LayerCount: 2
Fore
SplineSet
274 -140 m 1,0,-1
 -16 -140 l 1,1,-1
 122 646 l 1,2,-1
 412 646 l 1,3,-1
 387 502 l 1,4,-1
 313 502 l 1,5,-1
 225 3 l 1,6,-1
 299 3 l 1,7,-1
 274 -140 l 1,0,-1
EndSplineSet
EndChar

StartChar: backslash
Encoding: 92 92 63
Width: 427
GlyphClass: 2
Flags: W
LayerCount: 2
Fore
SplineSet
165 -145 m 1,0,-1
 53 631 l 1,1,-1
 263 631 l 1,2,-1
 374 -145 l 1,3,-1
 165 -145 l 1,0,-1
EndSplineSet
EndChar

StartChar: bracketright
Encoding: 93 93 64
Width: 389
GlyphClass: 2
Flags: W
LayerCount: 2
Fore
SplineSet
267 -140 m 1,0,-1
 -24 -140 l 1,1,-1
 1 3 l 1,2,-1
 77 3 l 1,3,-1
 165 502 l 1,4,-1
 89 502 l 1,5,-1
 114 646 l 1,6,-1
 405 646 l 1,7,-1
 267 -140 l 1,0,-1
EndSplineSet
EndChar

StartChar: asciicircum
Encoding: 94 94 65
Width: 512
GlyphClass: 2
Flags: W
LayerCount: 2
Fore
SplineSet
359 657 m 1,0,-1
 415 523 l 1,1,-1
 281 523 l 1,2,-1
 255 577 l 1,3,-1
 208 523 l 1,4,-1
 73 523 l 1,5,-1
 177 657 l 1,6,-1
 359 657 l 1,0,-1
EndSplineSet
EndChar

StartChar: underscore
Encoding: 95 95 66
Width: 409
GlyphClass: 2
Flags: W
LayerCount: 2
Fore
SplineSet
400 -140 m 1,0,-1
 -10 -140 l 1,1,-1
 10 -23 l 1,2,-1
 420 -23 l 1,3,-1
 400 -140 l 1,0,-1
EndSplineSet
EndChar

StartChar: grave
Encoding: 96 96 67
Width: 512
GlyphClass: 2
Flags: W
LayerCount: 2
Fore
SplineSet
231 529 m 1,0,-1
 125 663 l 1,1,-1
 330 663 l 1,2,-1
 376 529 l 1,3,-1
 231 529 l 1,0,-1
EndSplineSet
EndChar

StartChar: a
Encoding: 97 97 68
Width: 510
GlyphClass: 2
Flags: W
LayerCount: 2
Fore
SplineSet
484 358 m 2,0,-1
 442 154 l 2,1,2
 440 140 440 140 449 135 c 128,-1,3
 458 130 458 130 486 130 c 1,4,-1
 442 -6 l 1,5,6
 380 -10 380 -10 359 -10 c 0,7,8
 284 -10 284 -10 258 30 c 1,9,-1
 251 30 l 1,10,11
 195 -10 195 -10 120.5 -10 c 128,-1,12
 46 -10 46 -10 14.5 29.5 c 128,-1,13
 -17 69 -17 69 -5 138 c 0,14,15
 10 224 10 224 74 258 c 128,-1,16
 138 292 138 292 266 301 c 1,17,-1
 269 319 l 2,18,19
 272 337 272 337 253 338 c 0,20,21
 201 338 201 338 67 306 c 1,22,-1
 65 468 l 1,23,24
 217 503 217 503 322.5 503 c 128,-1,25
 428 503 428 503 462.5 468 c 128,-1,26
 497 433 497 433 484 358 c 2,0,-1
210 122 m 0,27,28
 240 122 240 122 246 153 c 2,29,-1
 252 191 l 1,30,31
 198 184 198 184 192 151 c 0,32,33
 186 122 186 122 210 122 c 0,27,28
EndSplineSet
EndChar

StartChar: b
Encoding: 98 98 69
Width: 534
GlyphClass: 2
Flags: W
LayerCount: 2
Fore
SplineSet
507 257 m 0,0,1
 495 189 495 189 479.5 143.5 c 128,-1,2
 464 98 464 98 437 61 c 0,3,4
 384 -11 384 -11 266 -10 c 0,5,6
 192 -10 192 -10 154 22 c 1,7,-1
 142 0 l 1,8,-1
 -26 0 l 1,9,-1
 90 656 l 1,10,-1
 296 656 l 1,11,-1
 265 482 l 1,12,13
 312 502 312 502 363 503 c 0,14,15
 477 503 477 503 503.5 446 c 128,-1,16
 530 389 530 389 507 257 c 0,0,1
272 158 m 128,-1,18
 281 181 281 181 291 239 c 128,-1,19
 301 297 301 297 299.5 321 c 128,-1,20
 298 345 298 345 277 345 c 0,21,22
 264 345 264 345 244 337 c 1,23,-1
 210 139 l 1,24,25
 227 135 227 135 241 135 c 0,26,17
 263 135 263 135 272 158 c 128,-1,18
EndSplineSet
EndChar

StartChar: c
Encoding: 99 99 70
Width: 406
GlyphClass: 2
Flags: W
LayerCount: 2
Fore
SplineSet
250.5 317.5 m 128,-1,1
 237 293 237 293 228 241.5 c 128,-1,2
 219 190 219 190 223.5 167 c 128,-1,3
 228 144 228 144 258.5 144 c 128,-1,4
 289 144 289 144 358 158 c 1,5,-1
 355 15 l 1,6,7
 260 -11 260 -11 200 -10 c 0,8,9
 86 -10 86 -10 39.5 55.5 c 128,-1,10
 -7 121 -7 121 13.5 238.5 c 128,-1,11
 34 356 34 356 106.5 429.5 c 128,-1,12
 179 503 179 503 293 503 c 0,13,14
 376 503 376 503 444 475 c 1,15,-1
 395 313 l 1,16,17
 320 342 320 342 292 342 c 128,-1,0
 264 342 264 342 250.5 317.5 c 128,-1,1
EndSplineSet
EndChar

StartChar: d
Encoding: 100 100 71
Width: 556
GlyphClass: 2
Flags: W
LayerCount: 2
Fore
SplineSet
378 -10 m 0,0,1
 298 -10 298 -10 276 30 c 1,2,-1
 272 30 l 1,3,4
 218 -10 218 -10 153 -10 c 0,5,6
 47 -10 47 -10 13.5 57.5 c 128,-1,7
 -20 125 -20 125 2 249 c 128,-1,8
 24 373 24 373 85.5 438 c 128,-1,9
 147 503 147 503 240 503 c 0,10,11
 293 503 293 503 323 486 c 1,12,-1
 353 656 l 1,13,-1
 559 656 l 1,14,-1
 470 154 l 2,15,16
 468 141 468 141 476.5 135.5 c 128,-1,17
 485 130 485 130 510 130 c 1,18,-1
 467 -6 l 1,19,20
 413 -10 413 -10 378 -10 c 0,0,1
235 323.5 m 128,-1,22
 225 300 225 300 214.5 241.5 c 128,-1,23
 204 183 204 183 205.5 160 c 128,-1,24
 207 137 207 137 228 137 c 128,-1,25
 249 137 249 137 262 141 c 1,26,-1
 297 340 l 1,27,28
 281 347 281 347 265 347 c 0,29,21
 245 347 245 347 235 323.5 c 128,-1,22
EndSplineSet
EndChar

StartChar: e
Encoding: 101 101 72
Width: 513
GlyphClass: 2
Flags: W
LayerCount: 2
Fore
SplineSet
280 338 m 0,0,1
 258 338 258 338 247.5 324.5 c 128,-1,2
 237 311 237 311 233 284 c 1,3,-1
 307 284 l 1,4,-1
 309 300 l 2,5,6
 316 338 316 338 280 338 c 0,0,1
112.5 436 m 128,-1,8
 188 503 188 503 312.5 503 c 128,-1,9
 437 503 437 503 480 451.5 c 128,-1,10
 523 400 523 400 506 305 c 0,11,12
 499 267 499 267 477 190 c 1,13,-1
 220 190 l 1,14,15
 214 135 214 135 278 135 c 0,16,17
 308 135 308 135 438 157 c 1,18,-1
 431 18 l 1,19,20
 317 -11 317 -11 223 -10 c 0,21,22
 100 -10 100 -10 47 57.5 c 128,-1,23
 -6 125 -6 125 15.5 247 c 128,-1,7
 37 369 37 369 112.5 436 c 128,-1,8
EndSplineSet
EndChar

StartChar: f
Encoding: 102 102 73
Width: 339
GlyphClass: 2
Flags: W
LayerCount: 2
Fore
SplineSet
274 664 m 0,0,1
 343 664 343 664 425 658 c 1,2,-1
 380 498 l 1,3,4
 311 504 311 504 301.5 504 c 128,-1,5
 292 504 292 504 291 494 c 2,6,-1
 287 476 l 1,7,-1
 374 476 l 1,8,-1
 339 338 l 1,9,-1
 265 338 l 1,10,-1
 205 0 l 1,11,-1
 -9 0 l 1,12,-1
 51 338 l 1,13,-1
 2 338 l 1,14,-1
 26 476 l 1,15,-1
 75 476 l 1,16,-1
 84 525 l 2,17,18
 109 664 109 664 274 664 c 0,0,1
EndSplineSet
EndChar

StartChar: g
Encoding: 103 103 74
Width: 525
GlyphClass: 2
Flags: W
LayerCount: 2
Fore
SplineSet
305 503 m 2,0,-1
 583 503 l 1,1,-1
 561 378 l 1,2,-1
 486 378 l 1,3,-1
 485 374 l 1,4,5
 513 349 513 349 503 301 c 0,6,7
 475 140 475 140 268 140 c 2,8,-1
 204 140 l 2,9,10
 196 140 196 140 194 131 c 128,-1,11
 192 122 192 122 200 122 c 2,12,-1
 363 122 l 2,13,14
 494 122 494 122 476 15 c 0,15,16
 447 -151 447 -151 187 -151 c 0,17,18
 83 -151 83 -151 30 -127 c 128,-1,19
 -23 -103 -23 -103 -12 -42 c 0,20,21
 -6 -8 -6 -8 31 8 c 1,22,-1
 32 12 l 1,23,24
 -11 37 -11 37 -0.5 94.5 c 128,-1,25
 10 152 10 152 93 183 c 1,26,27
 30 234 30 234 46 325 c 128,-1,28
 62 416 62 416 129.5 459.5 c 128,-1,29
 197 503 197 503 305 503 c 2,0,-1
286 346 m 0,30,31
 259 346 259 346 250 295 c 128,-1,32
 241 244 241 244 270 244 c 0,33,34
 297 244 297 244 306 294 c 0,35,36
 311 322 311 322 306.5 334 c 128,-1,37
 302 346 302 346 286 346 c 0,30,31
166 -30 m 2,38,-1
 282 -30 l 2,39,40
 291 -30 291 -30 293 -23 c 2,41,-1
 294 -16 l 2,42,43
 295 -9 295 -9 285 -9 c 2,44,-1
 169 -9 l 2,45,46
 162 -9 162 -9 161 -16 c 2,47,-1
 160 -23 l 2,48,49
 159 -30 159 -30 166 -30 c 2,38,-1
EndSplineSet
EndChar

StartChar: h
Encoding: 104 104 75
Width: 551
GlyphClass: 2
Flags: W
LayerCount: 2
Fore
SplineSet
406 503 m 0,0,1
 545 503 545 503 522 374 c 2,2,-1
 456 0 l 1,3,-1
 240 0 l 1,4,-1
 296 317 l 2,5,6
 299 333 299 333 282 333.5 c 128,-1,7
 265 334 265 334 243 324 c 1,8,-1
 186 0 l 1,9,-1
 -27 0 l 1,10,-1
 89 656 l 1,11,-1
 295 656 l 1,12,-1
 260 460 l 1,13,14
 330 503 330 503 406 503 c 0,0,1
EndSplineSet
EndChar

StartChar: i
Encoding: 105 105 76
Width: 286
GlyphClass: 2
Flags: W
LayerCount: 2
Fore
SplineSet
192 0 m 1,0,-1
 -21 0 l 1,1,-1
 63 480 l 1,2,-1
 276 480 l 1,3,-1
 192 0 l 1,0,-1
78 584 m 0,4,5
 93 671 93 671 202.5 671 c 128,-1,6
 312 671 312 671 297 584 c 0,7,8
 289 539 289 539 258.5 519.5 c 128,-1,9
 228 500 228 500 172.5 500 c 128,-1,10
 117 500 117 500 93.5 519 c 128,-1,11
 70 538 70 538 78 584 c 0,4,5
EndSplineSet
EndChar

StartChar: j
Encoding: 106 106 77
Width: 291
GlyphClass: 2
Flags: W
LayerCount: 2
Fore
SplineSet
294 480 m 1,0,-1
 209 -4 l 2,1,2
 195 -85 195 -85 148 -115 c 128,-1,3
 101 -145 101 -145 -13 -145 c 2,4,-1
 -80 -145 l 1,5,-1
 -71 7 l 1,6,-1
 -19 7 l 2,7,8
 -7 7 -7 7 -3.5 10 c 128,-1,9
 0 13 0 13 2 23 c 2,10,-1
 82 480 l 1,11,-1
 294 480 l 1,0,-1
95 584 m 0,12,13
 110 671 110 671 219.5 671 c 128,-1,14
 329 671 329 671 314 584 c 0,15,16
 306 539 306 539 275.5 519.5 c 128,-1,17
 245 500 245 500 189.5 500 c 128,-1,18
 134 500 134 500 110.5 519 c 128,-1,19
 87 538 87 538 95 584 c 0,12,13
EndSplineSet
EndChar

StartChar: k
Encoding: 107 107 78
Width: 526
GlyphClass: 2
Flags: W
LayerCount: 2
Fore
SplineSet
477 0 m 1,0,-1
 246 0 l 1,1,-1
 216 161 l 1,2,-1
 212 161 l 1,3,-1
 183 0 l 1,4,-1
 -27 0 l 1,5,-1
 89 656 l 1,6,-1
 299 656 l 1,7,-1
 239 318 l 1,8,-1
 243 318 l 1,9,-1
 345 490 l 1,10,-1
 568 490 l 1,11,-1
 408 236 l 1,12,13
 420 194 420 194 443.5 114.5 c 128,-1,14
 467 35 467 35 477 0 c 1,0,-1
EndSplineSet
EndChar

StartChar: l
Encoding: 108 108 79
Width: 292
GlyphClass: 2
Flags: W
LayerCount: 2
Fore
SplineSet
-2 127 m 2,0,-1
 92 656 l 1,1,-1
 302 656 l 1,2,-1
 217 174 l 2,3,4
 212 146 212 146 250 146 c 1,5,-1
 206 -10 l 1,6,-1
 122 -10 l 2,7,8
 -26 -10 -26 -10 -2 127 c 2,0,-1
EndSplineSet
EndChar

StartChar: m
Encoding: 109 109 80
Width: 814
GlyphClass: 2
Flags: W
LayerCount: 2
Fore
SplineSet
686 503 m 0,0,1
 827 503 827 503 803 364 c 2,2,-1
 739 0 l 1,3,-1
 523 0 l 1,4,-1
 579 317 l 2,5,6
 582 333 582 333 570 334 c 0,7,8
 554 334 554 334 527 324 c 1,9,-1
 470 0 l 1,10,-1
 254 0 l 1,11,-1
 310 317 l 2,12,13
 313 333 313 333 300 334 c 0,14,15
 282 334 282 334 257 324 c 1,16,-1
 200 0 l 1,17,-1
 -13 0 l 1,18,-1
 73 490 l 1,19,-1
 266 490 l 1,20,-1
 267 459 l 1,21,22
 344 503 344 503 423.5 503 c 128,-1,23
 503 503 503 503 530 454 c 1,24,25
 607 503 607 503 686 503 c 0,0,1
EndSplineSet
EndChar

StartChar: n
Encoding: 110 110 81
Width: 544
GlyphClass: 2
Flags: W
LayerCount: 2
Fore
SplineSet
415 503 m 0,0,1
 558 503 558 503 534 364 c 2,2,-1
 470 0 l 1,3,-1
 254 0 l 1,4,-1
 310 317 l 2,5,6
 313 333 313 333 296 333.5 c 128,-1,7
 279 334 279 334 257 324 c 1,8,-1
 200 0 l 1,9,-1
 -13 0 l 1,10,-1
 73 490 l 1,11,-1
 266 490 l 1,12,-1
 267 459 l 1,13,14
 339 503 339 503 415 503 c 0,0,1
EndSplineSet
EndChar

StartChar: o
Encoding: 111 111 82
Width: 522
GlyphClass: 2
Flags: W
LayerCount: 2
Fore
SplineSet
109.5 442.5 m 128,-1,1
 180 503 180 503 307.5 503 c 128,-1,2
 435 503 435 503 483 443.5 c 128,-1,3
 531 384 531 384 507 248.5 c 128,-1,4
 483 113 483 113 415.5 51.5 c 128,-1,5
 348 -10 348 -10 218.5 -10 c 128,-1,6
 89 -10 89 -10 40 51.5 c 128,-1,7
 -9 113 -9 113 15 247.5 c 128,-1,0
 39 382 39 382 109.5 442.5 c 128,-1,1
281.5 352 m 128,-1,9
 260 352 260 352 250.5 334 c 128,-1,10
 241 316 241 316 231 258 c 2,11,-1
 227 233 l 2,12,13
 215 167 215 167 217.5 148.5 c 128,-1,14
 220 130 220 130 241.5 130 c 128,-1,15
 263 130 263 130 272 149 c 128,-1,16
 281 168 281 168 292 228 c 2,17,-1
 297 257 l 2,18,19
 307 316 307 316 305 334 c 128,-1,8
 303 352 303 352 281.5 352 c 128,-1,9
EndSplineSet
EndChar

StartChar: p
Encoding: 112 112 83
Width: 534
GlyphClass: 2
Flags: W
LayerCount: 2
Fore
SplineSet
285 -10 m 0,0,1
 247 -10 247 -10 213 4 c 1,2,-1
 187 -140 l 1,3,-1
 -26 -140 l 1,4,-1
 85 490 l 1,5,-1
 261 490 l 1,6,-1
 266 468 l 1,7,8
 320 503 320 503 388 503 c 0,9,10
 499 503 499 503 527.5 446 c 128,-1,11
 556 389 556 389 531.5 252.5 c 128,-1,12
 507 116 507 116 454 53 c 128,-1,13
 401 -10 401 -10 285 -10 c 0,0,1
297 158 m 128,-1,15
 306 181 306 181 316 239 c 128,-1,16
 326 297 326 297 324.5 321 c 128,-1,17
 323 345 323 345 302 345 c 0,18,19
 289 345 289 345 269 337 c 1,20,-1
 235 139 l 1,21,22
 252 135 252 135 266 135 c 0,23,14
 288 135 288 135 297 158 c 128,-1,15
EndSplineSet
EndChar

StartChar: q
Encoding: 113 113 84
Width: 538
GlyphClass: 2
Flags: W
LayerCount: 2
Fore
SplineSet
37 55 m 128,-1,1
 4 120 4 120 26 245.5 c 128,-1,2
 48 371 48 371 110 437 c 128,-1,3
 172 503 172 503 265 503 c 0,4,5
 336 503 336 503 370 468 c 1,6,-1
 383 490 l 1,7,-1
 559 490 l 1,8,-1
 448 -140 l 1,9,-1
 235 -140 l 1,10,-1
 261 8 l 1,11,12
 217 -10 217 -10 178 -10 c 0,13,0
 70 -10 70 -10 37 55 c 128,-1,1
260 323.5 m 128,-1,15
 250 300 250 300 239.5 241.5 c 128,-1,16
 229 183 229 183 230.5 160 c 128,-1,17
 232 137 232 137 251 137 c 128,-1,18
 270 137 270 137 287 141 c 1,19,-1
 322 339 l 1,20,21
 303 347 303 347 290 347 c 0,22,14
 270 347 270 347 260 323.5 c 128,-1,15
EndSplineSet
EndChar

StartChar: r
Encoding: 114 114 85
Width: 387
GlyphClass: 2
Flags: W
LayerCount: 2
Fore
SplineSet
248 274 m 2,0,-1
 200 0 l 1,1,-1
 -11 0 l 1,2,-1
 75 490 l 1,3,-1
 257 490 l 1,4,-1
 258 458 l 1,5,-1
 262 458 l 1,6,7
 291 481 291 481 324 489.5 c 128,-1,8
 357 498 357 498 419 498 c 1,9,-1
 383 328 l 1,10,-1
 313 328 l 2,11,12
 282 328 282 328 267.5 316.5 c 128,-1,13
 253 305 253 305 248 274 c 2,0,-1
EndSplineSet
EndChar

StartChar: s
Encoding: 115 115 86
Width: 412
GlyphClass: 2
Flags: W
LayerCount: 2
Fore
SplineSet
391 153 m 0,0,1
 362 -10 362 -10 172 -10 c 0,2,3
 74 -10 74 -10 -15 11 c 1,4,-1
 25 162 l 1,5,6
 148 131 148 131 190 131 c 0,7,8
 204 131 204 131 205.5 140.5 c 128,-1,9
 207 150 207 150 192 156 c 0,10,11
 93 192 93 192 51.5 231.5 c 128,-1,12
 10 271 10 271 23.5 346 c 128,-1,13
 37 421 37 421 97 462 c 128,-1,14
 157 503 157 503 246.5 503 c 128,-1,15
 336 503 336 503 440 482 c 1,16,-1
 391 328 l 1,17,18
 261 355 261 355 232 354 c 0,19,20
 219 354 219 354 217 344 c 0,21,22
 216 336 216 336 232 330 c 0,23,24
 312 302 312 302 345 275 c 128,-1,25
 378 248 378 248 388 219.5 c 128,-1,26
 398 191 398 191 391 153 c 0,0,1
EndSplineSet
EndChar

StartChar: t
Encoding: 116 116 87
Width: 374
GlyphClass: 2
Flags: W
LayerCount: 2
Fore
SplineSet
158 -10 m 0,0,1
 78 -10 78 -10 46 20 c 128,-1,2
 14 50 14 50 27 124 c 2,3,-1
 66 346 l 1,4,-1
 12 346 l 1,5,-1
 37 484 l 1,6,-1
 102 484 l 1,7,-1
 131 575 l 1,8,-1
 320 575 l 1,9,-1
 304 484 l 1,10,-1
 397 484 l 1,11,-1
 372 346 l 1,12,-1
 278 346 l 1,13,-1
 245 157 l 2,14,15
 243 144 243 144 255 143 c 0,16,17
 256 143 256 143 336 147 c 1,18,-1
 304 0 l 1,19,20
 200 -10 200 -10 158 -10 c 0,0,1
EndSplineSet
EndChar

StartChar: u
Encoding: 117 117 88
Width: 551
GlyphClass: 2
Flags: W
LayerCount: 2
Fore
SplineSet
132 -10 m 0,0,1
 -13 -10 -13 -10 11 129 c 2,2,-1
 75 490 l 1,3,-1
 290 490 l 1,4,-1
 233 169 l 2,5,6
 230 153 230 153 245 153 c 128,-1,7
 260 153 260 153 286 163 c 1,8,-1
 344 490 l 1,9,-1
 558 490 l 1,10,-1
 472 2 l 1,11,-1
 267 2 l 1,12,-1
 272 28 l 1,13,-1
 266 28 l 1,14,15
 200 -10 200 -10 132 -10 c 0,0,1
EndSplineSet
EndChar

StartChar: v
Encoding: 118 118 89
Width: 507
GlyphClass: 2
Flags: W
LayerCount: 2
Fore
SplineSet
555 490 m 1,0,-1
 351 0 l 1,1,-1
 63 0 l 1,2,-1
 31 490 l 1,3,-1
 253 490 l 1,4,-1
 248 228 l 1,5,-1
 255 228 l 1,6,-1
 346 490 l 1,7,-1
 555 490 l 1,0,-1
EndSplineSet
EndChar

StartChar: w
Encoding: 119 119 90
Width: 684
GlyphClass: 2
Flags: W
LayerCount: 2
Fore
SplineSet
714 490 m 1,0,-1
 556 0 l 1,1,-1
 328 0 l 1,2,-1
 322 168 l 1,3,-1
 317 168 l 1,4,-1
 255 0 l 1,5,-1
 31 0 l 1,6,-1
 45 490 l 1,7,-1
 244 490 l 1,8,-1
 224 272 l 1,9,-1
 230 272 l 1,10,-1
 297 490 l 1,11,-1
 468 490 l 1,12,-1
 457 272 l 1,13,-1
 464 272 l 1,14,-1
 522 490 l 1,15,-1
 714 490 l 1,0,-1
EndSplineSet
EndChar

StartChar: x
Encoding: 120 120 91
Width: 507
GlyphClass: 2
Flags: W
LayerCount: 2
Fore
SplineSet
282 365 m 1,0,-1
 329 490 l 1,1,-1
 548 490 l 1,2,-1
 403 242 l 1,3,-1
 465 0 l 1,4,-1
 239 0 l 1,5,-1
 231 122 l 1,6,-1
 225 122 l 1,7,-1
 177 0 l 1,8,-1
 -43 0 l 1,9,-1
 101 237 l 1,10,11
 98 249 98 249 76.5 346 c 128,-1,12
 55 443 55 443 44 490 c 1,13,-1
 276 490 l 1,14,-1
 276 365 l 1,15,-1
 282 365 l 1,0,-1
EndSplineSet
EndChar

StartChar: y
Encoding: 121 121 92
Width: 515
GlyphClass: 2
Flags: W
LayerCount: 2
Fore
SplineSet
273 225 m 1,0,1
 366 484 366 484 368 490 c 1,2,-1
 579 490 l 1,3,-1
 349 -8 l 2,4,5
 314 -84 314 -84 264 -112 c 128,-1,6
 214 -140 214 -140 113 -140 c 2,7,-1
 -10 -140 l 1,8,-1
 -7 6 l 1,9,-1
 74 6 l 2,10,11
 101 6 101 6 104 24 c 0,12,13
 106 35 106 35 104 52 c 2,14,-1
 48 490 l 1,15,-1
 273 490 l 1,16,-1
 269 225 l 1,17,-1
 273 225 l 1,0,1
EndSplineSet
EndChar

StartChar: z
Encoding: 122 122 93
Width: 456
GlyphClass: 2
Flags: W
LayerCount: 2
Fore
SplineSet
401 0 m 1,0,-1
 -28 0 l 1,1,-1
 -13 116 l 1,2,-1
 186 330 l 1,3,-1
 20 330 l 1,4,-1
 48 490 l 1,5,-1
 477 490 l 1,6,-1
 464 383 l 1,7,-1
 268 153 l 1,8,-1
 428 153 l 1,9,-1
 401 0 l 1,0,-1
EndSplineSet
EndChar

StartChar: braceleft
Encoding: 123 123 94
Width: 403
GlyphClass: 2
Flags: W
LayerCount: 2
Fore
SplineSet
289 -140 m 1,0,-1
 153 -140 l 2,1,2
 73 -140 73 -140 44.5 -109 c 128,-1,3
 16 -78 16 -78 29 -4 c 2,4,-1
 57 158 l 2,5,6
 61 180 61 180 50.5 183.5 c 128,-1,7
 40 187 40 187 0 187 c 1,8,-1
 26 330 l 1,9,10
 67 330 67 330 78 334 c 128,-1,11
 89 338 89 338 93 358 c 2,12,-1
 118 502 l 2,13,14
 132 582 132 582 170.5 614 c 128,-1,15
 209 646 209 646 291 646 c 2,16,-1
 427 646 l 1,17,-1
 401 499 l 1,18,-1
 324 499 l 1,19,-1
 296 337 l 2,20,21
 290 302 290 302 278 287.5 c 128,-1,22
 266 273 266 273 239 260 c 1,23,-1
 238 254 l 1,24,25
 259 243 259 243 266 226.5 c 128,-1,26
 273 210 273 210 268 178 c 2,27,-1
 237 2 l 1,28,-1
 314 2 l 1,29,-1
 289 -140 l 1,0,-1
EndSplineSet
EndChar

StartChar: bar
Encoding: 124 124 95
Width: 386
GlyphClass: 2
Flags: W
LayerCount: 2
Fore
SplineSet
226 -145 m 1,0,-1
 24 -145 l 1,1,-1
 160 631 l 1,2,-1
 362 631 l 1,3,-1
 226 -145 l 1,0,-1
EndSplineSet
EndChar

StartChar: braceright
Encoding: 125 125 96
Width: 403
GlyphClass: 2
Flags: W
LayerCount: 2
Fore
SplineSet
112 -140 m 2,0,-1
 -24 -140 l 1,1,-1
 1 2 l 1,2,-1
 79 2 l 1,3,-1
 110 178 l 2,4,5
 116 210 116 210 128.5 226.5 c 128,-1,6
 141 243 141 243 166 254 c 1,7,-1
 167 260 l 1,8,9
 144 273 144 273 138 287.5 c 128,-1,10
 132 302 132 302 138 337 c 2,11,-1
 166 499 l 1,12,-1
 88 499 l 1,13,-1
 114 646 l 1,14,-1
 250 646 l 2,15,16
 332 646 332 646 360 614 c 128,-1,17
 388 582 388 582 374 502 c 2,18,-1
 349 358 l 2,19,20
 345 338 345 338 354 334 c 128,-1,21
 363 330 363 330 405 330 c 1,22,-1
 379 187 l 1,23,24
 339 187 339 187 328 183 c 128,-1,25
 317 179 317 179 313 158 c 2,26,-1
 285 -4 l 2,27,28
 272 -78 272 -78 232 -109 c 128,-1,29
 192 -140 192 -140 112 -140 c 2,0,-1
EndSplineSet
EndChar

StartChar: asciitilde
Encoding: 126 126 97
Width: 512
GlyphClass: 2
Flags: W
LayerCount: 2
Fore
SplineSet
457 673 m 1,0,-1
 455 660 l 2,1,2
 443 592 443 592 414.5 556.5 c 128,-1,3
 386 521 386 521 321 521 c 0,4,5
 283 521 283 521 212 548 c 1,6,-1
 206 515 l 1,7,-1
 70 515 l 1,8,-1
 72 528 l 2,9,10
 84 597 84 597 113.5 632.5 c 128,-1,11
 143 668 143 668 201 668 c 0,12,13
 232 668 232 668 315 641 c 1,14,-1
 321 673 l 1,15,-1
 457 673 l 1,0,-1
EndSplineSet
EndChar

StartChar: exclamdown
Encoding: 161 161 99
Width: 337
GlyphClass: 2
Flags: W
LayerCount: 2
Fore
SplineSet
265 315 m 1,0,-1
 197 -140 l 1,1,-1
 -8 -140 l 1,2,-1
 88 315 l 1,3,-1
 265 315 l 1,0,-1
282 486 m 128,-1,5
 301 466 301 466 293.5 424 c 128,-1,6
 286 382 286 382 260.5 362 c 128,-1,7
 235 342 235 342 178.5 342 c 128,-1,8
 122 342 122 342 104 362 c 128,-1,9
 86 382 86 382 93.5 424 c 128,-1,10
 101 466 101 466 126.5 486 c 128,-1,11
 152 506 152 506 207.5 506 c 128,-1,4
 263 506 263 506 282 486 c 128,-1,5
EndSplineSet
EndChar

StartChar: cent
Encoding: 162 162 100
Width: 425
GlyphClass: 2
Flags: W
LayerCount: 2
Fore
SplineSet
254.5 317.5 m 128,-1,1
 241 293 241 293 232 241.5 c 128,-1,2
 223 190 223 190 227.5 167 c 128,-1,3
 232 144 232 144 262.5 144 c 128,-1,4
 293 144 293 144 363 158 c 1,5,-1
 359 15 l 1,6,7
 315 3 315 3 269 -5 c 1,8,-1
 255 -84 l 1,9,-1
 84 -84 l 1,10,-1
 100 9 l 1,11,12
 -14 62 -14 62 18 237 c 0,13,14
 33 322 33 322 75.5 386 c 128,-1,15
 118 450 118 450 183 479 c 1,16,-1
 202 586 l 1,17,-1
 373 586 l 1,18,-1
 358 499 l 1,19,20
 401 494 401 494 449 475 c 1,21,-1
 399 313 l 1,22,23
 324 342 324 342 296 342 c 128,-1,0
 268 342 268 342 254.5 317.5 c 128,-1,1
EndSplineSet
EndChar

StartChar: sterling
Encoding: 163 163 101
Width: 615
GlyphClass: 2
Flags: W
LayerCount: 2
Fore
SplineSet
390 646 m 0,0,1
 471 646 471 646 589 615 c 1,2,-1
 529 439 l 1,3,4
 423 467 423 467 414.5 467 c 128,-1,5
 406 467 406 467 404.5 459 c 128,-1,6
 403 451 403 451 411 393 c 1,7,-1
 519 393 l 1,8,-1
 486 279 l 1,9,-1
 407 279 l 1,10,-1
 397 225 l 2,11,12
 386 165 386 165 361 127 c 1,13,14
 394 114 394 114 396 113 c 1,15,-1
 410 189 l 1,16,-1
 593 189 l 1,17,18
 573 73 573 73 526 18 c 128,-1,19
 479 -37 479 -37 383 -37 c 0,20,21
 334 -37 334 -37 302.5 -28 c 128,-1,22
 271 -19 271 -19 230 2 c 1,23,-1
 226 2 l 1,24,25
 166 -23 166 -23 99 -23 c 128,-1,26
 32 -23 32 -23 -6 10 c 128,-1,27
 -44 43 -44 43 -32.5 108.5 c 128,-1,28
 -21 174 -21 174 20 206.5 c 128,-1,29
 61 239 61 239 122 239 c 0,30,31
 150 239 150 239 184 230 c 1,32,-1
 193 279 l 1,33,-1
 92 279 l 1,34,-1
 112 393 l 1,35,-1
 179 393 l 1,36,37
 163 444 163 444 171 494 c 0,38,39
 199 646 199 646 390 646 c 0,0,1
160 96 m 1,40,41
 145 119 145 119 127 119 c 128,-1,42
 109 119 109 119 106 100 c 128,-1,43
 103 81 103 81 123.5 81 c 128,-1,44
 144 81 144 81 160 96 c 1,40,41
EndSplineSet
EndChar

StartChar: currency
Encoding: 164 164 102
Width: 797
GlyphClass: 2
Flags: W
LayerCount: 2
Fore
SplineSet
44 78 m 1,0,-1
 22 129 l 1,1,-1
 162 203 l 1,2,3
 155 258 155 258 164 308 c 128,-1,4
 173 358 173 358 193 404 c 1,5,-1
 78 479 l 1,6,-1
 120 534 l 1,7,-1
 230 463 l 1,8,9
 317 555 317 555 445 555 c 128,-1,10
 573 555 573 555 628 465 c 1,11,-1
 757 534 l 1,12,-1
 778 479 l 1,13,-1
 646 410 l 1,14,15
 651 364 651 364 642 312.5 c 128,-1,16
 633 261 633 261 602 202 c 1,17,-1
 711 129 l 1,18,-1
 670 77 l 1,19,-1
 560 150 l 1,20,21
 476 74 476 74 357.5 74 c 128,-1,22
 239 74 239 74 182 152 c 1,23,24
 134 127 134 127 44 78 c 1,0,-1
367 125 m 0,25,26
 545 125 545 125 579 313 c 0,27,28
 595 403 595 403 558.5 452.5 c 128,-1,29
 522 502 522 502 433 502 c 0,30,31
 257 502 257 502 224 312 c 0,32,33
 208 219 208 219 245.5 172 c 128,-1,34
 283 125 283 125 367 125 c 0,25,26
EndSplineSet
EndChar

StartChar: yen
Encoding: 165 165 103
Width: 548
GlyphClass: 2
Flags: W
LayerCount: 2
Fore
SplineSet
605 636 m 1,0,-1
 433 332 l 1,1,-1
 492 332 l 1,2,-1
 473 220 l 1,3,-1
 370 220 l 1,4,-1
 360 201 l 1,5,-1
 469 201 l 1,6,-1
 450 91 l 1,7,-1
 341 91 l 1,8,-1
 325 0 l 1,9,-1
 107 0 l 1,10,-1
 123 91 l 1,11,-1
 11 91 l 1,12,-1
 30 201 l 1,13,-1
 142 201 l 1,14,-1
 140 220 l 1,15,-1
 34 220 l 1,16,-1
 53 332 l 1,17,-1
 116 332 l 1,18,-1
 56 636 l 1,19,-1
 286 636 l 1,20,-1
 290 402 l 1,21,-1
 297 402 l 1,22,-1
 381 636 l 1,23,-1
 605 636 l 1,0,-1
EndSplineSet
EndChar

StartChar: brokenbar
Encoding: 166 166 104
Width: 386
GlyphClass: 2
Flags: W
LayerCount: 2
Fore
SplineSet
226 -145 m 1,0,-1
 24 -145 l 1,1,-1
 81 181 l 1,2,-1
 283 181 l 1,3,-1
 226 -145 l 1,0,-1
362 631 m 1,4,-1
 310 333 l 1,5,-1
 108 333 l 1,6,-1
 160 631 l 1,7,-1
 362 631 l 1,4,-1
EndSplineSet
EndChar

StartChar: section
Encoding: 167 167 105
Width: 506
GlyphClass: 2
Flags: W
LayerCount: 2
Fore
SplineSet
203 321 m 1,0,1
 197 285 197 285 217.5 265 c 128,-1,2
 238 245 238 245 308 205 c 1,3,4
 314 238 314 238 292.5 260 c 128,-1,5
 271 282 271 282 203 321 c 1,0,1
478 254 m 0,6,7
 463 169 463 169 400 101 c 1,8,9
 406 74 406 74 399 33 c 0,10,11
 384 -54 384 -54 323 -102.5 c 128,-1,12
 262 -151 262 -151 160 -151 c 0,13,14
 84 -151 84 -151 -22 -131 c 1,15,-1
 23 41 l 1,16,17
 137 13 137 13 189 13 c 0,18,19
 206 13 206 13 210 34 c 128,-1,20
 214 55 214 55 162.5 80.5 c 128,-1,21
 111 106 111 106 68 150 c 0,22,23
 47 170 47 170 36.5 204 c 128,-1,24
 26 238 26 238 34 279 c 0,25,26
 48 359 48 359 111 417 c 1,27,28
 102 446 102 446 108 477 c 0,29,30
 123 563 123 563 189.5 609.5 c 128,-1,31
 256 656 256 656 351 656 c 0,32,33
 422 656 422 656 518 640 c 1,34,-1
 460 473 l 1,35,36
 366 492 366 492 321 493 c 0,37,38
 308 493 308 493 305 480 c 0,39,40
 302 464 302 464 353.5 442.5 c 128,-1,41
 405 421 405 421 446 381 c 0,42,43
 466 361 466 361 475.5 328 c 128,-1,44
 485 295 485 295 478 254 c 0,6,7
EndSplineSet
EndChar

StartChar: dieresis
Encoding: 168 168 106
Width: 512
GlyphClass: 2
Flags: W
LayerCount: 2
Fore
SplineSet
84 590 m 0,0,1
 90 623 90 623 113.5 639.5 c 128,-1,2
 137 656 137 656 173 656 c 0,3,4
 255 656 255 656 243 590 c 0,5,6
 237 555 237 555 214 538.5 c 128,-1,7
 191 522 191 522 149 522 c 0,8,9
 72 522 72 522 84 590 c 0,0,1
274 590 m 0,10,11
 280 623 280 623 303.5 639.5 c 128,-1,12
 327 656 327 656 363 656 c 0,13,14
 445 656 445 656 433 590 c 0,15,16
 427 555 427 555 404 538.5 c 128,-1,17
 381 522 381 522 339 522 c 0,18,19
 262 522 262 522 274 590 c 0,10,11
EndSplineSet
EndChar

StartChar: copyright
Encoding: 169 169 107
Width: 1002
GlyphClass: 2
Flags: W
LayerCount: 2
Fore
SplineSet
481 144.5 m 128,-1,1
 490 119 490 119 525 119 c 128,-1,2
 560 119 560 119 626 134 c 1,3,-1
 625 14 l 1,4,5
 542 -11 542 -11 471 -10 c 0,6,7
 270 -10 270 -10 312 228 c 0,8,9
 333 348 333 348 394.5 411.5 c 128,-1,10
 456 475 456 475 568 475 c 0,11,12
 638 475 638 475 702 449 c 1,13,-1
 657 314 l 1,14,15
 590 333 590 333 558.5 333.5 c 128,-1,16
 527 334 527 334 509.5 309 c 128,-1,17
 492 284 492 284 482 227 c 128,-1,0
 472 170 472 170 481 144.5 c 128,-1,1
762 452.5 m 128,-1,19
 714 514 714 514 566.5 514 c 128,-1,20
 419 514 419 514 344.5 450 c 128,-1,21
 270 386 270 386 244 237.5 c 128,-1,22
 218 89 218 89 267 25 c 128,-1,23
 316 -39 316 -39 465.5 -39 c 128,-1,24
 615 -39 615 -39 686 24 c 128,-1,25
 757 87 757 87 783.5 239 c 128,-1,18
 810 391 810 391 762 452.5 c 128,-1,19
220.5 559.5 m 128,-1,27
 355 668 355 668 586 668 c 128,-1,28
 817 668 817 668 913.5 556.5 c 128,-1,29
 1010 445 1010 445 973 236 c 128,-1,30
 936 27 936 27 803 -79 c 128,-1,31
 670 -185 670 -185 432.5 -185 c 128,-1,32
 195 -185 195 -185 103 -79 c 128,-1,33
 11 27 11 27 48.5 239 c 128,-1,26
 86 451 86 451 220.5 559.5 c 128,-1,27
EndSplineSet
EndChar

StartChar: ordfeminine
Encoding: 170 170 108
Width: 425
GlyphClass: 2
Flags: W
LayerCount: 2
Fore
SplineSet
373 553 m 2,0,-1
 344 410 l 2,1,2
 341 394 341 394 375 393 c 1,3,-1
 345 298 l 1,4,5
 312 295 312 295 285 295 c 0,6,7
 234 295 234 295 215 323 c 1,8,-1
 210 323 l 1,9,10
 170 295 170 295 118.5 295 c 128,-1,11
 67 295 67 295 45 322.5 c 128,-1,12
 23 350 23 350 32.5 404.5 c 128,-1,13
 42 459 42 459 87 482.5 c 128,-1,14
 132 506 132 506 221 513 c 1,15,-1
 223 525 l 2,16,17
 225 538 225 538 212 539 c 0,18,19
 176 539 176 539 82 516 c 1,20,-1
 79 630 l 1,21,22
 186 655 186 655 260.5 654.5 c 128,-1,23
 335 654 335 654 358.5 629.5 c 128,-1,24
 382 605 382 605 373 553 c 2,0,-1
183 387 m 0,25,26
 203 387 203 387 206 409 c 2,27,-1
 211 436 l 1,28,29
 173 430 173 430 170 408.5 c 128,-1,30
 167 387 167 387 183 387 c 0,25,26
EndSplineSet
EndChar

StartChar: guillemotleft
Encoding: 171 171 109
Width: 599
GlyphClass: 2
Flags: W
LayerCount: 2
Fore
SplineSet
-2 210 m 1,0,-1
 10 278 l 1,1,-1
 257 494 l 1,2,-1
 355 423 l 1,3,-1
 205 248 l 1,4,-1
 296 73 l 1,5,-1
 163 -1 l 1,6,-1
 -2 210 l 1,0,-1
250 210 m 1,7,-1
 262 278 l 1,8,-1
 509 494 l 1,9,-1
 606 423 l 1,10,-1
 457 248 l 1,11,-1
 548 73 l 1,12,-1
 415 -1 l 1,13,-1
 250 210 l 1,7,-1
EndSplineSet
EndChar

StartChar: logicalnot
Encoding: 172 172 110
Width: 499
GlyphClass: 2
Flags: W
LayerCount: 2
Fore
SplineSet
247 106 m 1,0,-1
 266 214 l 1,1,-1
 28 214 l 1,2,-1
 57 380 l 1,3,-1
 479 380 l 1,4,-1
 431 106 l 1,5,-1
 247 106 l 1,0,-1
EndSplineSet
EndChar

StartChar: registered
Encoding: 174 174 111
Width: 1022
GlyphClass: 2
Flags: W
LayerCount: 2
Fore
SplineSet
220.5 559.5 m 128,-1,1
 355 668 355 668 586 668 c 128,-1,2
 817 668 817 668 913.5 556.5 c 128,-1,3
 1010 445 1010 445 973 236 c 128,-1,4
 936 27 936 27 803 -79 c 128,-1,5
 670 -185 670 -185 432.5 -185 c 128,-1,6
 195 -185 195 -185 103 -79 c 128,-1,7
 11 27 11 27 48.5 239 c 128,-1,0
 86 451 86 451 220.5 559.5 c 128,-1,1
727 319 m 0,8,9
 719 273 719 273 701.5 246 c 128,-1,10
 684 219 684 219 652 200 c 1,11,-1
 680 19 l 1,12,13
 761 81 761 81 787.5 235 c 128,-1,14
 814 389 814 389 761 451.5 c 128,-1,15
 708 514 708 514 560 514 c 128,-1,16
 412 514 412 514 332.5 449 c 128,-1,17
 253 384 253 384 227 237.5 c 128,-1,18
 201 91 201 91 255.5 26 c 128,-1,19
 310 -39 310 -39 445 -39 c 128,-1,20
 580 -39 580 -39 653 2 c 1,21,-1
 508 2 l 1,22,-1
 493 164 l 1,23,-1
 478 164 l 1,24,-1
 450 2 l 1,25,-1
 294 2 l 1,26,-1
 376 471 l 1,27,-1
 582 471 l 2,28,29
 669 471 669 471 705 434 c 128,-1,30
 741 397 741 397 727 319 c 0,8,9
556 303 m 0,31,32
 564 347 564 347 532 347 c 2,33,-1
 507 347 l 1,34,-1
 490 255 l 1,35,-1
 515 255 l 2,36,37
 531 255 531 255 541 265 c 128,-1,38
 551 275 551 275 556 303 c 0,31,32
EndSplineSet
EndChar

StartChar: macron
Encoding: 175 175 112
Width: 512
GlyphClass: 2
Flags: W
LayerCount: 2
Fore
SplineSet
412 534 m 1,0,-1
 89 534 l 1,1,-1
 111 657 l 1,2,-1
 434 657 l 1,3,-1
 412 534 l 1,0,-1
EndSplineSet
EndChar

StartChar: degree
Encoding: 176 176 113
Width: 352
GlyphClass: 2
Flags: W
LayerCount: 2
Fore
SplineSet
299.5 609.5 m 128,-1,1
 327 578 327 578 315 509.5 c 128,-1,2
 303 441 303 441 264.5 410 c 128,-1,3
 226 379 226 379 150.5 379 c 128,-1,4
 75 379 75 379 47.5 410 c 128,-1,5
 20 441 20 441 31.5 508 c 128,-1,6
 43 575 43 575 82.5 608 c 128,-1,7
 122 641 122 641 197 641 c 128,-1,0
 272 641 272 641 299.5 609.5 c 128,-1,1
193 509 m 0,8,9
 196 525 196 525 192 531.5 c 128,-1,10
 188 538 188 538 177 538 c 0,11,12
 157 538 157 538 152 508.5 c 128,-1,13
 147 479 147 479 167.5 479 c 128,-1,14
 188 479 188 479 193 509 c 0,8,9
EndSplineSet
EndChar

StartChar: plusminus
Encoding: 177 177 114
Width: 487
GlyphClass: 2
Flags: W
LayerCount: 2
Fore
SplineSet
144 185 m 1,0,-1
 161 283 l 1,1,-1
 33 283 l 1,2,-1
 62 449 l 1,3,-1
 190 449 l 1,4,-1
 211 568 l 1,5,-1
 377 568 l 1,6,-1
 356 449 l 1,7,-1
 484 449 l 1,8,-1
 455 283 l 1,9,-1
 327 283 l 1,10,-1
 310 185 l 1,11,-1
 144 185 l 1,0,-1
405 0 m 1,12,-1
 -17 0 l 1,13,-1
 10 156 l 1,14,-1
 432 156 l 1,15,-1
 405 0 l 1,12,-1
EndSplineSet
EndChar

StartChar: twosuperior
Encoding: 178 178 115
Width: 405
GlyphClass: 2
Flags: W
LayerCount: 2
Fore
SplineSet
72 613 m 1,0,1
 161 646 161 646 241 646 c 128,-1,2
 321 646 321 646 353.5 610 c 128,-1,3
 386 574 386 574 375 512 c 128,-1,4
 364 450 364 450 332.5 407.5 c 128,-1,5
 301 365 301 365 236 307 c 1,6,-1
 236 304 l 1,7,-1
 340 304 l 1,8,-1
 320 194 l 1,9,-1
 15 194 l 1,10,-1
 22 271 l 1,11,12
 54 298 54 298 73 313.5 c 128,-1,13
 92 329 92 329 109.5 344 c 128,-1,14
 127 359 127 359 136 368 c 128,-1,15
 145 377 145 377 159 390 c 0,16,17
 207 437 207 437 213.5 473 c 128,-1,18
 220 509 220 509 186 509 c 0,19,20
 157 509 157 509 73 488 c 1,21,-1
 72 613 l 1,0,1
EndSplineSet
EndChar

StartChar: threesuperior
Encoding: 179 179 116
Width: 414
GlyphClass: 2
Flags: W
LayerCount: 2
Fore
SplineSet
82 609 m 1,0,1
 166 646 166 646 245.5 646 c 128,-1,2
 325 646 325 646 360.5 613 c 128,-1,3
 396 580 396 580 385 520 c 0,4,5
 379 487 379 487 363 466 c 128,-1,6
 347 445 347 445 315 429 c 1,7,-1
 315 426 l 1,8,9
 369 399 369 399 358 329 c 0,10,11
 333 187 333 187 163 186 c 0,12,13
 95 186 95 186 23 216 c 1,14,-1
 73 327 l 1,15,16
 149 303 149 303 167 303 c 0,17,18
 196 303 196 303 201.5 334.5 c 128,-1,19
 207 366 207 366 173 366 c 2,20,-1
 111 366 l 1,21,-1
 129 466 l 1,22,-1
 191 466 l 2,23,24
 215 466 215 466 220 494.5 c 128,-1,25
 225 523 225 523 196 523 c 0,26,27
 179 523 179 523 94 497 c 1,28,-1
 82 609 l 1,0,1
EndSplineSet
EndChar

StartChar: acute
Encoding: 180 180 117
Width: 512
GlyphClass: 2
Flags: W
LayerCount: 2
Fore
SplineSet
474 663 m 1,0,-1
 307 529 l 1,1,-1
 165 529 l 1,2,-1
 255 663 l 1,3,-1
 474 663 l 1,0,-1
EndSplineSet
EndChar

StartChar: mu
Encoding: 181 181 118
AltUni2: 0003bc.ffffffff.0 0003bc.ffffffff.0
Width: 572
GlyphClass: 2
Flags: W
LayerCount: 2
Fore
SplineSet
-23 -140 m 1,0,-1
 89 490 l 1,1,-1
 304 490 l 1,2,-1
 248 177 l 2,3,4
 244 152 244 152 271 152.5 c 128,-1,5
 298 153 298 153 302 177 c 2,6,-1
 358 490 l 1,7,-1
 572 490 l 1,8,-1
 512 154 l 2,9,10
 510 141 510 141 519 135.5 c 128,-1,11
 528 130 528 130 552 130 c 1,12,-1
 510 -6 l 1,13,14
 456 -10 456 -10 421 -10 c 0,15,16
 339 -10 339 -10 305 32 c 1,17,-1
 301 32 l 1,18,19
 264 -10 264 -10 208 -10 c 1,20,-1
 185 -140 l 1,21,-1
 -23 -140 l 1,0,-1
EndSplineSet
EndChar

StartChar: paragraph
Encoding: 182 182 119
Width: 672
GlyphClass: 2
Flags: W
LayerCount: 2
Fore
SplineSet
529 -140 m 1,0,-1
 357 -140 l 1,1,-1
 468 489 l 1,2,-1
 443 489 l 1,3,-1
 332 -140 l 1,4,-1
 159 -140 l 1,5,-1
 217 191 l 1,6,7
 119 194 119 194 72.5 251 c 128,-1,8
 26 308 26 308 45 415 c 128,-1,9
 64 522 64 522 144.5 583 c 128,-1,10
 225 644 225 644 348 644 c 2,11,-1
 667 644 l 1,12,-1
 529 -140 l 1,0,-1
EndSplineSet
EndChar

StartChar: periodcentered
Encoding: 183 183 120
Width: 403
GlyphClass: 2
Flags: W
LayerCount: 2
Fore
SplineSet
86 312 m 0,0,1
 102 405 102 405 222 406 c 0,2,3
 283 406 283 406 308.5 383.5 c 128,-1,4
 334 361 334 361 325 311 c 128,-1,5
 316 261 316 261 284 240 c 128,-1,6
 252 219 252 219 190 219 c 128,-1,7
 128 219 128 219 102.5 240.5 c 128,-1,8
 77 262 77 262 86 312 c 0,0,1
EndSplineSet
EndChar

StartChar: cedilla
Encoding: 184 184 121
Width: 512
GlyphClass: 2
Flags: W
LayerCount: 2
Fore
SplineSet
385 -96 m 0,0,1
 372 -172 372 -172 260 -172 c 0,2,3
 193 -172 193 -172 154 -141 c 1,4,-1
 205 -69 l 1,5,6
 246 -101 246 -101 271 -100 c 0,7,8
 278 -100 278 -100 280 -94 c 0,9,10
 281 -90 281 -90 268 -83 c 2,11,-1
 244 -71 l 2,12,13
 222 -58 222 -58 225.5 -37.5 c 128,-1,14
 229 -17 229 -17 255 0 c 1,15,-1
 346 0 l 1,16,17
 328 -15 328 -15 326 -22 c 0,18,19
 325 -25 325 -25 342 -32 c 128,-1,20
 359 -39 359 -39 374.5 -54.5 c 128,-1,21
 390 -70 390 -70 385 -96 c 0,0,1
EndSplineSet
EndChar

StartChar: onesuperior
Encoding: 185 185 122
Width: 313
GlyphClass: 2
Flags: W
LayerCount: 2
Fore
SplineSet
205 190 m 1,0,-1
 56 190 l 1,1,-1
 113 514 l 1,2,-1
 63 514 l 1,3,-1
 77 595 l 1,4,-1
 163 636 l 1,5,-1
 283 636 l 1,6,-1
 205 190 l 1,0,-1
EndSplineSet
EndChar

StartChar: ordmasculine
Encoding: 186 186 123
Width: 434
GlyphClass: 2
Flags: W
LayerCount: 2
Fore
SplineSet
110.5 611.5 m 128,-1,1
 160 654 160 654 249.5 654 c 128,-1,2
 339 654 339 654 372 612.5 c 128,-1,3
 405 571 405 571 388.5 476.5 c 128,-1,4
 372 382 372 382 324 338.5 c 128,-1,5
 276 295 276 295 186 295 c 128,-1,6
 96 295 96 295 62 338 c 128,-1,7
 28 381 28 381 44.5 475 c 128,-1,0
 61 569 61 569 110.5 611.5 c 128,-1,1
247.5 536 m 128,-1,9
 245 549 245 549 230.5 549 c 128,-1,10
 216 549 216 549 210 536 c 128,-1,11
 204 523 204 523 196 482 c 2,12,-1
 194 466 l 2,13,14
 186 420 186 420 187.5 406.5 c 128,-1,15
 189 393 189 393 203.5 393 c 128,-1,16
 218 393 218 393 224.5 406.5 c 128,-1,17
 231 420 231 420 239 462 c 2,18,-1
 242 482 l 2,19,8
 250 523 250 523 247.5 536 c 128,-1,9
EndSplineSet
EndChar

StartChar: guillemotright
Encoding: 187 187 124
Width: 599
GlyphClass: 2
Flags: W
LayerCount: 2
Fore
SplineSet
601 283 m 1,0,-1
 589 215 l 1,1,-1
 342 -1 l 1,2,-1
 244 70 l 1,3,-1
 394 245 l 1,4,-1
 303 420 l 1,5,-1
 436 494 l 1,6,-1
 601 283 l 1,0,-1
349 283 m 1,7,-1
 337 215 l 1,8,-1
 90 -1 l 1,9,-1
 -7 70 l 1,10,-1
 142 245 l 1,11,-1
 51 420 l 1,12,-1
 184 494 l 1,13,-1
 349 283 l 1,7,-1
EndSplineSet
EndChar

StartChar: onequarter
Encoding: 188 188 125
Width: 941
GlyphClass: 2
Flags: W
LayerCount: 2
Fore
SplineSet
644 636 m 1,0,-1
 328 0 l 1,1,-1
 177 0 l 1,2,-1
 492 636 l 1,3,-1
 644 636 l 1,0,-1
221 190 m 1,4,-1
 72 190 l 1,5,-1
 130 514 l 1,6,-1
 80 514 l 1,7,-1
 94 595 l 1,8,-1
 180 636 l 1,9,-1
 300 636 l 1,10,-1
 221 190 l 1,4,-1
851 84 m 1,11,-1
 803 84 l 1,12,-1
 788 0 l 1,13,-1
 639 0 l 1,14,-1
 654 84 l 1,15,-1
 481 84 l 1,16,-1
 485 172 l 1,17,-1
 689 441 l 1,18,-1
 866 441 l 1,19,-1
 821 188 l 1,20,-1
 875 188 l 1,21,-1
 851 84 l 1,11,-1
676 185 m 1,22,-1
 692 279 l 1,23,-1
 689 279 l 1,24,-1
 623 185 l 1,25,-1
 676 185 l 1,22,-1
EndSplineSet
EndChar

StartChar: onehalf
Encoding: 189 189 126
Width: 917
GlyphClass: 2
Flags: W
LayerCount: 2
Fore
SplineSet
644 636 m 1,0,-1
 328 0 l 1,1,-1
 177 0 l 1,2,-1
 492 636 l 1,3,-1
 644 636 l 1,0,-1
221 190 m 1,4,-1
 72 190 l 1,5,-1
 130 514 l 1,6,-1
 80 514 l 1,7,-1
 94 595 l 1,8,-1
 180 636 l 1,9,-1
 300 636 l 1,10,-1
 221 190 l 1,4,-1
568 420 m 1,11,12
 657 453 657 453 737 453 c 128,-1,13
 817 453 817 453 849.5 417 c 128,-1,14
 882 381 882 381 871 318.5 c 128,-1,15
 860 256 860 256 828.5 213.5 c 128,-1,16
 797 171 797 171 732 114 c 1,17,-1
 732 111 l 1,18,-1
 836 111 l 1,19,-1
 816 0 l 1,20,-1
 511 0 l 1,21,-1
 518 78 l 1,22,23
 550 105 550 105 569 120 c 128,-1,24
 588 135 588 135 605.5 150.5 c 128,-1,25
 623 166 623 166 632 174.5 c 128,-1,26
 641 183 641 183 655 197 c 0,27,28
 703 244 703 244 709 279.5 c 128,-1,29
 715 315 715 315 681 315 c 0,30,31
 652 315 652 315 569 295 c 1,32,-1
 568 420 l 1,11,12
EndSplineSet
EndChar

StartChar: threequarters
Encoding: 190 190 127
Width: 1004
GlyphClass: 2
Flags: W
LayerCount: 2
Fore
SplineSet
720 636 m 1,0,-1
 404 0 l 1,1,-1
 253 0 l 1,2,-1
 568 636 l 1,3,-1
 720 636 l 1,0,-1
98 609 m 1,4,5
 182 646 182 646 261.5 646 c 128,-1,6
 341 646 341 646 376.5 613 c 128,-1,7
 412 580 412 580 402 520 c 0,8,9
 396 487 396 487 380 466 c 128,-1,10
 364 445 364 445 332 429 c 1,11,-1
 331 426 l 1,12,13
 385 399 385 399 374 329 c 0,14,15
 349 187 349 187 180 186 c 0,16,17
 112 186 112 186 39 216 c 1,18,-1
 90 327 l 1,19,20
 166 303 166 303 183 303 c 0,21,22
 212 303 212 303 218 334.5 c 128,-1,23
 224 366 224 366 190 366 c 2,24,-1
 128 366 l 1,25,-1
 145 466 l 1,26,-1
 207 466 l 2,27,28
 231 466 231 466 236 494.5 c 128,-1,29
 241 523 241 523 212 523 c 0,30,31
 195 523 195 523 111 497 c 1,32,-1
 98 609 l 1,4,5
913 84 m 1,33,-1
 865 84 l 1,34,-1
 850 0 l 1,35,-1
 702 0 l 1,36,-1
 717 84 l 1,37,-1
 544 84 l 1,38,-1
 547 172 l 1,39,-1
 751 441 l 1,40,-1
 928 441 l 1,41,-1
 883 188 l 1,42,-1
 938 188 l 1,43,-1
 913 84 l 1,33,-1
739 185 m 1,44,-1
 755 279 l 1,45,-1
 752 279 l 1,46,-1
 686 185 l 1,47,-1
 739 185 l 1,44,-1
EndSplineSet
EndChar

StartChar: questiondown
Encoding: 191 191 128
Width: 404
GlyphClass: 2
Flags: W
LayerCount: 2
Fore
SplineSet
-13 36 m 0,0,1
 2 121 2 121 51 166 c 0,2,3
 78 191 78 191 103.5 206 c 128,-1,4
 129 221 129 221 169 241 c 1,5,-1
 181 310 l 1,6,-1
 352 310 l 1,7,-1
 332 197 l 2,8,9
 326 164 326 164 308.5 143.5 c 128,-1,10
 291 123 291 123 257 109 c 128,-1,11
 223 95 223 95 209 85 c 128,-1,12
 195 75 195 75 192 57 c 0,13,14
 187 27 187 27 222 28 c 0,15,16
 242 28 242 28 358 49 c 1,17,-1
 326 -129 l 1,18,19
 226 -151 226 -151 151 -151 c 0,20,21
 -46 -150 -46 -150 -13 36 c 0,0,1
373 481 m 128,-1,23
 392 461 392 461 385 419 c 128,-1,24
 378 377 378 377 352.5 357 c 128,-1,25
 327 337 327 337 270.5 337 c 128,-1,26
 214 337 214 337 196 357 c 128,-1,27
 178 377 178 377 185 419 c 128,-1,28
 192 461 192 461 217.5 481 c 128,-1,29
 243 501 243 501 298.5 501 c 128,-1,22
 354 501 354 501 373 481 c 128,-1,23
EndSplineSet
EndChar

StartChar: Agrave
Encoding: 192 192 129
Width: 576
GlyphClass: 2
Flags: W
LayerCount: 2
Fore
SplineSet
507 0 m 1,0,-1
 291 0 l 1,1,-1
 288 98 l 1,2,-1
 174 98 l 1,3,-1
 136 0 l 1,4,-1
 -70 0 l 1,5,-1
 174 636 l 1,6,-1
 486 636 l 1,7,-1
 507 0 l 1,0,-1
297 230 m 1,8,-1
 295 443 l 1,9,-1
 291 443 l 1,10,-1
 214 230 l 1,11,-1
 297 230 l 1,8,-1
294 667 m 1,12,-1
 192 794 l 1,13,-1
 387 794 l 1,14,-1
 432 667 l 1,15,-1
 294 667 l 1,12,-1
EndSplineSet
EndChar

StartChar: Aacute
Encoding: 193 193 130
Width: 576
GlyphClass: 2
Flags: W
LayerCount: 2
Fore
SplineSet
506 0 m 1,0,-1
 290 0 l 1,1,-1
 287 98 l 1,2,-1
 173 98 l 1,3,-1
 135 0 l 1,4,-1
 -71 0 l 1,5,-1
 173 636 l 1,6,-1
 485 636 l 1,7,-1
 506 0 l 1,0,-1
296 230 m 1,8,-1
 294 443 l 1,9,-1
 290 443 l 1,10,-1
 213 230 l 1,11,-1
 296 230 l 1,8,-1
531 804 m 1,12,-1
 373 677 l 1,13,-1
 237 677 l 1,14,-1
 323 804 l 1,15,-1
 531 804 l 1,12,-1
EndSplineSet
EndChar

StartChar: Acircumflex
Encoding: 194 194 131
Width: 576
GlyphClass: 2
Flags: W
LayerCount: 2
Fore
SplineSet
507 0 m 1,0,-1
 291 0 l 1,1,-1
 288 98 l 1,2,-1
 174 98 l 1,3,-1
 136 0 l 1,4,-1
 -70 0 l 1,5,-1
 174 636 l 1,6,-1
 486 636 l 1,7,-1
 507 0 l 1,0,-1
296 230 m 1,8,-1
 295 443 l 1,9,-1
 291 443 l 1,10,-1
 213 230 l 1,11,-1
 296 230 l 1,8,-1
442 799 m 1,12,-1
 495 671 l 1,13,-1
 369 671 l 1,14,-1
 343 722 l 1,15,-1
 299 671 l 1,16,-1
 171 671 l 1,17,-1
 269 799 l 1,18,-1
 442 799 l 1,12,-1
EndSplineSet
EndChar

StartChar: Atilde
Encoding: 195 195 132
Width: 576
GlyphClass: 2
Flags: W
LayerCount: 2
Fore
SplineSet
506 0 m 1,0,-1
 290 0 l 1,1,-1
 287 98 l 1,2,-1
 173 98 l 1,3,-1
 135 0 l 1,4,-1
 -71 0 l 1,5,-1
 173 636 l 1,6,-1
 485 636 l 1,7,-1
 506 0 l 1,0,-1
296 230 m 1,8,-1
 294 443 l 1,9,-1
 290 443 l 1,10,-1
 213 230 l 1,11,-1
 296 230 l 1,8,-1
525 803 m 1,12,-1
 523 792 l 2,13,14
 512 727 512 727 485 693 c 128,-1,15
 458 659 458 659 395 659 c 0,16,17
 360 659 360 659 292 684 c 1,18,-1
 286 653 l 1,19,-1
 157 653 l 1,20,-1
 160 666 l 2,21,22
 172 732 172 732 199.5 765 c 128,-1,23
 227 798 227 798 282 798 c 0,24,25
 311 798 311 798 391 773 c 1,26,-1
 396 803 l 1,27,-1
 525 803 l 1,12,-1
EndSplineSet
EndChar

StartChar: Adieresis
Encoding: 196 196 133
Width: 576
GlyphClass: 2
Flags: W
LayerCount: 2
Fore
SplineSet
508 0 m 1,0,-1
 292 0 l 1,1,-1
 289 98 l 1,2,-1
 175 98 l 1,3,-1
 137 0 l 1,4,-1
 -69 0 l 1,5,-1
 175 636 l 1,6,-1
 487 636 l 1,7,-1
 508 0 l 1,0,-1
297 230 m 1,8,-1
 296 443 l 1,9,-1
 292 443 l 1,10,-1
 214 230 l 1,11,-1
 297 230 l 1,8,-1
178 723 m 128,-1,13
 189 787 189 787 264 787 c 128,-1,14
 339 787 339 787 328 723 c 128,-1,15
 317 659 317 659 242 659 c 128,-1,12
 167 659 167 659 178 723 c 128,-1,13
359 723 m 128,-1,17
 370 787 370 787 445.5 787 c 128,-1,18
 521 787 521 787 510 723 c 128,-1,19
 499 659 499 659 423.5 659 c 128,-1,16
 348 659 348 659 359 723 c 128,-1,17
EndSplineSet
EndChar

StartChar: Aring
Encoding: 197 197 134
Width: 576
GlyphClass: 2
Flags: W
LayerCount: 2
Fore
SplineSet
235 659 m 0,0,1
 249 741 249 741 349 741 c 128,-1,2
 449 741 449 741 436 665 c 0,3,4
 433 648 433 648 427 636 c 1,5,-1
 491 636 l 1,6,-1
 512 0 l 1,7,-1
 296 0 l 1,8,-1
 293 98 l 1,9,-1
 179 98 l 1,10,-1
 141 0 l 1,11,-1
 -65 0 l 1,12,-1
 179 636 l 1,13,-1
 234 636 l 1,14,15
 233 647 233 647 235 659 c 0,0,1
298 230 m 1,16,-1
 297 419 l 1,17,-1
 293 419 l 1,18,-1
 223 230 l 1,19,-1
 298 230 l 1,16,-1
339.5 688 m 128,-1,21
 320 688 320 688 315.5 662.5 c 128,-1,22
 311 637 311 637 327 636 c 2,23,-1
 334 636 l 2,24,25
 350 637 350 637 354.5 662.5 c 128,-1,20
 359 688 359 688 339.5 688 c 128,-1,21
EndSplineSet
EndChar

StartChar: AE
Encoding: 198 198 135
Width: 782
GlyphClass: 2
Flags: W
LayerCount: 2
Fore
SplineSet
701 0 m 1,0,-1
 295 0 l 1,1,-1
 312 98 l 1,2,-1
 203 98 l 1,3,-1
 152 0 l 1,4,-1
 -61 0 l 1,5,-1
 276 636 l 1,6,-1
 827 636 l 1,7,-1
 783 467 l 1,8,-1
 596 467 l 1,9,-1
 583 390 l 1,10,-1
 746 390 l 1,11,-1
 720 243 l 1,12,-1
 557 243 l 1,13,-1
 541 156 l 1,14,-1
 742 156 l 1,15,-1
 701 0 l 1,0,-1
335 230 m 1,16,-1
 373 443 l 1,17,-1
 369 443 l 1,18,-1
 263 230 l 1,19,-1
 335 230 l 1,16,-1
EndSplineSet
EndChar

StartChar: Ccedilla
Encoding: 199 199 136
Width: 481
GlyphClass: 2
Flags: W
LayerCount: 2
Fore
SplineSet
488 429 m 1,0,1
 392 459 392 459 354.5 459 c 128,-1,2
 317 459 317 459 293.5 423.5 c 128,-1,3
 270 388 270 388 256 310 c 128,-1,4
 242 232 242 232 253.5 197 c 128,-1,5
 265 162 265 162 305.5 162 c 128,-1,6
 346 162 346 162 446 184 c 1,7,-1
 449 22 l 1,8,9
 358 -5 358 -5 281 -9 c 1,10,11
 274 -15 274 -15 271 -22 c 0,12,13
 270 -25 270 -25 287 -32 c 128,-1,14
 304 -39 304 -39 319.5 -55 c 128,-1,15
 335 -71 335 -71 330 -96 c 0,16,17
 317 -172 317 -172 206 -172 c 0,18,19
 139 -172 139 -172 99 -141 c 1,20,-1
 150 -69 l 1,21,22
 191 -101 191 -101 216 -100 c 0,23,24
 223 -100 223 -100 225 -94 c 0,25,26
 226 -90 226 -90 213 -83 c 2,27,-1
 189 -71 l 2,28,29
 167 -58 167 -58 170.5 -38 c 128,-1,30
 174 -18 174 -18 190 -6 c 1,31,32
 82 10 82 10 46 90.5 c 128,-1,33
 10 171 10 171 37 323 c 128,-1,34
 64 475 64 475 146.5 560.5 c 128,-1,35
 229 646 229 646 381 646 c 0,36,37
 470 646 470 646 553 611 c 1,38,-1
 488 429 l 1,0,1
EndSplineSet
EndChar

StartChar: Egrave
Encoding: 200 200 137
Width: 472
GlyphClass: 2
Flags: W
LayerCount: 2
Fore
SplineSet
376 0 m 1,0,-1
 -29 0 l 1,1,-1
 83 636 l 1,2,-1
 503 636 l 1,3,-1
 458 467 l 1,4,-1
 272 467 l 1,5,-1
 259 390 l 1,6,-1
 422 390 l 1,7,-1
 396 243 l 1,8,-1
 233 243 l 1,9,-1
 218 156 l 1,10,-1
 419 156 l 1,11,-1
 376 0 l 1,0,-1
259 667 m 1,12,-1
 157 794 l 1,13,-1
 353 794 l 1,14,-1
 397 667 l 1,15,-1
 259 667 l 1,12,-1
EndSplineSet
EndChar

StartChar: Eacute
Encoding: 201 201 138
Width: 472
GlyphClass: 2
Flags: W
LayerCount: 2
Fore
SplineSet
376 0 m 1,0,-1
 -29 0 l 1,1,-1
 83 636 l 1,2,-1
 503 636 l 1,3,-1
 458 467 l 1,4,-1
 272 467 l 1,5,-1
 259 390 l 1,6,-1
 422 390 l 1,7,-1
 396 243 l 1,8,-1
 233 243 l 1,9,-1
 218 156 l 1,10,-1
 419 156 l 1,11,-1
 376 0 l 1,0,-1
505 794 m 1,12,-1
 348 667 l 1,13,-1
 213 667 l 1,14,-1
 297 794 l 1,15,-1
 505 794 l 1,12,-1
EndSplineSet
EndChar

StartChar: Ecircumflex
Encoding: 202 202 139
Width: 472
GlyphClass: 2
Flags: W
LayerCount: 2
Fore
SplineSet
377 0 m 1,0,-1
 -28 0 l 1,1,-1
 84 636 l 1,2,-1
 504 636 l 1,3,-1
 459 467 l 1,4,-1
 273 467 l 1,5,-1
 259 390 l 1,6,-1
 422 390 l 1,7,-1
 396 243 l 1,8,-1
 233 243 l 1,9,-1
 218 156 l 1,10,-1
 419 156 l 1,11,-1
 377 0 l 1,0,-1
409 788 m 1,12,-1
 463 660 l 1,13,-1
 336 660 l 1,14,-1
 310 712 l 1,15,-1
 266 660 l 1,16,-1
 138 660 l 1,17,-1
 236 788 l 1,18,-1
 409 788 l 1,12,-1
EndSplineSet
EndChar

StartChar: Edieresis
Encoding: 203 203 140
Width: 472
GlyphClass: 2
Flags: W
LayerCount: 2
Fore
SplineSet
377 0 m 1,0,-1
 -28 0 l 1,1,-1
 84 636 l 1,2,-1
 504 636 l 1,3,-1
 459 467 l 1,4,-1
 273 467 l 1,5,-1
 259 390 l 1,6,-1
 422 390 l 1,7,-1
 396 243 l 1,8,-1
 233 243 l 1,9,-1
 218 156 l 1,10,-1
 419 156 l 1,11,-1
 377 0 l 1,0,-1
144 723 m 128,-1,13
 155 787 155 787 230.5 787 c 128,-1,14
 306 787 306 787 295 723 c 128,-1,15
 284 659 284 659 208.5 659 c 128,-1,12
 133 659 133 659 144 723 c 128,-1,13
325 723 m 128,-1,17
 336 787 336 787 411.5 787 c 128,-1,18
 487 787 487 787 476 723 c 128,-1,19
 465 659 465 659 389.5 659 c 128,-1,16
 314 659 314 659 325 723 c 128,-1,17
EndSplineSet
EndChar

StartChar: Igrave
Encoding: 204 204 141
Width: 310
GlyphClass: 2
Flags: W
LayerCount: 2
Fore
SplineSet
192 0 m 1,0,-1
 -24 0 l 1,1,-1
 88 636 l 1,2,-1
 304 636 l 1,3,-1
 192 0 l 1,0,-1
164 677 m 1,4,-1
 63 804 l 1,5,-1
 258 804 l 1,6,-1
 302 677 l 1,7,-1
 164 677 l 1,4,-1
EndSplineSet
EndChar

StartChar: Iacute
Encoding: 205 205 142
Width: 310
GlyphClass: 2
Flags: W
LayerCount: 2
Fore
SplineSet
193 0 m 1,0,-1
 -23 0 l 1,1,-1
 89 636 l 1,2,-1
 305 636 l 1,3,-1
 193 0 l 1,0,-1
405 804 m 1,4,-1
 247 677 l 1,5,-1
 111 677 l 1,6,-1
 197 804 l 1,7,-1
 405 804 l 1,4,-1
EndSplineSet
EndChar

StartChar: Icircumflex
Encoding: 206 206 143
Width: 310
GlyphClass: 2
Flags: W
LayerCount: 2
Fore
SplineSet
195 0 m 1,0,-1
 -21 0 l 1,1,-1
 91 636 l 1,2,-1
 307 636 l 1,3,-1
 195 0 l 1,0,-1
317 799 m 1,4,-1
 371 671 l 1,5,-1
 244 671 l 1,6,-1
 218 722 l 1,7,-1
 174 671 l 1,8,-1
 46 671 l 1,9,-1
 144 799 l 1,10,-1
 317 799 l 1,4,-1
EndSplineSet
EndChar

StartChar: Idieresis
Encoding: 207 207 144
Width: 310
GlyphClass: 2
Flags: W
LayerCount: 2
Fore
SplineSet
197 0 m 1,0,-1
 -19 0 l 1,1,-1
 93 636 l 1,2,-1
 309 636 l 1,3,-1
 197 0 l 1,0,-1
52 734 m 128,-1,5
 63 798 63 798 138 798 c 128,-1,6
 213 798 213 798 202 734 c 128,-1,7
 191 670 191 670 116 670 c 128,-1,4
 41 670 41 670 52 734 c 128,-1,5
233 734 m 128,-1,9
 244 798 244 798 319.5 798 c 128,-1,10
 395 798 395 798 384 734 c 128,-1,11
 373 670 373 670 297.5 670 c 128,-1,8
 222 670 222 670 233 734 c 128,-1,9
EndSplineSet
EndChar

StartChar: Eth
Encoding: 208 208 145
Width: 613
GlyphClass: 2
Flags: W
LayerCount: 2
Fore
SplineSet
593 332 m 0,0,1
 534 0 534 0 232 0 c 2,2,-1
 -15 0 l 1,3,-1
 27 241 l 1,4,-1
 -23 241 l 1,5,-1
 2 382 l 1,6,-1
 52 382 l 1,7,-1
 97 636 l 1,8,-1
 349 636 l 2,9,10
 512 636 512 636 565.5 557.5 c 128,-1,11
 619 479 619 479 593 332 c 0,0,1
291 241 m 1,12,-1
 245 241 l 1,13,-1
 231 160 l 1,14,-1
 257 160 l 2,15,16
 309 160 309 160 331 195.5 c 128,-1,17
 353 231 353 231 367.5 314.5 c 128,-1,18
 382 398 382 398 371.5 433.5 c 128,-1,19
 361 469 361 469 308 469 c 2,20,-1
 286 469 l 1,21,-1
 270 382 l 1,22,-1
 316 382 l 1,23,-1
 291 241 l 1,12,-1
EndSplineSet
EndChar

StartChar: Ntilde
Encoding: 209 209 146
Width: 621
GlyphClass: 2
Flags: W
LayerCount: 2
Fore
SplineSet
510 0 m 1,0,-1
 301 0 l 1,1,-1
 216 251 l 1,2,-1
 209 251 l 1,3,-1
 165 0 l 1,4,-1
 -30 0 l 1,5,-1
 82 636 l 1,6,-1
 298 636 l 1,7,-1
 374 377 l 1,8,-1
 380 377 l 1,9,-1
 425 636 l 1,10,-1
 622 636 l 1,11,-1
 510 0 l 1,0,-1
551 803 m 1,12,-1
 549 792 l 2,13,14
 538 727 538 727 511 693 c 128,-1,15
 484 659 484 659 422 659 c 0,16,17
 387 659 387 659 318 684 c 1,18,-1
 312 653 l 1,19,-1
 183 653 l 1,20,-1
 186 666 l 2,21,22
 198 732 198 732 225.5 765 c 128,-1,23
 253 798 253 798 309 798 c 0,24,25
 338 798 338 798 417 773 c 1,26,-1
 422 803 l 1,27,-1
 551 803 l 1,12,-1
EndSplineSet
EndChar

StartChar: Ograve
Encoding: 210 210 147
Width: 623
GlyphClass: 2
Flags: W
LayerCount: 2
Fore
SplineSet
119 569.5 m 128,-1,1
 201 646 201 646 357 646 c 128,-1,2
 513 646 513 646 566.5 570.5 c 128,-1,3
 620 495 620 495 590 324.5 c 128,-1,4
 560 154 560 154 476.5 72 c 128,-1,5
 393 -10 393 -10 239 -10 c 128,-1,6
 85 -10 85 -10 31 71 c 128,-1,7
 -23 152 -23 152 7 322.5 c 128,-1,0
 37 493 37 493 119 569.5 c 128,-1,1
325 470 m 128,-1,9
 281 470 281 470 264.5 444.5 c 128,-1,10
 248 419 248 419 233 335 c 2,11,-1
 225 290 l 2,12,13
 210 204 210 204 218.5 178.5 c 128,-1,14
 227 153 227 153 272 153 c 128,-1,15
 317 153 317 153 333 177.5 c 128,-1,16
 349 202 349 202 364 287 c 2,17,-1
 372 334 l 2,18,19
 387 418 387 418 378 444 c 128,-1,8
 369 470 369 470 325 470 c 128,-1,9
300 677 m 1,20,-1
 199 804 l 1,21,-1
 395 804 l 1,22,-1
 438 677 l 1,23,-1
 300 677 l 1,20,-1
EndSplineSet
EndChar

StartChar: Oacute
Encoding: 211 211 148
Width: 623
GlyphClass: 2
Flags: W
LayerCount: 2
Fore
SplineSet
119 569.5 m 128,-1,1
 201 646 201 646 357 646 c 128,-1,2
 513 646 513 646 566.5 570.5 c 128,-1,3
 620 495 620 495 590 324.5 c 128,-1,4
 560 154 560 154 476.5 72 c 128,-1,5
 393 -10 393 -10 239 -10 c 128,-1,6
 85 -10 85 -10 31 71 c 128,-1,7
 -23 152 -23 152 7 322.5 c 128,-1,0
 37 493 37 493 119 569.5 c 128,-1,1
325 470 m 128,-1,9
 281 470 281 470 264.5 444.5 c 128,-1,10
 248 419 248 419 233 335 c 2,11,-1
 225 290 l 2,12,13
 210 204 210 204 218.5 178.5 c 128,-1,14
 227 153 227 153 272 153 c 128,-1,15
 317 153 317 153 333 177.5 c 128,-1,16
 349 202 349 202 364 287 c 2,17,-1
 372 334 l 2,18,19
 387 418 387 418 378 444 c 128,-1,8
 369 470 369 470 325 470 c 128,-1,9
573 804 m 1,20,-1
 415 677 l 1,21,-1
 279 677 l 1,22,-1
 365 804 l 1,23,-1
 573 804 l 1,20,-1
EndSplineSet
EndChar

StartChar: Ocircumflex
Encoding: 212 212 149
Width: 623
GlyphClass: 2
Flags: W
LayerCount: 2
Fore
SplineSet
119 569.5 m 128,-1,1
 201 646 201 646 357 646 c 128,-1,2
 513 646 513 646 567 570.5 c 128,-1,3
 621 495 621 495 591 324.5 c 128,-1,4
 561 154 561 154 477.5 72 c 128,-1,5
 394 -10 394 -10 240 -10 c 128,-1,6
 86 -10 86 -10 31.5 71 c 128,-1,7
 -23 152 -23 152 7 322.5 c 128,-1,0
 37 493 37 493 119 569.5 c 128,-1,1
325 470 m 128,-1,9
 281 470 281 470 264.5 444.5 c 128,-1,10
 248 419 248 419 234 335 c 2,11,-1
 226 290 l 2,12,13
 211 204 211 204 219 178.5 c 128,-1,14
 227 153 227 153 272 153 c 128,-1,15
 317 153 317 153 333 177.5 c 128,-1,16
 349 202 349 202 364 287 c 2,17,-1
 372 334 l 2,18,19
 387 418 387 418 378 444 c 128,-1,8
 369 470 369 470 325 470 c 128,-1,9
469 799 m 1,20,-1
 523 671 l 1,21,-1
 396 671 l 1,22,-1
 370 722 l 1,23,-1
 327 671 l 1,24,-1
 199 671 l 1,25,-1
 296 799 l 1,26,-1
 469 799 l 1,20,-1
EndSplineSet
EndChar

StartChar: Otilde
Encoding: 213 213 150
Width: 623
GlyphClass: 2
Flags: W
LayerCount: 2
Fore
SplineSet
118 569.5 m 128,-1,1
 200 646 200 646 356 646 c 128,-1,2
 512 646 512 646 565.5 570.5 c 128,-1,3
 619 495 619 495 589 324.5 c 128,-1,4
 559 154 559 154 475.5 72 c 128,-1,5
 392 -10 392 -10 238 -10 c 128,-1,6
 84 -10 84 -10 30 71 c 128,-1,7
 -24 152 -24 152 6 322.5 c 128,-1,0
 36 493 36 493 118 569.5 c 128,-1,1
324 470 m 128,-1,9
 280 470 280 470 263.5 444.5 c 128,-1,10
 247 419 247 419 232 335 c 2,11,-1
 224 290 l 2,12,13
 209 204 209 204 217.5 178.5 c 128,-1,14
 226 153 226 153 271 153 c 128,-1,15
 316 153 316 153 332 177.5 c 128,-1,16
 348 202 348 202 363 287 c 2,17,-1
 371 334 l 2,18,19
 386 418 386 418 377 444 c 128,-1,8
 368 470 368 470 324 470 c 128,-1,9
546 813 m 1,20,-1
 544 802 l 2,21,22
 533 737 533 737 506 703.5 c 128,-1,23
 479 670 479 670 417 670 c 0,24,25
 382 670 382 670 313 694 c 1,26,-1
 307 664 l 1,27,-1
 178 664 l 1,28,-1
 180 676 l 2,29,30
 192 742 192 742 220 775 c 128,-1,31
 248 808 248 808 303 808 c 0,32,33
 332 808 332 808 411 783 c 1,34,-1
 417 813 l 1,35,-1
 546 813 l 1,20,-1
EndSplineSet
EndChar

StartChar: Odieresis
Encoding: 214 214 151
Width: 623
GlyphClass: 2
Flags: W
LayerCount: 2
Fore
SplineSet
120 569.5 m 128,-1,1
 202 646 202 646 358 646 c 128,-1,2
 514 646 514 646 568 570.5 c 128,-1,3
 622 495 622 495 592 324.5 c 128,-1,4
 562 154 562 154 478.5 72 c 128,-1,5
 395 -10 395 -10 241 -10 c 128,-1,6
 87 -10 87 -10 32.5 71 c 128,-1,7
 -22 152 -22 152 8 322.5 c 128,-1,0
 38 493 38 493 120 569.5 c 128,-1,1
326 470 m 128,-1,9
 282 470 282 470 265.5 444.5 c 128,-1,10
 249 419 249 419 235 335 c 2,11,-1
 227 290 l 2,12,13
 212 204 212 204 220 178.5 c 128,-1,14
 228 153 228 153 273 153 c 128,-1,15
 318 153 318 153 334 177.5 c 128,-1,16
 350 202 350 202 365 287 c 2,17,-1
 373 334 l 2,18,19
 388 418 388 418 379 444 c 128,-1,8
 370 470 370 470 326 470 c 128,-1,9
203 723 m 128,-1,21
 214 787 214 787 289.5 787 c 128,-1,22
 365 787 365 787 354 723 c 128,-1,23
 343 659 343 659 267.5 659 c 128,-1,20
 192 659 192 659 203 723 c 128,-1,21
385 723 m 128,-1,25
 396 787 396 787 471 787 c 128,-1,26
 546 787 546 787 535 723 c 128,-1,27
 524 659 524 659 449 659 c 128,-1,24
 374 659 374 659 385 723 c 128,-1,25
EndSplineSet
EndChar

StartChar: multiply
Encoding: 215 215 152
Width: 481
GlyphClass: 2
Flags: W
LayerCount: 2
Fore
SplineSet
17 207 m 1,0,-1
 123 297 l 1,1,-1
 49 387 l 1,2,-1
 188 505 l 1,3,-1
 262 415 l 1,4,-1
 368 505 l 1,5,-1
 465 387 l 1,6,-1
 358 297 l 1,7,-1
 433 207 l 1,8,-1
 294 89 l 1,9,-1
 220 179 l 1,10,-1
 114 89 l 1,11,-1
 17 207 l 1,0,-1
EndSplineSet
EndChar

StartChar: Oslash
Encoding: 216 216 153
Width: 623
GlyphClass: 2
Flags: W
LayerCount: 2
Fore
SplineSet
252 -10 m 1,0,-1
 222 -9 l 1,1,-1
 183 -71 l 1,2,-1
 -34 -71 l 1,3,-1
 50 63 l 1,4,5
 -10 141 -10 141 21 317 c 128,-1,6
 52 493 52 493 134 569.5 c 128,-1,7
 216 646 216 646 372 646 c 0,8,9
 387 646 387 646 415 644 c 1,10,-1
 450 697 l 1,11,-1
 664 697 l 1,12,-1
 583 568 l 1,13,14
 636 493 636 493 605.5 323.5 c 128,-1,15
 575 154 575 154 491.5 72 c 128,-1,16
 408 -10 408 -10 252 -10 c 1,0,-1
340 470 m 128,-1,18
 296 470 296 470 279.5 444.5 c 128,-1,19
 263 419 263 419 248 335 c 2,20,-1
 240 290 l 2,21,22
 225 204 225 204 233.5 178.5 c 128,-1,23
 242 153 242 153 287 153 c 128,-1,24
 332 153 332 153 347.5 177.5 c 128,-1,25
 363 202 363 202 378 287 c 2,26,-1
 387 334 l 2,27,28
 402 418 402 418 393 444 c 128,-1,17
 384 470 384 470 340 470 c 128,-1,18
EndSplineSet
EndChar

StartChar: Ugrave
Encoding: 217 217 154
Width: 615
GlyphClass: 2
Flags: W
LayerCount: 2
Fore
SplineSet
231 225 m 2,0,1
 221 170 221 170 270.5 170 c 128,-1,2
 320 170 320 170 330 226 c 2,3,-1
 402 636 l 1,4,-1
 622 636 l 1,5,-1
 547 213 l 2,6,7
 527 100 527 100 446.5 45 c 128,-1,8
 366 -10 366 -10 234 -10 c 0,9,10
 -34 -10 -34 -10 5 211 c 2,11,-1
 80 636 l 1,12,-1
 303 636 l 1,13,-1
 231 225 l 2,0,1
299 667 m 1,14,-1
 198 794 l 1,15,-1
 394 794 l 1,16,-1
 437 667 l 1,17,-1
 299 667 l 1,14,-1
EndSplineSet
EndChar

StartChar: Uacute
Encoding: 218 218 155
Width: 615
GlyphClass: 2
Flags: W
LayerCount: 2
Fore
SplineSet
231 225 m 2,0,1
 221 170 221 170 270.5 170 c 128,-1,2
 320 170 320 170 330 226 c 2,3,-1
 402 636 l 1,4,-1
 622 636 l 1,5,-1
 547 213 l 2,6,7
 527 100 527 100 446.5 45 c 128,-1,8
 366 -10 366 -10 234 -10 c 0,9,10
 -34 -10 -34 -10 5 211 c 2,11,-1
 80 636 l 1,12,-1
 303 636 l 1,13,-1
 231 225 l 2,0,1
583 794 m 1,14,-1
 425 667 l 1,15,-1
 290 667 l 1,16,-1
 375 794 l 1,17,-1
 583 794 l 1,14,-1
EndSplineSet
EndChar

StartChar: Ucircumflex
Encoding: 219 219 156
Width: 615
GlyphClass: 2
Flags: W
LayerCount: 2
Fore
SplineSet
231 225 m 2,0,1
 221 170 221 170 270.5 170 c 128,-1,2
 320 170 320 170 330 226 c 2,3,-1
 403 636 l 1,4,-1
 623 636 l 1,5,-1
 548 213 l 2,6,7
 528 100 528 100 447.5 45 c 128,-1,8
 367 -10 367 -10 235 -10 c 0,9,10
 -33 -10 -33 -10 6 211 c 2,11,-1
 81 636 l 1,12,-1
 304 636 l 1,13,-1
 231 225 l 2,0,1
464 788 m 1,14,-1
 518 660 l 1,15,-1
 391 660 l 1,16,-1
 365 712 l 1,17,-1
 321 660 l 1,18,-1
 193 660 l 1,19,-1
 291 788 l 1,20,-1
 464 788 l 1,14,-1
EndSplineSet
EndChar

StartChar: Udieresis
Encoding: 220 220 157
Width: 615
GlyphClass: 2
Flags: W
LayerCount: 2
Fore
SplineSet
231 225 m 2,0,1
 221 170 221 170 270.5 170 c 128,-1,2
 320 170 320 170 330 226 c 2,3,-1
 403 636 l 1,4,-1
 623 636 l 1,5,-1
 548 213 l 2,6,7
 528 100 528 100 447.5 45 c 128,-1,8
 367 -10 367 -10 235 -10 c 0,9,10
 -33 -10 -33 -10 6 211 c 2,11,-1
 81 636 l 1,12,-1
 304 636 l 1,13,-1
 231 225 l 2,0,1
201 723 m 128,-1,15
 212 787 212 787 287.5 787 c 128,-1,16
 363 787 363 787 352 723 c 128,-1,17
 341 659 341 659 265.5 659 c 128,-1,14
 190 659 190 659 201 723 c 128,-1,15
383 723 m 128,-1,19
 394 787 394 787 469 787 c 128,-1,20
 544 787 544 787 533 723 c 128,-1,21
 522 659 522 659 447 659 c 128,-1,18
 372 659 372 659 383 723 c 128,-1,19
EndSplineSet
EndChar

StartChar: Yacute
Encoding: 221 221 158
Width: 548
GlyphClass: 2
Flags: W
LayerCount: 2
Fore
SplineSet
591 636 m 1,0,-1
 347 202 l 1,1,-1
 311 0 l 1,2,-1
 93 0 l 1,3,-1
 129 203 l 1,4,-1
 42 636 l 1,5,-1
 272 636 l 1,6,-1
 276 402 l 1,7,-1
 283 402 l 1,8,-1
 367 636 l 1,9,-1
 591 636 l 1,0,-1
546 794 m 1,10,-1
 389 667 l 1,11,-1
 254 667 l 1,12,-1
 338 794 l 1,13,-1
 546 794 l 1,10,-1
EndSplineSet
EndChar

StartChar: Thorn
Encoding: 222 222 159
Width: 528
GlyphClass: 2
Flags: W
LayerCount: 2
Fore
SplineSet
252 117 m 2,0,-1
 221 117 l 1,1,-1
 200 0 l 1,2,-1
 -15 0 l 1,3,-1
 97 636 l 1,4,-1
 312 636 l 1,5,-1
 298 554 l 1,6,-1
 317 554 l 2,7,8
 443 554 443 554 491.5 503 c 128,-1,9
 540 452 540 452 519 334 c 128,-1,10
 498 216 498 216 434.5 166.5 c 128,-1,11
 371 117 371 117 252 117 c 2,0,-1
307 323.5 m 128,-1,13
 314 362 314 362 307.5 378.5 c 128,-1,14
 301 395 301 395 274 395 c 2,15,-1
 266 395 l 1,16,-1
 240 252 l 1,17,-1
 253 252 l 2,18,19
 277 252 277 252 288.5 268.5 c 128,-1,12
 300 285 300 285 307 323.5 c 128,-1,13
EndSplineSet
EndChar

StartChar: germandbls
Encoding: 223 223 160
Width: 580
GlyphClass: 2
Flags: W
LayerCount: 2
Fore
SplineSet
290 470 m 2,0,-1
 207 0 l 1,1,-1
 -8 0 l 1,2,-1
 51 338 l 1,3,-1
 2 338 l 1,4,-1
 27 476 l 1,5,-1
 76 476 l 1,6,-1
 77 484 l 2,7,8
 109 664 109 664 357 665 c 0,9,10
 484 665 484 665 538.5 615.5 c 128,-1,11
 593 566 593 566 576 474 c 0,12,13
 568 426 568 426 549 398.5 c 128,-1,14
 530 371 530 371 491 347 c 1,15,-1
 490 342 l 1,16,17
 569 303 569 303 549 190 c 0,18,19
 514 -7 514 -7 315 -6 c 0,20,21
 275 -6 275 -6 226 0 c 1,22,-1
 252 148 l 1,23,24
 267 147 267 147 280 147 c 0,25,26
 327 147 327 147 335 196 c 0,27,28
 340 227 340 227 324 239.5 c 128,-1,29
 308 252 308 252 270 252 c 1,30,-1
 295 392 l 1,31,32
 349 392 349 392 358.5 446 c 128,-1,33
 368 500 368 500 325 500 c 0,34,35
 295 500 295 500 290 470 c 2,0,-1
EndSplineSet
EndChar

StartChar: agrave
Encoding: 224 224 161
Width: 513
GlyphClass: 2
Flags: W
LayerCount: 2
Fore
SplineSet
470 358 m 2,0,-1
 428 154 l 2,1,2
 426 140 426 140 435 135 c 128,-1,3
 444 130 444 130 472 130 c 1,4,-1
 428 -6 l 1,5,6
 366 -10 366 -10 345 -10 c 0,7,8
 270 -10 270 -10 244 30 c 1,9,-1
 237 30 l 1,10,11
 181 -10 181 -10 106.5 -10 c 128,-1,12
 32 -10 32 -10 0.5 29.5 c 128,-1,13
 -31 69 -31 69 -19 138 c 0,14,15
 -4 224 -4 224 60 258 c 128,-1,16
 124 292 124 292 252 301 c 1,17,-1
 255 319 l 2,18,19
 258 337 258 337 239 338 c 0,20,21
 187 338 187 338 53 306 c 1,22,-1
 51 468 l 1,23,24
 203 503 203 503 308.5 503 c 128,-1,25
 414 503 414 503 448.5 468 c 128,-1,26
 483 433 483 433 470 358 c 2,0,-1
196 122 m 0,27,28
 226 122 226 122 231 153 c 2,29,-1
 238 191 l 1,30,31
 184 184 184 184 178 151 c 0,32,33
 172 122 172 122 196 122 c 0,27,28
260 529 m 1,34,-1
 153 663 l 1,35,-1
 359 663 l 1,36,-1
 406 529 l 1,37,-1
 260 529 l 1,34,-1
EndSplineSet
EndChar

StartChar: aacute
Encoding: 225 225 162
Width: 513
GlyphClass: 2
Flags: W
LayerCount: 2
Fore
SplineSet
470 358 m 2,0,-1
 428 154 l 2,1,2
 426 140 426 140 435 135 c 128,-1,3
 444 130 444 130 472 130 c 1,4,-1
 428 -6 l 1,5,6
 366 -10 366 -10 345 -10 c 0,7,8
 270 -10 270 -10 244 30 c 1,9,-1
 237 30 l 1,10,11
 181 -10 181 -10 106.5 -10 c 128,-1,12
 32 -10 32 -10 0.5 29.5 c 128,-1,13
 -31 69 -31 69 -19 138 c 0,14,15
 -4 224 -4 224 60 258 c 128,-1,16
 124 292 124 292 252 301 c 1,17,-1
 255 319 l 2,18,19
 258 337 258 337 239 338 c 0,20,21
 187 338 187 338 53 306 c 1,22,-1
 51 468 l 1,23,24
 203 503 203 503 308.5 503 c 128,-1,25
 414 503 414 503 448.5 468 c 128,-1,26
 483 433 483 433 470 358 c 2,0,-1
196 122 m 0,27,28
 226 122 226 122 231 153 c 2,29,-1
 238 191 l 1,30,31
 184 184 184 184 178 151 c 0,32,33
 172 122 172 122 196 122 c 0,27,28
525 663 m 1,34,-1
 360 529 l 1,35,-1
 217 529 l 1,36,-1
 306 663 l 1,37,-1
 525 663 l 1,34,-1
EndSplineSet
EndChar

StartChar: acircumflex
Encoding: 226 226 163
Width: 513
GlyphClass: 2
Flags: W
LayerCount: 2
Fore
SplineSet
470 358 m 2,0,-1
 428 154 l 2,1,2
 426 140 426 140 435.5 135 c 128,-1,3
 445 130 445 130 473 130 c 1,4,-1
 429 -6 l 1,5,6
 367 -10 367 -10 345 -10 c 0,7,8
 270 -10 270 -10 244 30 c 1,9,-1
 237 30 l 1,10,11
 181 -10 181 -10 106.5 -10 c 128,-1,12
 32 -10 32 -10 0.5 29.5 c 128,-1,13
 -31 69 -31 69 -19 138 c 0,14,15
 -4 224 -4 224 60 258 c 128,-1,16
 124 292 124 292 252 301 c 1,17,-1
 255 319 l 2,18,19
 258 337 258 337 240 338 c 0,20,21
 188 338 188 338 54 306 c 1,22,-1
 51 468 l 1,23,24
 203 503 203 503 309 503 c 128,-1,25
 415 503 415 503 449 468 c 128,-1,26
 483 433 483 433 470 358 c 2,0,-1
196 122 m 0,27,28
 226 122 226 122 232 153 c 2,29,-1
 239 191 l 1,30,31
 185 184 185 184 179 151 c 0,32,33
 172 122 172 122 196 122 c 0,27,28
402 657 m 1,34,-1
 458 523 l 1,35,-1
 324 523 l 1,36,-1
 298 577 l 1,37,-1
 251 523 l 1,38,-1
 116 523 l 1,39,-1
 220 657 l 1,40,-1
 402 657 l 1,34,-1
EndSplineSet
EndChar

StartChar: atilde
Encoding: 227 227 164
Width: 513
GlyphClass: 2
Flags: W
LayerCount: 2
Fore
SplineSet
469 358 m 2,0,-1
 427 154 l 2,1,2
 425 140 425 140 434 135 c 128,-1,3
 443 130 443 130 471 130 c 1,4,-1
 427 -6 l 1,5,6
 365 -10 365 -10 344 -10 c 0,7,8
 269 -10 269 -10 243 30 c 1,9,-1
 236 30 l 1,10,11
 180 -10 180 -10 105.5 -10 c 128,-1,12
 31 -10 31 -10 -0.5 29.5 c 128,-1,13
 -32 69 -32 69 -20 138 c 0,14,15
 -5 224 -5 224 59 258 c 128,-1,16
 123 292 123 292 251 301 c 1,17,-1
 254 319 l 2,18,19
 257 337 257 337 238 338 c 0,20,21
 186 338 186 338 53 306 c 1,22,-1
 50 468 l 1,23,24
 202 503 202 503 307.5 503 c 128,-1,25
 413 503 413 503 447.5 468 c 128,-1,26
 482 433 482 433 469 358 c 2,0,-1
195 122 m 0,27,28
 225 122 225 122 231 153 c 2,29,-1
 237 191 l 1,30,31
 183 184 183 184 177 151 c 0,32,33
 171 122 171 122 195 122 c 0,27,28
487 673 m 1,34,-1
 485 660 l 2,35,36
 473 592 473 592 444.5 556.5 c 128,-1,37
 416 521 416 521 350 521 c 0,38,39
 312 521 312 521 242 548 c 1,40,-1
 236 515 l 1,41,-1
 100 515 l 1,42,-1
 103 528 l 2,43,44
 115 597 115 597 144 632.5 c 128,-1,45
 173 668 173 668 231 668 c 0,46,47
 262 668 262 668 346 641 c 1,48,-1
 351 673 l 1,49,-1
 487 673 l 1,34,-1
EndSplineSet
EndChar

StartChar: adieresis
Encoding: 228 228 165
Width: 513
GlyphClass: 2
Flags: W
LayerCount: 2
Fore
SplineSet
470 358 m 2,0,-1
 428 154 l 2,1,2
 426 140 426 140 435.5 135 c 128,-1,3
 445 130 445 130 473 130 c 1,4,-1
 429 -6 l 1,5,6
 367 -10 367 -10 345 -10 c 0,7,8
 270 -10 270 -10 244 30 c 1,9,-1
 237 30 l 1,10,11
 181 -10 181 -10 106.5 -10 c 128,-1,12
 32 -10 32 -10 0.5 29.5 c 128,-1,13
 -31 69 -31 69 -19 138 c 0,14,15
 -4 224 -4 224 60.5 258 c 128,-1,16
 125 292 125 292 252 301 c 1,17,-1
 255 319 l 2,18,19
 258 337 258 337 240 338 c 0,20,21
 188 338 188 338 54 306 c 1,22,-1
 52 468 l 1,23,24
 204 503 204 503 309.5 503 c 128,-1,25
 415 503 415 503 449 468 c 128,-1,26
 483 433 483 433 470 358 c 2,0,-1
197 122 m 0,27,28
 227 122 227 122 232 153 c 2,29,-1
 239 191 l 1,30,31
 185 184 185 184 179 151 c 0,32,33
 173 122 173 122 197 122 c 0,27,28
122 590 m 0,34,35
 128 623 128 623 151.5 639.5 c 128,-1,36
 175 656 175 656 211 656 c 0,37,38
 293 656 293 656 280 590 c 0,39,40
 274 555 274 555 251.5 538.5 c 128,-1,41
 229 522 229 522 187 522 c 0,42,43
 110 522 110 522 122 590 c 0,34,35
312 590 m 0,44,45
 318 623 318 623 341.5 639.5 c 128,-1,46
 365 656 365 656 401 656 c 0,47,48
 483 656 483 656 471 590 c 0,49,50
 465 555 465 555 442 538.5 c 128,-1,51
 419 522 419 522 377 522 c 0,52,53
 300 522 300 522 312 590 c 0,44,45
EndSplineSet
EndChar

StartChar: aring
Encoding: 229 229 166
Width: 513
GlyphClass: 2
Flags: W
LayerCount: 2
Fore
SplineSet
468 358 m 2,0,-1
 426 154 l 2,1,2
 424 140 424 140 433 135 c 128,-1,3
 442 130 442 130 470 130 c 1,4,-1
 427 -6 l 1,5,6
 365 -10 365 -10 343 -10 c 0,7,8
 268 -10 268 -10 242 30 c 1,9,-1
 235 30 l 1,10,11
 179 -10 179 -10 104.5 -10 c 128,-1,12
 30 -10 30 -10 -1.5 29.5 c 128,-1,13
 -33 69 -33 69 -21 138 c 0,14,15
 -6 224 -6 224 58 258 c 128,-1,16
 122 292 122 292 250 301 c 1,17,-1
 253 319 l 2,18,19
 256 337 256 337 237 338 c 0,20,21
 185 338 185 338 52 306 c 1,22,-1
 49 468 l 1,23,24
 201 503 201 503 306.5 503 c 128,-1,25
 412 503 412 503 446.5 468 c 128,-1,26
 481 433 481 433 468 358 c 2,0,-1
194 122 m 0,27,28
 224 122 224 122 230 153 c 2,29,-1
 236 191 l 1,30,31
 182 184 182 184 176 151 c 0,32,33
 170 122 170 122 194 122 c 0,27,28
301.5 629 m 128,-1,35
 281 629 281 629 276.5 601 c 128,-1,36
 272 573 272 573 292.5 573 c 128,-1,37
 313 573 313 573 317.5 601 c 128,-1,34
 322 629 322 629 301.5 629 c 128,-1,35
192 598 m 0,38,39
 207 684 207 684 312 684 c 128,-1,40
 417 684 417 684 403 603 c 0,41,42
 388 517 388 517 283 517 c 0,43,44
 232 517 232 517 208.5 538.5 c 128,-1,45
 185 560 185 560 192 598 c 0,38,39
EndSplineSet
EndChar

StartChar: ae
Encoding: 230 230 167
Width: 748
GlyphClass: 2
Flags: W
LayerCount: 2
Fore
SplineSet
548 503 m 0,0,1
 671 503 671 503 714.5 451.5 c 128,-1,2
 758 400 758 400 741 305 c 0,3,4
 735 273 735 273 713 190 c 1,5,-1
 456 190 l 1,6,7
 450 134 450 134 512 134 c 0,8,9
 561 134 561 134 673 157 c 1,10,-1
 667 18 l 1,11,12
 553 -11 553 -11 454 -10.5 c 128,-1,13
 355 -10 355 -10 305 40 c 1,14,15
 219 -10 219 -10 119 -10 c 0,16,17
 46 -10 46 -10 14.5 29.5 c 128,-1,18
 -17 69 -17 69 -5 138 c 0,19,20
 10 224 10 224 74 258 c 128,-1,21
 138 292 138 292 266 301 c 1,22,-1
 269 319 l 2,23,24
 272 337 272 337 253 338 c 0,25,26
 201 338 201 338 68 306 c 1,27,-1
 65 468 l 1,28,29
 217 503 217 503 332 503 c 0,30,31
 395 503 395 503 431 477 c 1,32,33
 479 503 479 503 548 503 c 0,0,1
210 122 m 0,34,35
 240 122 240 122 246 153 c 2,36,-1
 252 191 l 1,37,38
 198 184 198 184 192 151 c 0,39,40
 186 122 186 122 210 122 c 0,34,35
516 338 m 0,41,42
 478 338 478 338 469 284 c 1,43,-1
 543 284 l 1,44,-1
 545 299 l 2,45,46
 552 338 552 338 516 338 c 0,41,42
EndSplineSet
EndChar

StartChar: ccedilla
Encoding: 231 231 168
Width: 403
GlyphClass: 2
Flags: W
LayerCount: 2
Fore
SplineSet
305 503 m 0,0,1
 388 503 388 503 456 475 c 1,2,-1
 406 313 l 1,3,4
 331 342 331 342 303 342 c 128,-1,5
 275 342 275 342 261.5 317.5 c 128,-1,6
 248 293 248 293 239 241.5 c 128,-1,7
 230 190 230 190 234.5 167 c 128,-1,8
 239 144 239 144 269.5 144 c 128,-1,9
 300 144 300 144 370 158 c 1,10,-1
 366 15 l 1,11,12
 284 -9 284 -9 228 -10 c 1,13,14
 222 -17 222 -17 221 -21 c 128,-1,15
 220 -25 220 -25 237 -32 c 128,-1,16
 254 -39 254 -39 269 -55 c 128,-1,17
 284 -71 284 -71 280 -96 c 0,18,19
 267 -172 267 -172 154 -172 c 0,20,21
 87 -172 87 -172 48 -141 c 1,22,-1
 99 -69 l 1,23,24
 140 -101 140 -101 165 -100 c 0,25,26
 172 -100 172 -100 173 -94 c 0,27,28
 174 -90 174 -90 162 -83 c 2,29,-1
 137 -71 l 2,30,31
 115 -58 115 -58 119.5 -38 c 128,-1,32
 124 -18 124 -18 144 -3 c 1,33,34
 67 15 67 15 37.5 77.5 c 128,-1,35
 8 140 8 140 25 237 c 0,36,37
 46 357 46 357 118.5 430 c 128,-1,38
 191 503 191 503 305 503 c 0,0,1
EndSplineSet
EndChar

StartChar: egrave
Encoding: 232 232 169
Width: 509
GlyphClass: 2
Flags: W
LayerCount: 2
Fore
SplineSet
263 338 m 0,0,1
 241 338 241 338 230.5 324.5 c 128,-1,2
 220 311 220 311 216 284 c 1,3,-1
 290 284 l 1,4,-1
 292 300 l 2,5,6
 299 338 299 338 263 338 c 0,0,1
95 436 m 128,-1,8
 171 503 171 503 295.5 503 c 128,-1,9
 420 503 420 503 463 451.5 c 128,-1,10
 506 400 506 400 489 305 c 0,11,12
 482 267 482 267 460 190 c 1,13,-1
 203 190 l 1,14,15
 197 135 197 135 261 135 c 0,16,17
 291 135 291 135 421 157 c 1,18,-1
 414 18 l 1,19,20
 300 -11 300 -11 206 -10 c 0,21,22
 83 -10 83 -10 29.5 57.5 c 128,-1,23
 -24 125 -24 125 -2.5 247 c 128,-1,7
 19 369 19 369 95 436 c 128,-1,8
264 529 m 1,24,-1
 157 663 l 1,25,-1
 363 663 l 1,26,-1
 410 529 l 1,27,-1
 264 529 l 1,24,-1
EndSplineSet
EndChar

StartChar: eacute
Encoding: 233 233 170
Width: 509
GlyphClass: 2
Flags: W
LayerCount: 2
Fore
SplineSet
263 338 m 0,0,1
 241 338 241 338 230.5 324.5 c 128,-1,2
 220 311 220 311 216 284 c 1,3,-1
 290 284 l 1,4,-1
 292 300 l 2,5,6
 299 338 299 338 263 338 c 0,0,1
95 436 m 128,-1,8
 171 503 171 503 295.5 503 c 128,-1,9
 420 503 420 503 463 451.5 c 128,-1,10
 506 400 506 400 489 305 c 0,11,12
 482 267 482 267 460 190 c 1,13,-1
 203 190 l 1,14,15
 197 135 197 135 261 135 c 0,16,17
 291 135 291 135 421 157 c 1,18,-1
 414 18 l 1,19,20
 300 -11 300 -11 206 -10 c 0,21,22
 83 -10 83 -10 29.5 57.5 c 128,-1,23
 -24 125 -24 125 -2.5 247 c 128,-1,7
 19 369 19 369 95 436 c 128,-1,8
525 663 m 1,24,-1
 360 529 l 1,25,-1
 217 529 l 1,26,-1
 306 663 l 1,27,-1
 525 663 l 1,24,-1
EndSplineSet
EndChar

StartChar: ecircumflex
Encoding: 234 234 171
Width: 509
GlyphClass: 2
Flags: W
LayerCount: 2
Fore
SplineSet
264 338 m 0,0,1
 242 338 242 338 231.5 324.5 c 128,-1,2
 221 311 221 311 216 284 c 1,3,-1
 290 284 l 1,4,-1
 293 300 l 2,5,6
 300 338 300 338 264 338 c 0,0,1
96 436 m 128,-1,8
 172 503 172 503 296.5 503 c 128,-1,9
 421 503 421 503 463.5 451.5 c 128,-1,10
 506 400 506 400 490 305 c 0,11,12
 483 267 483 267 460 190 c 1,13,-1
 203 190 l 1,14,15
 197 135 197 135 262 135 c 0,16,17
 292 135 292 135 422 157 c 1,18,-1
 414 18 l 1,19,20
 300 -11 300 -11 206 -10 c 0,21,22
 83 -10 83 -10 30 57.5 c 128,-1,23
 -23 125 -23 125 -1.5 247 c 128,-1,7
 20 369 20 369 96 436 c 128,-1,8
412 657 m 1,24,-1
 468 523 l 1,25,-1
 334 523 l 1,26,-1
 308 577 l 1,27,-1
 261 523 l 1,28,-1
 126 523 l 1,29,-1
 230 657 l 1,30,-1
 412 657 l 1,24,-1
EndSplineSet
EndChar

StartChar: edieresis
Encoding: 235 235 172
Width: 509
GlyphClass: 2
Flags: W
LayerCount: 2
Fore
SplineSet
264 338 m 0,0,1
 242 338 242 338 231.5 324.5 c 128,-1,2
 221 311 221 311 216 284 c 1,3,-1
 290 284 l 1,4,-1
 293 300 l 2,5,6
 300 338 300 338 264 338 c 0,0,1
96 436 m 128,-1,8
 172 503 172 503 296.5 503 c 128,-1,9
 421 503 421 503 464 451.5 c 128,-1,10
 507 400 507 400 490 305 c 0,11,12
 483 267 483 267 461 190 c 1,13,-1
 204 190 l 1,14,15
 198 135 198 135 262 135 c 0,16,17
 292 135 292 135 422 157 c 1,18,-1
 414 18 l 1,19,20
 300 -11 300 -11 206 -10 c 0,21,22
 83 -10 83 -10 30 57.5 c 128,-1,23
 -23 125 -23 125 -1.5 247 c 128,-1,7
 20 369 20 369 96 436 c 128,-1,8
135 590 m 0,24,25
 141 623 141 623 164.5 639.5 c 128,-1,26
 188 656 188 656 224 656 c 0,27,28
 306 656 306 656 294 590 c 0,29,30
 288 555 288 555 265 538.5 c 128,-1,31
 242 522 242 522 200 522 c 0,32,33
 123 522 123 522 135 590 c 0,24,25
326 590 m 0,34,35
 332 623 332 623 355 639.5 c 128,-1,36
 378 656 378 656 414 656 c 0,37,38
 496 656 496 656 484 590 c 0,39,40
 478 555 478 555 455 538.5 c 128,-1,41
 432 522 432 522 390 522 c 0,42,43
 314 522 314 522 326 590 c 0,34,35
EndSplineSet
EndChar

StartChar: igrave
Encoding: 236 236 173
Width: 286
GlyphClass: 2
Flags: W
LayerCount: 2
Fore
SplineSet
193 0 m 1,0,-1
 -20 0 l 1,1,-1
 64 480 l 1,2,-1
 277 480 l 1,3,-1
 193 0 l 1,0,-1
134 529 m 1,4,-1
 27 663 l 1,5,-1
 233 663 l 1,6,-1
 280 529 l 1,7,-1
 134 529 l 1,4,-1
EndSplineSet
EndChar

StartChar: iacute
Encoding: 237 237 174
Width: 286
GlyphClass: 2
Flags: W
LayerCount: 2
Fore
SplineSet
194 0 m 1,0,-1
 -19 0 l 1,1,-1
 65 480 l 1,2,-1
 278 480 l 1,3,-1
 194 0 l 1,0,-1
385 663 m 1,4,-1
 219 529 l 1,5,-1
 77 529 l 1,6,-1
 166 663 l 1,7,-1
 385 663 l 1,4,-1
EndSplineSet
EndChar

StartChar: icircumflex
Encoding: 238 238 175
Width: 286
GlyphClass: 2
Flags: W
LayerCount: 2
Fore
SplineSet
194 0 m 1,0,-1
 -19 0 l 1,1,-1
 66 480 l 1,2,-1
 279 480 l 1,3,-1
 194 0 l 1,0,-1
294 657 m 1,4,-1
 349 523 l 1,5,-1
 215 523 l 1,6,-1
 189 577 l 1,7,-1
 143 523 l 1,8,-1
 7 523 l 1,9,-1
 111 657 l 1,10,-1
 294 657 l 1,4,-1
EndSplineSet
EndChar

StartChar: idieresis
Encoding: 239 239 176
Width: 286
GlyphClass: 2
Flags: W
LayerCount: 2
Fore
SplineSet
193 0 m 1,0,-1
 -20 0 l 1,1,-1
 65 480 l 1,2,-1
 278 480 l 1,3,-1
 193 0 l 1,0,-1
17 590 m 0,4,5
 23 623 23 623 46.5 639.5 c 128,-1,6
 70 656 70 656 106 656 c 0,7,8
 188 656 188 656 176 590 c 0,9,10
 170 555 170 555 147 538.5 c 128,-1,11
 124 522 124 522 82 522 c 0,12,13
 5 522 5 522 17 590 c 0,4,5
208 590 m 0,14,15
 214 623 214 623 237.5 639.5 c 128,-1,16
 261 656 261 656 297 656 c 0,17,18
 379 656 379 656 367 590 c 0,19,20
 361 555 361 555 338 538.5 c 128,-1,21
 315 522 315 522 273 522 c 0,22,23
 196 522 196 522 208 590 c 0,14,15
EndSplineSet
EndChar

StartChar: eth
Encoding: 240 240 177
Width: 533
GlyphClass: 2
Flags: W
LayerCount: 2
Fore
SplineSet
233 410 m 0,0,1
 272 410 272 410 295 406 c 1,2,-1
 300 410 l 1,3,4
 292 441 292 441 267 458 c 1,5,-1
 138 403 l 1,6,-1
 156 503 l 1,7,-1
 173 512 l 1,8,-1
 173 516 l 1,9,10
 151 520 151 520 99 520 c 1,11,-1
 126 671 l 1,12,13
 266 671 266 671 361 636 c 1,14,-1
 484 687 l 1,15,-1
 463 567 l 1,16,-1
 442 556 l 1,17,18
 539 457 539 457 506 271 c 0,19,20
 482 137 482 137 405.5 63.5 c 128,-1,21
 329 -10 329 -10 203.5 -10 c 128,-1,22
 78 -10 78 -10 25 42.5 c 128,-1,23
 -28 95 -28 95 -7 213 c 0,24,25
 10 309 10 309 72 359.5 c 128,-1,26
 134 410 134 410 233 410 c 0,0,1
284 272.5 m 128,-1,28
 281 290 281 290 259.5 290 c 128,-1,29
 238 290 238 290 227 267.5 c 128,-1,30
 216 245 216 245 208 201.5 c 128,-1,31
 200 158 200 158 204 140.5 c 128,-1,32
 208 123 208 123 229.5 123 c 128,-1,33
 251 123 251 123 261.5 145 c 128,-1,34
 272 167 272 167 279.5 211 c 128,-1,27
 287 255 287 255 284 272.5 c 128,-1,28
EndSplineSet
EndChar

StartChar: ntilde
Encoding: 241 241 178
Width: 551
GlyphClass: 2
Flags: W
LayerCount: 2
Fore
SplineSet
400 503 m 0,0,1
 543 503 543 503 519 364 c 2,2,-1
 455 0 l 1,3,-1
 239 0 l 1,4,-1
 295 317 l 2,5,6
 298 333 298 333 281 333.5 c 128,-1,7
 264 334 264 334 242 324 c 1,8,-1
 185 0 l 1,9,-1
 -28 0 l 1,10,-1
 58 490 l 1,11,-1
 251 490 l 1,12,-1
 252 459 l 1,13,14
 324 503 324 503 400 503 c 0,0,1
506 673 m 1,15,-1
 504 660 l 2,16,17
 492 592 492 592 464 556.5 c 128,-1,18
 436 521 436 521 371 521 c 0,19,20
 333 521 333 521 261 548 c 1,21,-1
 255 515 l 1,22,-1
 119 515 l 1,23,-1
 122 528 l 2,24,25
 134 597 134 597 163 632.5 c 128,-1,26
 192 668 192 668 251 668 c 0,27,28
 282 668 282 668 365 641 c 1,29,-1
 370 673 l 1,30,-1
 506 673 l 1,15,-1
EndSplineSet
EndChar

StartChar: ograve
Encoding: 242 242 179
Width: 516
GlyphClass: 2
Flags: W
LayerCount: 2
Fore
SplineSet
92.5 442.5 m 128,-1,1
 163 503 163 503 290.5 503 c 128,-1,2
 418 503 418 503 466 443.5 c 128,-1,3
 514 384 514 384 490 248.5 c 128,-1,4
 466 113 466 113 398.5 51.5 c 128,-1,5
 331 -10 331 -10 201.5 -10 c 128,-1,6
 72 -10 72 -10 23 51.5 c 128,-1,7
 -26 113 -26 113 -2 247.5 c 128,-1,0
 22 382 22 382 92.5 442.5 c 128,-1,1
263.5 352 m 128,-1,9
 242 352 242 352 233 334 c 128,-1,10
 224 316 224 316 214 258 c 2,11,-1
 210 233 l 2,12,13
 198 167 198 167 200.5 148.5 c 128,-1,14
 203 130 203 130 224.5 130 c 128,-1,15
 246 130 246 130 255 149 c 128,-1,16
 264 168 264 168 275 228 c 2,17,-1
 280 257 l 2,18,19
 290 316 290 316 287.5 334 c 128,-1,8
 285 352 285 352 263.5 352 c 128,-1,9
259 529 m 1,20,-1
 152 663 l 1,21,-1
 358 663 l 1,22,-1
 405 529 l 1,23,-1
 259 529 l 1,20,-1
EndSplineSet
EndChar

StartChar: oacute
Encoding: 243 243 180
Width: 516
GlyphClass: 2
Flags: W
LayerCount: 2
Fore
SplineSet
92.5 442.5 m 128,-1,1
 163 503 163 503 290.5 503 c 128,-1,2
 418 503 418 503 466 443.5 c 128,-1,3
 514 384 514 384 490 248.5 c 128,-1,4
 466 113 466 113 398.5 51.5 c 128,-1,5
 331 -10 331 -10 201.5 -10 c 128,-1,6
 72 -10 72 -10 23 51.5 c 128,-1,7
 -26 113 -26 113 -2 247.5 c 128,-1,0
 22 382 22 382 92.5 442.5 c 128,-1,1
263.5 352 m 128,-1,9
 242 352 242 352 233 334 c 128,-1,10
 224 316 224 316 214 258 c 2,11,-1
 210 233 l 2,12,13
 198 167 198 167 200.5 148.5 c 128,-1,14
 203 130 203 130 224.5 130 c 128,-1,15
 246 130 246 130 255 149 c 128,-1,16
 264 168 264 168 275 228 c 2,17,-1
 280 257 l 2,18,19
 290 316 290 316 287.5 334 c 128,-1,8
 285 352 285 352 263.5 352 c 128,-1,9
515 663 m 1,20,-1
 349 529 l 1,21,-1
 207 529 l 1,22,-1
 296 663 l 1,23,-1
 515 663 l 1,20,-1
EndSplineSet
EndChar

StartChar: ocircumflex
Encoding: 244 244 181
Width: 516
GlyphClass: 2
Flags: W
LayerCount: 2
Fore
SplineSet
93 442.5 m 128,-1,1
 164 503 164 503 291.5 503 c 128,-1,2
 419 503 419 503 467 443.5 c 128,-1,3
 515 384 515 384 491 248.5 c 128,-1,4
 467 113 467 113 399 51.5 c 128,-1,5
 331 -10 331 -10 201.5 -10 c 128,-1,6
 72 -10 72 -10 23.5 51.5 c 128,-1,7
 -25 113 -25 113 -1.5 247.5 c 128,-1,0
 22 382 22 382 93 442.5 c 128,-1,1
264.5 352 m 128,-1,9
 243 352 243 352 234 334 c 128,-1,10
 225 316 225 316 214 258 c 2,11,-1
 210 233 l 2,12,13
 198 167 198 167 201 148.5 c 128,-1,14
 204 130 204 130 225.5 130 c 128,-1,15
 247 130 247 130 256 149 c 128,-1,16
 265 168 265 168 275 228 c 2,17,-1
 280 257 l 2,18,19
 290 316 290 316 288 334 c 128,-1,8
 286 352 286 352 264.5 352 c 128,-1,9
409 657 m 1,20,-1
 465 523 l 1,21,-1
 331 523 l 1,22,-1
 305 577 l 1,23,-1
 258 523 l 1,24,-1
 123 523 l 1,25,-1
 227 657 l 1,26,-1
 409 657 l 1,20,-1
EndSplineSet
EndChar

StartChar: otilde
Encoding: 245 245 182
Width: 516
GlyphClass: 2
Flags: W
LayerCount: 2
Fore
SplineSet
91.5 442.5 m 128,-1,1
 162 503 162 503 289.5 503 c 128,-1,2
 417 503 417 503 465 443.5 c 128,-1,3
 513 384 513 384 489 248.5 c 128,-1,4
 465 113 465 113 397.5 51.5 c 128,-1,5
 330 -10 330 -10 200.5 -10 c 128,-1,6
 71 -10 71 -10 22 51.5 c 128,-1,7
 -27 113 -27 113 -3 247.5 c 128,-1,0
 21 382 21 382 91.5 442.5 c 128,-1,1
263.5 352 m 128,-1,9
 242 352 242 352 232.5 334 c 128,-1,10
 223 316 223 316 213 258 c 2,11,-1
 209 233 l 2,12,13
 197 167 197 167 199.5 148.5 c 128,-1,14
 202 130 202 130 223.5 130 c 128,-1,15
 245 130 245 130 254 149 c 128,-1,16
 263 168 263 168 274 228 c 2,17,-1
 279 257 l 2,18,19
 289 316 289 316 287 334 c 128,-1,8
 285 352 285 352 263.5 352 c 128,-1,9
493 673 m 1,20,-1
 491 660 l 2,21,22
 479 592 479 592 450.5 556.5 c 128,-1,23
 422 521 422 521 357 521 c 0,24,25
 319 521 319 521 248 548 c 1,26,-1
 242 515 l 1,27,-1
 106 515 l 1,28,-1
 109 528 l 2,29,30
 121 597 121 597 150 632.5 c 128,-1,31
 179 668 179 668 237 668 c 0,32,33
 268 668 268 668 352 641 c 1,34,-1
 357 673 l 1,35,-1
 493 673 l 1,20,-1
EndSplineSet
EndChar

StartChar: odieresis
Encoding: 246 246 183
Width: 516
GlyphClass: 2
Flags: W
LayerCount: 2
Fore
SplineSet
93 442.5 m 128,-1,1
 164 503 164 503 291.5 503 c 128,-1,2
 419 503 419 503 467 443.5 c 128,-1,3
 515 384 515 384 491 248.5 c 128,-1,4
 467 113 467 113 399 51.5 c 128,-1,5
 331 -10 331 -10 201.5 -10 c 128,-1,6
 72 -10 72 -10 23.5 51.5 c 128,-1,7
 -25 113 -25 113 -1.5 247.5 c 128,-1,0
 22 382 22 382 93 442.5 c 128,-1,1
264.5 352 m 128,-1,9
 243 352 243 352 234 334 c 128,-1,10
 225 316 225 316 215 258 c 2,11,-1
 210 233 l 2,12,13
 198 167 198 167 201 148.5 c 128,-1,14
 204 130 204 130 225.5 130 c 128,-1,15
 247 130 247 130 256 149 c 128,-1,16
 265 168 265 168 275 228 c 2,17,-1
 280 257 l 2,18,19
 290 316 290 316 288 334 c 128,-1,8
 286 352 286 352 264.5 352 c 128,-1,9
131 590 m 0,20,21
 137 623 137 623 160.5 639.5 c 128,-1,22
 184 656 184 656 220 656 c 0,23,24
 302 656 302 656 290 590 c 0,25,26
 284 555 284 555 261 538.5 c 128,-1,27
 238 522 238 522 196 522 c 0,28,29
 119 522 119 522 131 590 c 0,20,21
321 590 m 0,30,31
 327 623 327 623 350.5 639.5 c 128,-1,32
 374 656 374 656 410 656 c 0,33,34
 492 656 492 656 480 590 c 0,35,36
 474 555 474 555 451 538.5 c 128,-1,37
 428 522 428 522 386 522 c 0,38,39
 309 522 309 522 321 590 c 0,30,31
EndSplineSet
EndChar

StartChar: divide
Encoding: 247 247 184
Width: 487
GlyphClass: 2
Flags: W
LayerCount: 2
Fore
SplineSet
123.5 31 m 128,-1,1
 104 51 104 51 111 93 c 128,-1,2
 118 135 118 135 143.5 155 c 128,-1,3
 169 175 169 175 225.5 175 c 128,-1,4
 282 175 282 175 300 155 c 128,-1,5
 318 135 318 135 311 93 c 128,-1,6
 304 51 304 51 278.5 31 c 128,-1,7
 253 11 253 11 198 11 c 128,-1,0
 143 11 143 11 123.5 31 c 128,-1,1
195.5 439 m 128,-1,9
 176 459 176 459 183 501 c 128,-1,10
 190 543 190 543 215.5 563 c 128,-1,11
 241 583 241 583 297.5 583 c 128,-1,12
 354 583 354 583 372 563 c 128,-1,13
 390 543 390 543 383 501 c 128,-1,14
 376 459 376 459 350.5 439 c 128,-1,15
 325 419 325 419 270 419 c 128,-1,8
 215 419 215 419 195.5 439 c 128,-1,9
440 214 m 1,16,-1
 18 214 l 1,17,-1
 48 380 l 1,18,-1
 470 380 l 1,19,-1
 440 214 l 1,16,-1
EndSplineSet
EndChar

StartChar: oslash
Encoding: 248 248 185
Width: 522
GlyphClass: 2
Flags: W
LayerCount: 2
Fore
SplineSet
309 503 m 0,0,1
 328 503 328 503 339 502 c 1,2,-1
 377 561 l 1,3,-1
 550 561 l 1,4,-1
 479 449 l 1,5,6
 531 389 531 389 507.5 251 c 128,-1,7
 484 113 484 113 416 51.5 c 128,-1,8
 348 -10 348 -10 219 -10 c 0,9,10
 202 -10 202 -10 194 -9 c 1,11,-1
 155 -71 l 1,12,-1
 -21 -71 l 1,13,-1
 49 41 l 1,14,15
 -11 100 -11 100 14 241 c 128,-1,16
 39 382 39 382 109.5 442.5 c 128,-1,17
 180 503 180 503 309 503 c 0,0,1
281.5 352 m 128,-1,19
 260 352 260 352 251 334 c 128,-1,20
 242 316 242 316 231 258 c 2,21,-1
 227 233 l 2,22,23
 215 167 215 167 218 148.5 c 128,-1,24
 221 130 221 130 242.5 130 c 128,-1,25
 264 130 264 130 272.5 149 c 128,-1,26
 281 168 281 168 292 228 c 2,27,-1
 297 257 l 2,28,29
 307 316 307 316 305 334 c 128,-1,18
 303 352 303 352 281.5 352 c 128,-1,19
EndSplineSet
EndChar

StartChar: ugrave
Encoding: 249 249 186
Width: 551
GlyphClass: 2
Flags: W
LayerCount: 2
Fore
SplineSet
117 -10 m 0,0,1
 -28 -10 -28 -10 -4 129 c 2,2,-1
 60 490 l 1,3,-1
 275 490 l 1,4,-1
 218 169 l 2,5,6
 215 153 215 153 229.5 153 c 128,-1,7
 244 153 244 153 271 163 c 1,8,-1
 329 490 l 1,9,-1
 543 490 l 1,10,-1
 457 2 l 1,11,-1
 252 2 l 1,12,-1
 256 28 l 1,13,-1
 250 28 l 1,14,15
 185 -10 185 -10 117 -10 c 0,0,1
258 529 m 1,16,-1
 151 663 l 1,17,-1
 357 663 l 1,18,-1
 404 529 l 1,19,-1
 258 529 l 1,16,-1
EndSplineSet
EndChar

StartChar: uacute
Encoding: 250 250 187
Width: 551
GlyphClass: 2
Flags: W
LayerCount: 2
Fore
SplineSet
117 -10 m 0,0,1
 -28 -10 -28 -10 -4 129 c 2,2,-1
 60 490 l 1,3,-1
 275 490 l 1,4,-1
 218 169 l 2,5,6
 215 153 215 153 229.5 153 c 128,-1,7
 244 153 244 153 271 163 c 1,8,-1
 329 490 l 1,9,-1
 543 490 l 1,10,-1
 457 2 l 1,11,-1
 252 2 l 1,12,-1
 256 28 l 1,13,-1
 250 28 l 1,14,15
 185 -10 185 -10 117 -10 c 0,0,1
545 663 m 1,16,-1
 380 529 l 1,17,-1
 238 529 l 1,18,-1
 326 663 l 1,19,-1
 545 663 l 1,16,-1
EndSplineSet
EndChar

StartChar: ucircumflex
Encoding: 251 251 188
Width: 551
GlyphClass: 2
Flags: W
LayerCount: 2
Fore
SplineSet
117 -10 m 0,0,1
 -28 -10 -28 -10 -3 129 c 2,2,-1
 60 490 l 1,3,-1
 275 490 l 1,4,-1
 219 169 l 2,5,6
 216 153 216 153 230.5 153 c 128,-1,7
 245 153 245 153 272 163 c 1,8,-1
 329 490 l 1,9,-1
 543 490 l 1,10,-1
 457 2 l 1,11,-1
 252 2 l 1,12,-1
 257 28 l 1,13,-1
 251 28 l 1,14,15
 185 -10 185 -10 117 -10 c 0,0,1
421 657 m 1,16,-1
 477 523 l 1,17,-1
 343 523 l 1,18,-1
 317 577 l 1,19,-1
 271 523 l 1,20,-1
 135 523 l 1,21,-1
 239 657 l 1,22,-1
 421 657 l 1,16,-1
EndSplineSet
EndChar

StartChar: udieresis
Encoding: 252 252 189
Width: 551
GlyphClass: 2
Flags: W
LayerCount: 2
Fore
SplineSet
117 -10 m 0,0,1
 -28 -10 -28 -10 -3 129 c 2,2,-1
 60 490 l 1,3,-1
 275 490 l 1,4,-1
 219 169 l 2,5,6
 216 153 216 153 230.5 153 c 128,-1,7
 245 153 245 153 272 163 c 1,8,-1
 329 490 l 1,9,-1
 543 490 l 1,10,-1
 457 2 l 1,11,-1
 252 2 l 1,12,-1
 257 28 l 1,13,-1
 251 28 l 1,14,15
 185 -10 185 -10 117 -10 c 0,0,1
143 590 m 0,16,17
 149 623 149 623 172.5 639.5 c 128,-1,18
 196 656 196 656 232 656 c 0,19,20
 314 656 314 656 302 590 c 0,21,22
 296 555 296 555 273 538.5 c 128,-1,23
 250 522 250 522 208 522 c 0,24,25
 131 522 131 522 143 590 c 0,16,17
334 590 m 0,26,27
 340 623 340 623 363.5 639.5 c 128,-1,28
 387 656 387 656 423 656 c 0,29,30
 505 656 505 656 492 590 c 0,31,32
 486 555 486 555 463.5 538.5 c 128,-1,33
 441 522 441 522 399 522 c 0,34,35
 322 522 322 522 334 590 c 0,26,27
EndSplineSet
EndChar

StartChar: yacute
Encoding: 253 253 190
Width: 531
GlyphClass: 2
Flags: W
LayerCount: 2
Fore
SplineSet
266 225 m 1,0,1
 359 484 359 484 361 490 c 1,2,-1
 571 490 l 1,3,-1
 341 -8 l 2,4,5
 306 -84 306 -84 257 -112 c 128,-1,6
 208 -140 208 -140 106 -140 c 2,7,-1
 -17 -140 l 1,8,-1
 -14 6 l 1,9,-1
 68 6 l 2,10,11
 95 6 95 6 97 24 c 0,12,13
 99 35 99 35 97 52 c 2,14,-1
 40 490 l 1,15,-1
 265 490 l 1,16,-1
 262 225 l 1,17,-1
 266 225 l 1,0,1
551 663 m 1,18,-1
 385 529 l 1,19,-1
 243 529 l 1,20,-1
 332 663 l 1,21,-1
 551 663 l 1,18,-1
EndSplineSet
EndChar

StartChar: thorn
Encoding: 254 254 191
Width: 531
GlyphClass: 2
Flags: W
LayerCount: 2
Fore
SplineSet
272 -10 m 0,0,1
 234 -10 234 -10 199 4 c 1,2,-1
 174 -140 l 1,3,-1
 -39 -140 l 1,4,-1
 101 656 l 1,5,-1
 307 656 l 1,6,-1
 276 481 l 1,7,8
 321 503 321 503 374 503 c 0,9,10
 485 503 485 503 513.5 446 c 128,-1,11
 542 389 542 389 518 252.5 c 128,-1,12
 494 116 494 116 441 53 c 128,-1,13
 388 -10 388 -10 272 -10 c 0,0,1
283 158 m 128,-1,15
 292 181 292 181 302.5 239 c 128,-1,16
 313 297 313 297 311 321 c 128,-1,17
 309 345 309 345 288 345 c 0,18,19
 275 345 275 345 256 337 c 1,20,-1
 221 139 l 1,21,22
 238 135 238 135 252 135 c 0,23,14
 274 135 274 135 283 158 c 128,-1,15
EndSplineSet
EndChar

StartChar: ydieresis
Encoding: 255 255 192
Width: 531
GlyphClass: 2
Flags: W
LayerCount: 2
Fore
SplineSet
266 225 m 1,0,1
 359 484 359 484 362 490 c 1,2,-1
 572 490 l 1,3,-1
 342 -8 l 2,4,5
 307 -84 307 -84 258 -112 c 128,-1,6
 209 -140 209 -140 107 -140 c 2,7,-1
 -16 -140 l 1,8,-1
 -13 6 l 1,9,-1
 69 6 l 2,10,11
 96 6 96 6 98 24 c 0,12,13
 100 35 100 35 98 52 c 2,14,-1
 41 490 l 1,15,-1
 266 490 l 1,16,-1
 262 225 l 1,17,-1
 266 225 l 1,0,1
148 590 m 0,18,19
 154 623 154 623 177 639.5 c 128,-1,20
 200 656 200 656 236 656 c 0,21,22
 318 656 318 656 307 590 c 0,23,24
 301 555 301 555 278 538.5 c 128,-1,25
 255 522 255 522 213 522 c 0,26,27
 136 522 136 522 148 590 c 0,18,19
339 590 m 0,28,29
 345 623 345 623 368 639.5 c 128,-1,30
 391 656 391 656 426 656 c 0,31,32
 508 656 508 656 497 590 c 0,33,34
 491 555 491 555 468 538.5 c 128,-1,35
 445 522 445 522 403 522 c 0,36,37
 327 522 327 522 339 590 c 0,28,29
EndSplineSet
EndChar

StartChar: hbar
Encoding: 295 295 193
Width: 551
GlyphClass: 2
Flags: W
LayerCount: 2
Fore
SplineSet
406 503 m 0,0,1
 545 503 545 503 522 374 c 2,2,-1
 456 0 l 1,3,-1
 240 0 l 1,4,-1
 296 317 l 2,5,6
 299 333 299 333 282 333.5 c 128,-1,7
 265 334 265 334 243 324 c 1,8,-1
 186 0 l 1,9,-1
 -27 0 l 1,10,-1
 65 518 l 1,11,-1
 34 518 l 1,12,-1
 52 622 l 1,13,-1
 83 622 l 1,14,-1
 89 656 l 1,15,-1
 295 656 l 1,16,-1
 289 622 l 1,17,-1
 364 622 l 1,18,-1
 346 518 l 1,19,-1
 271 518 l 1,20,-1
 260 460 l 1,21,22
 330 503 330 503 406 503 c 0,0,1
EndSplineSet
EndChar

StartChar: Itilde
Encoding: 296 296 194
Width: 310
GlyphClass: 2
Flags: W
LayerCount: 2
Fore
SplineSet
191 0 m 1,0,-1
 -25 0 l 1,1,-1
 87 636 l 1,2,-1
 303 636 l 1,3,-1
 191 0 l 1,0,-1
407 818 m 1,4,-1
 405 806 l 2,5,6
 393 738 393 738 364.5 702.5 c 128,-1,7
 336 667 336 667 270 667 c 0,8,9
 232 667 232 667 162 693 c 1,10,-1
 156 660 l 1,11,-1
 19 660 l 1,12,-1
 22 674 l 2,13,14
 34 743 34 743 63.5 778 c 128,-1,15
 93 813 93 813 151 813 c 0,16,17
 182 813 182 813 265 786 c 1,18,-1
 271 818 l 1,19,-1
 407 818 l 1,4,-1
EndSplineSet
EndChar

StartChar: itilde
Encoding: 297 297 195
Width: 286
GlyphClass: 2
Flags: W
LayerCount: 2
Fore
SplineSet
191 0 m 1,0,-1
 -22 0 l 1,1,-1
 62 480 l 1,2,-1
 275 480 l 1,3,-1
 191 0 l 1,0,-1
383 673 m 1,4,-1
 381 660 l 2,5,6
 369 592 369 592 341 556.5 c 128,-1,7
 313 521 313 521 247 521 c 0,8,9
 209 521 209 521 137 548 c 1,10,-1
 131 515 l 1,11,-1
 -5 515 l 1,12,-1
 -2 528 l 2,13,14
 10 597 10 597 39 632.5 c 128,-1,15
 68 668 68 668 127 668 c 0,16,17
 158 668 158 668 241 641 c 1,18,-1
 246 673 l 1,19,-1
 383 673 l 1,4,-1
EndSplineSet
EndChar

StartChar: dotlessi
Encoding: 305 305 196
Width: 286
GlyphClass: 2
Flags: W
LayerCount: 2
Fore
SplineSet
208 0 m 1,0,-1
 -5 0 l 1,1,-1
 79 480 l 1,2,-1
 292 480 l 1,3,-1
 208 0 l 1,0,-1
EndSplineSet
EndChar

StartChar: IJ
Encoding: 306 306 197
Width: 638
GlyphClass: 2
Flags: W
LayerCount: 2
Fore
SplineSet
208 0 m 1,0,-1
 -8 0 l 1,1,-1
 104 636 l 1,2,-1
 320 636 l 1,3,-1
 208 0 l 1,0,-1
651 636 m 1,4,-1
 562 133 l 2,5,6
 548 51 548 51 500.5 20.5 c 128,-1,7
 453 -10 453 -10 338 -10 c 2,8,-1
 264 -10 l 1,9,-1
 279 141 l 1,10,-1
 330 141 l 2,11,12
 341 141 341 141 345.5 145.5 c 128,-1,13
 350 150 350 150 352 159 c 2,14,-1
 436 636 l 1,15,-1
 651 636 l 1,4,-1
EndSplineSet
EndChar

StartChar: ij
Encoding: 307 307 198
Width: 578
GlyphClass: 2
Flags: W
LayerCount: 2
Fore
SplineSet
569 480 m 1,0,-1
 484 -4 l 2,1,2
 470 -85 470 -85 423.5 -115 c 128,-1,3
 377 -145 377 -145 263 -145 c 2,4,-1
 195 -145 l 1,5,-1
 205 0 l 1,6,-1
 -8 0 l 1,7,-1
 76 480 l 1,8,-1
 289 480 l 1,9,-1
 206 7 l 1,10,-1
 256 7 l 2,11,12
 268 7 268 7 271.5 10 c 128,-1,13
 275 13 275 13 277 23 c 2,14,-1
 357 480 l 1,15,-1
 569 480 l 1,0,-1
91 584 m 0,16,17
 106 671 106 671 215.5 671 c 128,-1,18
 325 671 325 671 310 584 c 0,19,20
 302 539 302 539 271.5 519.5 c 128,-1,21
 241 500 241 500 185.5 500 c 128,-1,22
 130 500 130 500 106.5 519 c 128,-1,23
 83 538 83 538 91 584 c 0,16,17
371 584 m 0,24,25
 386 671 386 671 496 671 c 128,-1,26
 606 671 606 671 591 584 c 0,27,28
 583 539 583 539 552 519.5 c 128,-1,29
 521 500 521 500 466 500 c 128,-1,30
 411 500 411 500 387 519 c 128,-1,31
 363 538 363 538 371 584 c 0,24,25
EndSplineSet
EndChar

StartChar: Jcircumflex
Encoding: 308 308 199
Width: 333
GlyphClass: 2
Flags: W
LayerCount: 2
Fore
SplineSet
331 636 m 1,0,-1
 243 133 l 2,1,2
 229 51 229 51 181 20.5 c 128,-1,3
 133 -10 133 -10 18 -10 c 2,4,-1
 -57 -10 l 1,5,-1
 -41 141 l 1,6,-1
 10 141 l 2,7,8
 21 141 21 141 26 145.5 c 128,-1,9
 31 150 31 150 32 159 c 2,10,-1
 116 636 l 1,11,-1
 331 636 l 1,0,-1
340 803 m 1,12,-1
 396 669 l 1,13,-1
 262 669 l 1,14,-1
 235 722 l 1,15,-1
 189 669 l 1,16,-1
 54 669 l 1,17,-1
 158 803 l 1,18,-1
 340 803 l 1,12,-1
EndSplineSet
EndChar

StartChar: jcircumflex
Encoding: 309 309 200
Width: 291
GlyphClass: 2
Flags: W
LayerCount: 2
Fore
SplineSet
295 480 m 1,0,-1
 210 -4 l 2,1,2
 196 -85 196 -85 149 -115 c 128,-1,3
 102 -145 102 -145 -12 -145 c 2,4,-1
 -79 -145 l 1,5,-1
 -70 7 l 1,6,-1
 -18 7 l 2,7,8
 -6 7 -6 7 -2.5 10 c 128,-1,9
 1 13 1 13 3 23 c 2,10,-1
 83 480 l 1,11,-1
 295 480 l 1,0,-1
309 657 m 1,12,-1
 364 523 l 1,13,-1
 230 523 l 1,14,-1
 204 577 l 1,15,-1
 158 523 l 1,16,-1
 22 523 l 1,17,-1
 126 657 l 1,18,-1
 309 657 l 1,12,-1
EndSplineSet
EndChar

StartChar: kcommaaccent
Encoding: 311 311 201
Width: 526
GlyphClass: 2
Flags: W
LayerCount: 2
Fore
SplineSet
492 0 m 1,0,-1
 261 0 l 1,1,-1
 230 161 l 1,2,-1
 226 161 l 1,3,-1
 198 0 l 1,4,-1
 -12 0 l 1,5,-1
 104 656 l 1,6,-1
 314 656 l 1,7,-1
 254 318 l 1,8,-1
 258 318 l 1,9,-1
 359 490 l 1,10,-1
 582 490 l 1,11,-1
 423 236 l 1,12,13
 435 194 435 194 458.5 114.5 c 128,-1,14
 482 35 482 35 492 0 c 1,0,-1
222 -10 m 0,15,16
 261 -10 261 -10 280.5 -27.5 c 128,-1,17
 300 -45 300 -45 295 -76 c 0,18,19
 285 -133 285 -133 195 -168 c 1,20,-1
 120 -159 l 1,21,-1
 171 -116 l 1,22,23
 122 -107 122 -107 128 -67 c 0,24,25
 138 -10 138 -10 222 -10 c 0,15,16
EndSplineSet
EndChar

StartChar: kgreenlandic
Encoding: 312 312 202
Width: 531
GlyphClass: 2
Flags: W
LayerCount: 2
Fore
SplineSet
492 0 m 1,0,-1
 269 0 l 1,1,-1
 236 174 l 1,2,-1
 232 174 l 1,3,-1
 202 0 l 1,4,-1
 -13 0 l 1,5,-1
 73 490 l 1,6,-1
 288 490 l 1,7,-1
 254 295 l 1,8,-1
 258 295 l 1,9,10
 324 409 324 409 342 426 c 128,-1,11
 360 443 360 443 379 461 c 0,12,13
 429 503 429 503 525 503 c 2,14,-1
 556 503 l 1,15,-1
 515 307 l 1,16,17
 490 307 490 307 474.5 295.5 c 128,-1,18
 459 284 459 284 434 250 c 1,19,-1
 492 0 l 1,0,-1
EndSplineSet
EndChar

StartChar: Ldotaccent
Encoding: 319 319 203
Width: 497
GlyphClass: 2
Flags: W
LayerCount: 2
Fore
SplineSet
367 0 m 1,0,-1
 -15 0 l 1,1,-1
 97 636 l 1,2,-1
 316 636 l 1,3,-1
 233 165 l 1,4,-1
 410 165 l 1,5,-1
 367 0 l 1,0,-1
293 341 m 0,6,7
 308 428 308 428 417.5 428 c 128,-1,8
 527 428 527 428 512 341 c 0,9,10
 504 296 504 296 473.5 276.5 c 128,-1,11
 443 257 443 257 387.5 257 c 128,-1,12
 332 257 332 257 308.5 276 c 128,-1,13
 285 295 285 295 293 341 c 0,6,7
EndSplineSet
EndChar

StartChar: ldot
Encoding: 320 320 204
Width: 527
GlyphClass: 2
Flags: W
LayerCount: 2
Fore
SplineSet
-2 127 m 2,0,-1
 92 656 l 1,1,-1
 302 656 l 1,2,-1
 217 174 l 2,3,4
 212 146 212 146 250 146 c 1,5,-1
 206 -10 l 1,6,-1
 122 -10 l 2,7,8
 -26 -10 -26 -10 -2 127 c 2,0,-1
274 312 m 0,9,10
 290 405 290 405 411 406 c 0,11,12
 472 406 472 406 497 383.5 c 128,-1,13
 522 361 522 361 513 311 c 128,-1,14
 504 261 504 261 472.5 240 c 128,-1,15
 441 219 441 219 379 219 c 128,-1,16
 317 219 317 219 291 240.5 c 128,-1,17
 265 262 265 262 274 312 c 0,9,10
EndSplineSet
EndChar

StartChar: Lslash
Encoding: 321 321 205
Width: 431
GlyphClass: 2
Flags: W
LayerCount: 2
Fore
SplineSet
375 0 m 1,0,-1
 -7 0 l 1,1,-1
 21 159 l 1,2,-1
 -24 134 l 1,3,-1
 4 295 l 1,4,-1
 49 319 l 1,5,-1
 105 636 l 1,6,-1
 324 636 l 1,7,-1
 292 452 l 1,8,-1
 346 481 l 1,9,-1
 318 322 l 1,10,-1
 263 292 l 1,11,-1
 241 165 l 1,12,-1
 418 165 l 1,13,-1
 375 0 l 1,0,-1
EndSplineSet
EndChar

StartChar: lslash
Encoding: 322 322 206
Width: 292
GlyphClass: 2
Flags: W
LayerCount: 2
Fore
SplineSet
-2 127 m 2,0,-1
 7 174 l 1,1,-1
 -30 155 l 1,2,-1
 -1 315 l 1,3,-1
 35 335 l 1,4,-1
 92 656 l 1,5,-1
 302 656 l 1,6,-1
 268 462 l 1,7,-1
 308 484 l 1,8,-1
 280 325 l 1,9,-1
 239 302 l 1,10,-1
 217 174 l 2,11,12
 212 146 212 146 250 146 c 1,13,-1
 206 -10 l 1,14,-1
 122 -10 l 2,15,16
 -26 -10 -26 -10 -2 127 c 2,0,-1
EndSplineSet
EndChar

StartChar: Nacute
Encoding: 323 323 207
Width: 621
GlyphClass: 2
Flags: W
LayerCount: 2
Fore
SplineSet
510 0 m 1,0,-1
 301 0 l 1,1,-1
 216 251 l 1,2,-1
 209 251 l 1,3,-1
 165 0 l 1,4,-1
 -30 0 l 1,5,-1
 82 636 l 1,6,-1
 298 636 l 1,7,-1
 373 377 l 1,8,-1
 379 377 l 1,9,-1
 425 636 l 1,10,-1
 622 636 l 1,11,-1
 510 0 l 1,0,-1
575 808 m 1,12,-1
 409 675 l 1,13,-1
 267 675 l 1,14,-1
 356 808 l 1,15,-1
 575 808 l 1,12,-1
EndSplineSet
EndChar

StartChar: nacute
Encoding: 324 324 208
Width: 544
GlyphClass: 2
Flags: W
LayerCount: 2
Fore
SplineSet
401 503 m 0,0,1
 544 503 544 503 520 364 c 2,2,-1
 456 0 l 1,3,-1
 240 0 l 1,4,-1
 295 317 l 2,5,6
 298 333 298 333 281 333.5 c 128,-1,7
 264 334 264 334 243 324 c 1,8,-1
 186 0 l 1,9,-1
 -27 0 l 1,10,-1
 59 490 l 1,11,-1
 252 490 l 1,12,-1
 252 459 l 1,13,14
 325 503 325 503 401 503 c 0,0,1
524 663 m 1,15,-1
 359 529 l 1,16,-1
 216 529 l 1,17,-1
 305 663 l 1,18,-1
 524 663 l 1,15,-1
EndSplineSet
EndChar

StartChar: OE
Encoding: 338 338 209
Width: 813
GlyphClass: 2
Flags: W
LayerCount: 2
Fore
SplineSet
731 0 m 1,0,-1
 353 0 l 1,1,2
 302 -10 302 -10 251 -10 c 0,3,4
 98 -10 98 -10 44.5 71 c 128,-1,5
 -9 152 -9 152 21 322.5 c 128,-1,6
 51 493 51 493 133 569.5 c 128,-1,7
 215 646 215 646 371 646 c 0,8,9
 424 646 424 646 472 636 c 1,10,-1
 858 636 l 1,11,-1
 813 467 l 1,12,-1
 627 467 l 1,13,-1
 614 390 l 1,14,-1
 777 390 l 1,15,-1
 751 243 l 1,16,-1
 588 243 l 1,17,-1
 572 156 l 1,18,-1
 773 156 l 1,19,-1
 731 0 l 1,0,-1
388 452.5 m 128,-1,21
 376 470 376 470 335.5 470 c 128,-1,22
 295 470 295 470 278.5 444.5 c 128,-1,23
 262 419 262 419 247 335 c 2,24,-1
 239 290 l 2,25,26
 224 204 224 204 232.5 178.5 c 128,-1,27
 241 153 241 153 282 153 c 128,-1,28
 323 153 323 153 339 168 c 128,-1,29
 355 183 355 183 366 230 c 2,30,-1
 394 384 l 2,31,20
 400 435 400 435 388 452.5 c 128,-1,21
EndSplineSet
EndChar

StartChar: oe
Encoding: 339 339 210
Width: 793
GlyphClass: 2
Flags: W
LayerCount: 2
Fore
SplineSet
309 503 m 0,0,1
 397 503 397 503 447 474 c 1,2,3
 509 503 509 503 593 503 c 0,4,5
 716 503 716 503 759.5 451.5 c 128,-1,6
 803 400 803 400 786 305 c 0,7,8
 780 273 780 273 758 190 c 1,9,-1
 501 190 l 1,10,11
 495 134 495 134 558 134 c 0,12,13
 607 134 607 134 718 157 c 1,14,-1
 712 18 l 1,15,16
 598 -11 598 -11 511.5 -10.5 c 128,-1,17
 425 -10 425 -10 372 20 c 1,18,19
 312 -11 312 -11 219 -10 c 0,20,21
 89 -10 89 -10 40.5 51.5 c 128,-1,22
 -8 113 -8 113 15.5 247.5 c 128,-1,23
 39 382 39 382 109.5 442.5 c 128,-1,24
 180 503 180 503 309 503 c 0,0,1
281.5 352 m 128,-1,26
 260 352 260 352 250.5 334 c 128,-1,27
 241 316 241 316 231 258 c 2,28,-1
 227 233 l 2,29,30
 215 167 215 167 218 148.5 c 128,-1,31
 221 130 221 130 242.5 130 c 128,-1,32
 264 130 264 130 272.5 149 c 128,-1,33
 281 168 281 168 292 228 c 2,34,-1
 297 257 l 2,35,36
 307 316 307 316 305 334 c 128,-1,25
 303 352 303 352 281.5 352 c 128,-1,26
561 338 m 0,37,38
 523 338 523 338 514 284 c 1,39,-1
 588 284 l 1,40,-1
 590 299 l 2,41,42
 597 338 597 338 561 338 c 0,37,38
EndSplineSet
EndChar

StartChar: Racute
Encoding: 340 340 211
Width: 576
GlyphClass: 2
Flags: W
LayerCount: 2
Fore
SplineSet
549 431 m 0,0,1
 538 370 538 370 511.5 333.5 c 128,-1,2
 485 297 485 297 438 269 c 1,3,-1
 486 0 l 1,4,-1
 260 0 l 1,5,-1
 234 219 l 1,6,-1
 218 219 l 1,7,-1
 180 0 l 1,8,-1
 -30 0 l 1,9,-1
 82 636 l 1,10,-1
 353 636 l 2,11,12
 472 636 472 636 520 586 c 128,-1,13
 568 536 568 536 549 431 c 0,0,1
297 358 m 128,-1,15
 309 372 309 372 315.5 406.5 c 128,-1,16
 322 441 322 441 314 454.5 c 128,-1,17
 306 468 306 468 284 468 c 2,18,-1
 258 468 l 1,19,-1
 236 344 l 1,20,-1
 261 344 l 2,21,14
 285 344 285 344 297 358 c 128,-1,15
523 808 m 1,22,-1
 357 675 l 1,23,-1
 215 675 l 1,24,-1
 303 808 l 1,25,-1
 523 808 l 1,22,-1
EndSplineSet
EndChar

StartChar: Rcommaaccent
Encoding: 342 342 212
Width: 576
GlyphClass: 2
Flags: W
LayerCount: 2
Fore
SplineSet
579 431 m 0,0,1
 568 370 568 370 541.5 333.5 c 128,-1,2
 515 297 515 297 468 269 c 1,3,-1
 516 0 l 1,4,-1
 290 0 l 1,5,-1
 264 219 l 1,6,-1
 248 219 l 1,7,-1
 210 0 l 1,8,-1
 -0 0 l 1,9,-1
 112 636 l 1,10,-1
 383 636 l 2,11,12
 502 636 502 636 550 586 c 128,-1,13
 598 536 598 536 579 431 c 0,0,1
327 358 m 128,-1,15
 339 372 339 372 345.5 406.5 c 128,-1,16
 352 441 352 441 344 454.5 c 128,-1,17
 336 468 336 468 314 468 c 2,18,-1
 288 468 l 1,19,-1
 266 344 l 1,20,-1
 291 344 l 2,21,14
 315 344 315 344 327 358 c 128,-1,15
255 -10 m 0,22,23
 294 -10 294 -10 313.5 -27.5 c 128,-1,24
 333 -45 333 -45 327 -76 c 0,25,26
 317 -133 317 -133 228 -168 c 1,27,-1
 153 -159 l 1,28,-1
 203 -116 l 1,29,30
 154 -107 154 -107 161 -67 c 0,31,32
 171 -10 171 -10 255 -10 c 0,22,23
EndSplineSet
EndChar

StartChar: rcommaaccent
Encoding: 343 343 213
Width: 387
GlyphClass: 2
Flags: W
LayerCount: 2
Fore
SplineSet
263 274 m 2,0,-1
 215 0 l 1,1,-1
 4 0 l 1,2,-1
 90 490 l 1,3,-1
 272 490 l 1,4,-1
 273 458 l 1,5,-1
 277 458 l 1,6,7
 306 481 306 481 339 489.5 c 128,-1,8
 372 498 372 498 434 498 c 1,9,-1
 398 328 l 1,10,-1
 328 328 l 2,11,12
 297 328 297 328 282.5 316.5 c 128,-1,13
 268 305 268 305 263 274 c 2,0,-1
142 -10 m 0,14,15
 181 -10 181 -10 200.5 -27.5 c 128,-1,16
 220 -45 220 -45 215 -76 c 0,17,18
 205 -133 205 -133 115 -168 c 1,19,-1
 40 -159 l 1,20,-1
 90 -116 l 1,21,22
 41 -107 41 -107 48 -67 c 0,23,24
 58 -10 58 -10 142 -10 c 0,14,15
EndSplineSet
EndChar

StartChar: Rcaron
Encoding: 344 344 214
Width: 576
GlyphClass: 2
Flags: W
LayerCount: 2
Fore
SplineSet
549 431 m 0,0,1
 538 370 538 370 511.5 333.5 c 128,-1,2
 485 297 485 297 438 269 c 1,3,-1
 486 0 l 1,4,-1
 260 0 l 1,5,-1
 234 219 l 1,6,-1
 218 219 l 1,7,-1
 180 0 l 1,8,-1
 -30 0 l 1,9,-1
 82 636 l 1,10,-1
 353 636 l 2,11,12
 472 636 472 636 520 586 c 128,-1,13
 568 536 568 536 549 431 c 0,0,1
297.5 358 m 128,-1,15
 309 372 309 372 315.5 406.5 c 128,-1,16
 322 441 322 441 314 454.5 c 128,-1,17
 306 468 306 468 284 468 c 2,18,-1
 258 468 l 1,19,-1
 237 344 l 1,20,-1
 262 344 l 2,21,14
 286 344 286 344 297.5 358 c 128,-1,15
212 673 m 1,22,-1
 155 807 l 1,23,-1
 289 807 l 1,24,-1
 316 754 l 1,25,-1
 362 807 l 1,26,-1
 497 807 l 1,27,-1
 394 673 l 1,28,-1
 212 673 l 1,22,-1
EndSplineSet
EndChar

StartChar: rcaron
Encoding: 345 345 215
Width: 387
GlyphClass: 2
Flags: W
LayerCount: 2
Fore
SplineSet
234 274 m 2,0,-1
 186 0 l 1,1,-1
 -25 0 l 1,2,-1
 61 490 l 1,3,-1
 243 490 l 1,4,-1
 243 458 l 1,5,-1
 247 458 l 1,6,7
 276 481 276 481 309 489.5 c 128,-1,8
 342 498 342 498 404 498 c 1,9,-1
 368 328 l 1,10,-1
 298 328 l 2,11,12
 267 328 267 328 253 316.5 c 128,-1,13
 239 305 239 305 234 274 c 2,0,-1
137 527 m 1,14,-1
 81 662 l 1,15,-1
 215 662 l 1,16,-1
 242 608 l 1,17,-1
 287 662 l 1,18,-1
 423 662 l 1,19,-1
 320 527 l 1,20,-1
 137 527 l 1,14,-1
EndSplineSet
EndChar

StartChar: Scaron
Encoding: 352 352 216
Width: 498
GlyphClass: 2
Flags: W
LayerCount: 2
Fore
SplineSet
105.5 590 m 128,-1,1
 177 646 177 646 286 646 c 128,-1,2
 395 646 395 646 507 626 c 1,3,-1
 451 445 l 1,4,5
 328 471 328 471 288 471 c 128,-1,6
 248 471 248 471 244 446 c 0,7,8
 242 437 242 437 248 433.5 c 128,-1,9
 254 430 254 430 256.5 428 c 128,-1,10
 259 426 259 426 267 423 c 128,-1,11
 275 420 275 420 280.5 417.5 c 128,-1,12
 286 415 286 415 315 402 c 128,-1,13
 344 389 344 389 358.5 381.5 c 128,-1,14
 373 374 373 374 397 356 c 0,15,16
 468 304 468 304 450 202.5 c 128,-1,17
 432 101 432 101 361.5 45.5 c 128,-1,18
 291 -10 291 -10 178 -10 c 128,-1,19
 65 -10 65 -10 -38 17 c 1,20,-1
 6 190 l 1,21,22
 137 155 137 155 185 156 c 0,23,24
 217 156 217 156 221 178 c 0,25,26
 223 188 223 188 216.5 194.5 c 128,-1,27
 210 201 210 201 196.5 208 c 128,-1,28
 183 215 183 215 156.5 227 c 128,-1,29
 130 239 130 239 112 247.5 c 128,-1,30
 94 256 94 256 71 274 c 0,31,32
 -2 330 -2 330 16 432 c 128,-1,0
 34 534 34 534 105.5 590 c 128,-1,1
202 665 m 1,33,-1
 149 793 l 1,34,-1
 276 793 l 1,35,-1
 302 741 l 1,36,-1
 345 793 l 1,37,-1
 473 793 l 1,38,-1
 375 665 l 1,39,-1
 202 665 l 1,33,-1
EndSplineSet
EndChar

StartChar: scaron
Encoding: 353 353 217
Width: 412
GlyphClass: 2
Flags: W
LayerCount: 2
Fore
SplineSet
376 153 m 0,0,1
 347 -10 347 -10 158 -10 c 0,2,3
 60 -10 60 -10 -29 11 c 1,4,-1
 11 162 l 1,5,6
 134 131 134 131 176 131 c 0,7,8
 190 131 190 131 191.5 140.5 c 128,-1,9
 193 150 193 150 178 156 c 0,10,11
 79 192 79 192 37.5 231.5 c 128,-1,12
 -4 271 -4 271 9.5 346 c 128,-1,13
 23 421 23 421 83 462 c 128,-1,14
 143 503 143 503 232.5 503 c 128,-1,15
 322 503 322 503 426 482 c 1,16,-1
 377 328 l 1,17,18
 247 355 247 355 218 354 c 0,19,20
 205 354 205 354 203 344 c 0,21,22
 202 336 202 336 218 330 c 0,23,24
 298 302 298 302 331 275 c 128,-1,25
 364 248 364 248 373.5 219.5 c 128,-1,26
 383 191 383 191 376 153 c 0,0,1
148 527 m 1,27,-1
 92 662 l 1,28,-1
 226 662 l 1,29,-1
 253 608 l 1,30,-1
 299 662 l 1,31,-1
 434 662 l 1,32,-1
 330 527 l 1,33,-1
 148 527 l 1,27,-1
EndSplineSet
EndChar

StartChar: Ydieresis
Encoding: 376 376 218
Width: 548
GlyphClass: 2
Flags: W
LayerCount: 2
Fore
SplineSet
591 636 m 1,0,-1
 346 202 l 1,1,-1
 311 0 l 1,2,-1
 93 0 l 1,3,-1
 128 203 l 1,4,-1
 42 636 l 1,5,-1
 272 636 l 1,6,-1
 276 402 l 1,7,-1
 283 402 l 1,8,-1
 367 636 l 1,9,-1
 591 636 l 1,0,-1
170 734 m 128,-1,11
 181 798 181 798 256 798 c 128,-1,12
 331 798 331 798 320 734 c 128,-1,13
 309 670 309 670 234 670 c 128,-1,10
 159 670 159 670 170 734 c 128,-1,11
351 734 m 128,-1,15
 362 798 362 798 437 798 c 128,-1,16
 512 798 512 798 501 734 c 128,-1,17
 490 670 490 670 415 670 c 128,-1,14
 340 670 340 670 351 734 c 128,-1,15
EndSplineSet
EndChar

StartChar: Zcaron
Encoding: 381 381 219
Width: 545
GlyphClass: 2
Flags: W
LayerCount: 2
Fore
SplineSet
460 0 m 1,0,-1
 -21 0 l 1,1,-1
 -9 110 l 1,2,-1
 250 461 l 1,3,-1
 38 461 l 1,4,-1
 57 636 l 1,5,-1
 556 636 l 1,6,-1
 544 528 l 1,7,-1
 296 163 l 1,8,-1
 489 163 l 1,9,-1
 460 0 l 1,0,-1
240 665 m 1,10,-1
 187 793 l 1,11,-1
 314 793 l 1,12,-1
 340 741 l 1,13,-1
 383 793 l 1,14,-1
 511 793 l 1,15,-1
 413 665 l 1,16,-1
 240 665 l 1,10,-1
EndSplineSet
EndChar

StartChar: zcaron
Encoding: 382 382 220
Width: 456
GlyphClass: 2
Flags: W
LayerCount: 2
Fore
SplineSet
386 0 m 1,0,-1
 -43 0 l 1,1,-1
 -28 116 l 1,2,-1
 171 330 l 1,3,-1
 5 330 l 1,4,-1
 33 490 l 1,5,-1
 462 490 l 1,6,-1
 449 383 l 1,7,-1
 253 153 l 1,8,-1
 413 153 l 1,9,-1
 386 0 l 1,0,-1
166 527 m 1,10,-1
 109 662 l 1,11,-1
 243 662 l 1,12,-1
 270 608 l 1,13,-1
 316 662 l 1,14,-1
 451 662 l 1,15,-1
 348 527 l 1,16,-1
 166 527 l 1,10,-1
EndSplineSet
EndChar

StartChar: florin
Encoding: 402 402 221
Width: 432
GlyphClass: 2
Flags: W
LayerCount: 2
Fore
SplineSet
-42 18 m 1,0,1
 0 11 0 11 11 11 c 128,-1,2
 22 11 22 11 25 19 c 2,3,-1
 105 322 l 1,4,-1
 41 322 l 1,5,-1
 73 435 l 1,6,-1
 134 435 l 1,7,-1
 152 494 l 2,8,9
 175 576 175 576 223.5 616 c 128,-1,10
 272 656 272 656 360 656 c 0,11,12
 408 656 408 656 483 645 c 1,13,-1
 430 472 l 1,14,-1
 371 481 l 2,15,16
 364 481 364 481 360 470 c 2,17,-1
 350 435 l 1,18,-1
 421 435 l 1,19,-1
 389 322 l 1,20,-1
 320 322 l 1,21,-1
 237 9 l 2,22,23
 215 -73 215 -73 164.5 -112 c 128,-1,24
 114 -151 114 -151 27 -151 c 0,25,26
 -16 -151 -16 -151 -79 -139 c 1,27,-1
 -42 18 l 1,0,1
EndSplineSet
EndChar

StartChar: circumflex
Encoding: 710 710 222
Width: 512
GlyphClass: 2
Flags: W
LayerCount: 2
Fore
SplineSet
359 657 m 1,0,-1
 415 523 l 1,1,-1
 281 523 l 1,2,-1
 255 577 l 1,3,-1
 208 523 l 1,4,-1
 73 523 l 1,5,-1
 177 657 l 1,6,-1
 359 657 l 1,0,-1
EndSplineSet
EndChar

StartChar: caron
Encoding: 711 711 223
Width: 512
GlyphClass: 2
Flags: W
LayerCount: 2
Fore
SplineSet
153 527 m 1,0,-1
 97 662 l 1,1,-1
 231 662 l 1,2,-1
 257 608 l 1,3,-1
 304 662 l 1,4,-1
 439 662 l 1,5,-1
 335 527 l 1,6,-1
 153 527 l 1,0,-1
EndSplineSet
EndChar

StartChar: breve
Encoding: 728 728 224
Width: 512
GlyphClass: 2
Flags: W
LayerCount: 2
Fore
SplineSet
264 629 m 0,0,1
 288 629 288 629 297 676 c 1,2,-1
 435 676 l 1,3,4
 402 510 402 510 239.5 510 c 128,-1,5
 77 510 77 510 107 676 c 1,6,-1
 247 676 l 1,7,8
 238 629 238 629 264 629 c 0,0,1
EndSplineSet
EndChar

StartChar: dotaccent
Encoding: 729 729 225
Width: 512
GlyphClass: 2
Flags: W
LayerCount: 2
Fore
SplineSet
158 584 m 0,0,1
 173 671 173 671 282.5 671 c 128,-1,2
 392 671 392 671 377 584 c 0,3,4
 369 539 369 539 338.5 519.5 c 128,-1,5
 308 500 308 500 252.5 500 c 128,-1,6
 197 500 197 500 173.5 519 c 128,-1,7
 150 538 150 538 158 584 c 0,0,1
EndSplineSet
EndChar

StartChar: ring
Encoding: 730 730 226
Width: 512
GlyphClass: 2
Flags: W
LayerCount: 2
Fore
SplineSet
264.5 629 m 128,-1,1
 244 629 244 629 239 601 c 128,-1,2
 234 573 234 573 254.5 573 c 128,-1,3
 275 573 275 573 280 601 c 128,-1,0
 285 629 285 629 264.5 629 c 128,-1,1
155 598 m 0,4,5
 170 684 170 684 275 684 c 128,-1,6
 380 684 380 684 365 603 c 0,7,8
 350 517 350 517 244 517 c 0,9,10
 193 517 193 517 170.5 538.5 c 128,-1,11
 148 560 148 560 155 598 c 0,4,5
EndSplineSet
EndChar

StartChar: ogonek
Encoding: 731 731 227
Width: 583
GlyphClass: 2
Flags: W
LayerCount: 2
Fore
SplineSet
177 -98 m 0,0,1
 186 -48 186 -48 262 0 c 1,2,-1
 373 0 l 1,3,4
 308 -57 308 -57 304 -79 c 0,5,6
 303 -84 303 -84 313 -84 c 128,-1,7
 323 -84 323 -84 359 -65 c 1,8,-1
 377 -136 l 1,9,10
 320 -172 320 -172 257 -172 c 0,11,12
 164 -172 164 -172 177 -98 c 0,0,1
EndSplineSet
EndChar

StartChar: tilde
Encoding: 732 732 228
Width: 512
GlyphClass: 2
Flags: W
LayerCount: 2
Fore
SplineSet
457 673 m 1,0,-1
 455 660 l 2,1,2
 443 592 443 592 414.5 556.5 c 128,-1,3
 386 521 386 521 321 521 c 0,4,5
 283 521 283 521 212 548 c 1,6,-1
 206 515 l 1,7,-1
 70 515 l 1,8,-1
 72 528 l 2,9,10
 84 597 84 597 113.5 632.5 c 128,-1,11
 143 668 143 668 201 668 c 0,12,13
 232 668 232 668 315 641 c 1,14,-1
 321 673 l 1,15,-1
 457 673 l 1,0,-1
EndSplineSet
EndChar

StartChar: hungarumlaut
Encoding: 733 733 229
Width: 512
GlyphClass: 2
Flags: W
LayerCount: 2
Fore
SplineSet
322 672 m 1,0,-1
 165 532 l 1,1,-1
 51 532 l 1,2,-1
 157 672 l 1,3,-1
 322 672 l 1,0,-1
525 672 m 1,4,-1
 352 532 l 1,5,-1
 237 532 l 1,6,-1
 350 672 l 1,7,-1
 525 672 l 1,4,-1
EndSplineSet
EndChar

StartChar: dotaccentcmb
Encoding: 775 775 230
Width: 512
GlyphClass: 2
Flags: W
LayerCount: 2
Fore
SplineSet
145 584 m 0,0,1
 160 671 160 671 270 671 c 128,-1,2
 380 671 380 671 365 584 c 0,3,4
 357 539 357 539 326 519.5 c 128,-1,5
 295 500 295 500 240 500 c 128,-1,6
 185 500 185 500 161 519 c 128,-1,7
 137 538 137 538 145 584 c 0,0,1
EndSplineSet
EndChar

StartChar: Delta
Encoding: 916 916 231
AltUni2: 002206.ffffffff.0 002206.ffffffff.0
Width: 576
GlyphClass: 2
Flags: W
LayerCount: 2
Fore
SplineSet
-56 0 m 1,0,-1
 188 636 l 1,1,-1
 500 636 l 1,2,-1
 521 0 l 1,3,-1
 -56 0 l 1,0,-1
216 184 m 1,4,-1
 309 184 l 1,5,-1
 308 437 l 1,6,-1
 303 437 l 1,7,-1
 216 184 l 1,4,-1
EndSplineSet
EndChar

StartChar: Omega
Encoding: 937 937 232
AltUni2: 002126.ffffffff.0 002126.ffffffff.0
Width: 646
GlyphClass: 2
Flags: W
LayerCount: 2
Fore
SplineSet
380 646 m 0,0,1
 668 646 668 646 616 356 c 0,2,3
 604 286 604 286 576.5 238.5 c 128,-1,4
 549 191 549 191 500 153 c 1,5,-1
 499 148 l 1,6,-1
 582 148 l 1,7,-1
 556 0 l 1,8,-1
 276 0 l 1,9,-1
 300 138 l 1,10,11
 367 194 367 194 391 329 c 0,12,13
 405 411 405 411 397.5 440.5 c 128,-1,14
 390 470 390 470 345.5 470 c 128,-1,15
 301 470 301 470 284 441 c 128,-1,16
 267 412 267 412 252 330 c 0,17,18
 229 197 229 197 278 138 c 1,19,-1
 254 0 l 1,20,-1
 -22 0 l 1,21,-1
 4 148 l 1,22,-1
 81 148 l 1,23,-1
 83 156 l 1,24,25
 17 229 17 229 42 375 c 0,26,27
 90 646 90 646 380 646 c 0,0,1
EndSplineSet
EndChar

StartChar: pi
Encoding: 960 960 233
Width: 570
GlyphClass: 2
Flags: W
LayerCount: 2
Fore
SplineSet
484 0 m 1,0,-1
 268 0 l 1,1,-1
 327 335 l 1,2,-1
 273 335 l 1,3,-1
 214 0 l 1,4,-1
 1 0 l 1,5,-1
 60 335 l 1,6,-1
 16 335 l 1,7,-1
 43 490 l 1,8,-1
 613 490 l 1,9,-1
 586 335 l 1,10,-1
 543 335 l 1,11,-1
 484 0 l 1,0,-1
EndSplineSet
EndChar

StartChar: endash
Encoding: 8211 8211 234
Width: 416
GlyphClass: 2
Flags: W
LayerCount: 2
Fore
SplineSet
18 171 m 1,0,-1
 48 337 l 1,1,-1
 399 337 l 1,2,-1
 369 171 l 1,3,-1
 18 171 l 1,0,-1
EndSplineSet
EndChar

StartChar: emdash
Encoding: 8212 8212 235
Width: 614
GlyphClass: 2
Flags: W
LayerCount: 2
Fore
SplineSet
18 171 m 1,0,-1
 48 337 l 1,1,-1
 597 337 l 1,2,-1
 567 171 l 1,3,-1
 18 171 l 1,0,-1
EndSplineSet
EndChar

StartChar: quoteleft
Encoding: 8216 8216 236
Width: 276
GlyphClass: 2
Flags: W
LayerCount: 2
Fore
SplineSet
186 421 m 128,-1,1
 157 401 157 401 102.5 401 c 128,-1,2
 48 401 48 401 29 425 c 128,-1,3
 10 449 10 449 19.5 502.5 c 128,-1,4
 29 556 29 556 68.5 595.5 c 128,-1,5
 108 635 108 635 175 671 c 1,6,-1
 261 657 l 1,7,-1
 174 562 l 1,8,9
 207 555 207 555 218.5 538.5 c 128,-1,10
 230 522 230 522 222.5 481.5 c 128,-1,0
 215 441 215 441 186 421 c 128,-1,1
EndSplineSet
EndChar

StartChar: quoteright
Encoding: 8217 8217 237
Width: 276
GlyphClass: 2
Flags: W
LayerCount: 2
Fore
SplineSet
90 651 m 128,-1,1
 119 671 119 671 174 671 c 128,-1,2
 229 671 229 671 248.5 648 c 128,-1,3
 268 625 268 625 258 570.5 c 128,-1,4
 248 516 248 516 208 476.5 c 128,-1,5
 168 437 168 437 102 401 c 1,6,-1
 16 415 l 1,7,-1
 103 510 l 1,8,9
 70 517 70 517 58 533.5 c 128,-1,10
 46 550 46 550 53.5 590.5 c 128,-1,0
 61 631 61 631 90 651 c 128,-1,1
EndSplineSet
EndChar

StartChar: quotesinglbase
Encoding: 8218 8218 238
Width: 276
GlyphClass: 2
Flags: W
LayerCount: 2
Fore
SplineSet
78 132 m 128,-1,1
 107 152 107 152 162 152 c 128,-1,2
 217 152 217 152 236 128 c 128,-1,3
 255 104 255 104 245.5 50.5 c 128,-1,4
 236 -3 236 -3 196 -42.5 c 128,-1,5
 156 -82 156 -82 90 -118 c 1,6,-1
 4 -104 l 1,7,-1
 90 -9 l 1,8,9
 57 -2 57 -2 45.5 14.5 c 128,-1,10
 34 31 34 31 41.5 71.5 c 128,-1,0
 49 112 49 112 78 132 c 128,-1,1
EndSplineSet
EndChar

StartChar: quotedblleft
Encoding: 8220 8220 239
Width: 499
GlyphClass: 2
Flags: W
LayerCount: 2
Fore
SplineSet
409.5 421 m 128,-1,1
 380 401 380 401 325.5 401 c 128,-1,2
 271 401 271 401 252 425 c 128,-1,3
 233 449 233 449 242.5 502.5 c 128,-1,4
 252 556 252 556 291.5 595.5 c 128,-1,5
 331 635 331 635 398 671 c 1,6,-1
 484 657 l 1,7,-1
 397 562 l 1,8,9
 430 555 430 555 442 538.5 c 128,-1,10
 454 522 454 522 446.5 481.5 c 128,-1,0
 439 441 439 441 409.5 421 c 128,-1,1
186 421 m 128,-1,12
 157 401 157 401 102.5 401 c 128,-1,13
 48 401 48 401 29 425 c 128,-1,14
 10 449 10 449 19.5 502.5 c 128,-1,15
 29 556 29 556 68.5 595.5 c 128,-1,16
 108 635 108 635 175 671 c 1,17,-1
 261 657 l 1,18,-1
 174 562 l 1,19,20
 207 555 207 555 218.5 538.5 c 128,-1,21
 230 522 230 522 222.5 481.5 c 128,-1,11
 215 441 215 441 186 421 c 128,-1,12
EndSplineSet
EndChar

StartChar: quotedblright
Encoding: 8221 8221 240
Width: 499
GlyphClass: 2
Flags: W
LayerCount: 2
Fore
SplineSet
90 651 m 128,-1,1
 119 671 119 671 174 671 c 128,-1,2
 229 671 229 671 248.5 648 c 128,-1,3
 268 625 268 625 258 570.5 c 128,-1,4
 248 516 248 516 208 476.5 c 128,-1,5
 168 437 168 437 102 401 c 1,6,-1
 16 415 l 1,7,-1
 103 510 l 1,8,9
 70 517 70 517 58 533.5 c 128,-1,10
 46 550 46 550 53.5 590.5 c 128,-1,0
 61 631 61 631 90 651 c 128,-1,1
313 651 m 128,-1,12
 342 671 342 671 397 671 c 128,-1,13
 452 671 452 671 471.5 648 c 128,-1,14
 491 625 491 625 481 570.5 c 128,-1,15
 471 516 471 516 431.5 476.5 c 128,-1,16
 392 437 392 437 325 401 c 1,17,-1
 239 415 l 1,18,-1
 326 510 l 1,19,20
 293 517 293 517 281 533.5 c 128,-1,21
 269 550 269 550 276.5 590.5 c 128,-1,11
 284 631 284 631 313 651 c 128,-1,12
EndSplineSet
EndChar

StartChar: quotedblbase
Encoding: 8222 8222 241
Width: 499
GlyphClass: 2
Flags: W
LayerCount: 2
Fore
SplineSet
78 132 m 128,-1,1
 107 152 107 152 162 152 c 128,-1,2
 217 152 217 152 236 128 c 128,-1,3
 255 104 255 104 245.5 50.5 c 128,-1,4
 236 -3 236 -3 196 -42.5 c 128,-1,5
 156 -82 156 -82 90 -118 c 1,6,-1
 4 -104 l 1,7,-1
 90 -9 l 1,8,9
 57 -2 57 -2 45.5 14.5 c 128,-1,10
 34 31 34 31 41.5 71.5 c 128,-1,0
 49 112 49 112 78 132 c 128,-1,1
301 132 m 128,-1,12
 330 152 330 152 385 152 c 128,-1,13
 440 152 440 152 459 128 c 128,-1,14
 478 104 478 104 468.5 50.5 c 128,-1,15
 459 -3 459 -3 419 -42.5 c 128,-1,16
 379 -82 379 -82 313 -118 c 1,17,-1
 227 -104 l 1,18,-1
 313 -9 l 1,19,20
 280 -2 280 -2 268.5 14.5 c 128,-1,21
 257 31 257 31 264.5 71.5 c 128,-1,11
 272 112 272 112 301 132 c 128,-1,12
EndSplineSet
EndChar

StartChar: dagger
Encoding: 8224 8224 242
Width: 459
GlyphClass: 2
Flags: W
LayerCount: 2
Fore
SplineSet
39 331 m 1,0,-1
 67 490 l 1,1,-1
 178 490 l 1,2,-1
 201 622 l 1,3,-1
 388 622 l 1,4,-1
 365 490 l 1,5,-1
 481 490 l 1,6,-1
 453 331 l 1,7,-1
 337 331 l 1,8,-1
 254 -140 l 1,9,-1
 67 -140 l 1,10,-1
 150 331 l 1,11,-1
 39 331 l 1,0,-1
EndSplineSet
EndChar

StartChar: daggerdbl
Encoding: 8225 8225 243
Width: 459
GlyphClass: 2
Flags: W
LayerCount: 2
Fore
SplineSet
-19 0 m 1,0,-1
 9 160 l 1,1,-1
 120 160 l 1,2,-1
 150 331 l 1,3,-1
 39 331 l 1,4,-1
 67 490 l 1,5,-1
 178 490 l 1,6,-1
 201 622 l 1,7,-1
 388 622 l 1,8,-1
 365 490 l 1,9,-1
 481 490 l 1,10,-1
 453 331 l 1,11,-1
 337 331 l 1,12,-1
 307 160 l 1,13,-1
 423 160 l 1,14,-1
 395 0 l 1,15,-1
 279 0 l 1,16,-1
 254 -140 l 1,17,-1
 67 -140 l 1,18,-1
 92 0 l 1,19,-1
 -19 0 l 1,0,-1
EndSplineSet
EndChar

StartChar: bullet
Encoding: 8226 8226 244
Width: 422
GlyphClass: 2
Flags: W
LayerCount: 2
Fore
SplineSet
99.5 214 m 128,-1,1
 72 245 72 245 84 311 c 128,-1,2
 96 377 96 377 132.5 408.5 c 128,-1,3
 169 440 169 440 235.5 440 c 128,-1,4
 302 440 302 440 326.5 409 c 128,-1,5
 351 378 351 378 339 313 c 0,6,7
 316 183 316 183 191 183 c 0,8,0
 127 183 127 183 99.5 214 c 128,-1,1
EndSplineSet
EndChar

StartChar: ellipsis
Encoding: 8230 8230 245
Width: 793
GlyphClass: 2
Flags: W
LayerCount: 2
Fore
SplineSet
61 10 m 128,-1,1
 42 30 42 30 49 72 c 128,-1,2
 56 114 56 114 81.5 134 c 128,-1,3
 107 154 107 154 163.5 154 c 128,-1,4
 220 154 220 154 238 134 c 128,-1,5
 256 114 256 114 249 72 c 128,-1,6
 242 30 242 30 216.5 10 c 128,-1,7
 191 -10 191 -10 135.5 -10 c 128,-1,0
 80 -10 80 -10 61 10 c 128,-1,1
315 10 m 128,-1,9
 296 30 296 30 303 72 c 128,-1,10
 310 114 310 114 335.5 134 c 128,-1,11
 361 154 361 154 417.5 154 c 128,-1,12
 474 154 474 154 492 134 c 128,-1,13
 510 114 510 114 503 72 c 128,-1,14
 496 30 496 30 470.5 10 c 128,-1,15
 445 -10 445 -10 389.5 -10 c 128,-1,8
 334 -10 334 -10 315 10 c 128,-1,9
566 10 m 128,-1,17
 547 30 547 30 554 72 c 128,-1,18
 561 114 561 114 586.5 134 c 128,-1,19
 612 154 612 154 668.5 154 c 128,-1,20
 725 154 725 154 743 134 c 128,-1,21
 761 114 761 114 754 72 c 128,-1,22
 747 30 747 30 721.5 10 c 128,-1,23
 696 -10 696 -10 640.5 -10 c 128,-1,16
 585 -10 585 -10 566 10 c 128,-1,17
EndSplineSet
EndChar

StartChar: perthousand
Encoding: 8240 8240 246
Width: 1336
GlyphClass: 2
Flags: W
LayerCount: 2
Fore
SplineSet
709 636 m 1,0,-1
 394 0 l 1,1,-1
 243 0 l 1,2,-1
 558 636 l 1,3,-1
 709 636 l 1,0,-1
250 409 m 2,4,-1
 258 453 l 2,5,6
 264 488 264 488 262 497 c 128,-1,7
 260 506 260 506 257.5 516 c 128,-1,8
 255 526 255 526 239 526 c 128,-1,9
 223 526 223 526 215 520 c 0,10,11
 199 510 199 510 183 422 c 2,12,-1
 181 409 l 2,13,14
 170 347 170 347 170.5 326 c 128,-1,15
 171 305 171 305 177.5 299 c 128,-1,16
 184 293 184 293 198 293 c 0,17,18
 221 293 221 293 229.5 317 c 128,-1,19
 238 341 238 341 250 409 c 2,4,-1
389.5 591 m 128,-1,21
 416 536 416 536 395 415.5 c 128,-1,22
 374 295 374 295 328 240.5 c 128,-1,23
 282 186 282 186 177 186 c 128,-1,24
 72 186 72 186 44 241 c 128,-1,25
 16 296 16 296 37 415.5 c 128,-1,26
 58 535 58 535 105 590.5 c 128,-1,27
 152 646 152 646 257.5 646 c 128,-1,20
 363 646 363 646 389.5 591 c 128,-1,21
768 212 m 2,28,-1
 776 256 l 2,29,30
 782 291 782 291 780 300 c 128,-1,31
 778 309 778 309 775.5 319.5 c 128,-1,32
 773 330 773 330 757 330 c 128,-1,33
 741 330 741 330 733 324 c 0,34,35
 717 314 717 314 702 225 c 2,36,-1
 699 212 l 2,37,38
 688 150 688 150 688.5 129.5 c 128,-1,39
 689 109 689 109 695.5 102.5 c 128,-1,40
 702 96 702 96 716 96 c 0,41,42
 739 96 739 96 747.5 120 c 128,-1,43
 756 144 756 144 768 212 c 2,28,-1
908 394.5 m 128,-1,45
 935 339 935 339 913.5 218.5 c 128,-1,46
 892 98 892 98 846 44 c 128,-1,47
 800 -10 800 -10 695 -10 c 128,-1,48
 590 -10 590 -10 562 44.5 c 128,-1,49
 534 99 534 99 555.5 218.5 c 128,-1,50
 577 338 577 338 623.5 394 c 128,-1,51
 670 450 670 450 775.5 450 c 128,-1,44
 881 450 881 450 908 394.5 c 128,-1,45
1153 212 m 2,52,-1
 1161 256 l 2,53,54
 1167 291 1167 291 1165 300 c 128,-1,55
 1163 309 1163 309 1160.5 319.5 c 128,-1,56
 1158 330 1158 330 1142 330 c 128,-1,57
 1126 330 1126 330 1118 324 c 0,58,59
 1102 314 1102 314 1087 225 c 2,60,-1
 1084 212 l 2,61,62
 1073 150 1073 150 1073.5 129.5 c 128,-1,63
 1074 109 1074 109 1080.5 102.5 c 128,-1,64
 1087 96 1087 96 1101 96 c 0,65,66
 1124 96 1124 96 1132.5 120 c 128,-1,67
 1141 144 1141 144 1153 212 c 2,52,-1
1293 394.5 m 128,-1,69
 1320 339 1320 339 1298.5 218.5 c 128,-1,70
 1277 98 1277 98 1231 44 c 128,-1,71
 1185 -10 1185 -10 1080 -10 c 128,-1,72
 975 -10 975 -10 947 44.5 c 128,-1,73
 919 99 919 99 940.5 218.5 c 128,-1,74
 962 338 962 338 1008.5 394 c 128,-1,75
 1055 450 1055 450 1160.5 450 c 128,-1,68
 1266 450 1266 450 1293 394.5 c 128,-1,69
EndSplineSet
EndChar

StartChar: guilsinglleft
Encoding: 8249 8249 247
Width: 347
GlyphClass: 2
Flags: W
LayerCount: 2
Fore
SplineSet
-2 210 m 1,0,-1
 10 278 l 1,1,-1
 257 494 l 1,2,-1
 355 423 l 1,3,-1
 205 248 l 1,4,-1
 296 73 l 1,5,-1
 163 -1 l 1,6,-1
 -2 210 l 1,0,-1
EndSplineSet
EndChar

StartChar: guilsinglright
Encoding: 8250 8250 248
Width: 347
GlyphClass: 2
Flags: W
LayerCount: 2
Fore
SplineSet
349 283 m 1,0,-1
 337 215 l 1,1,-1
 90 -1 l 1,2,-1
 -7 70 l 1,3,-1
 142 245 l 1,4,-1
 51 420 l 1,5,-1
 184 494 l 1,6,-1
 349 283 l 1,0,-1
EndSplineSet
EndChar

StartChar: fraction
Encoding: 8260 8260 249
Width: 427
GlyphClass: 2
Flags: W
LayerCount: 2
Fore
SplineSet
510 631 m 1,0,-1
 126 -145 l 1,1,-1
 -83 -145 l 1,2,-1
 300 631 l 1,3,-1
 510 631 l 1,0,-1
EndSplineSet
EndChar

StartChar: Euro
Encoding: 8364 8364 250
Width: 543
GlyphClass: 2
Flags: W
LayerCount: 2
Fore
SplineSet
34 418 m 1,0,-1
 91 418 l 1,1,2
 175 646 175 646 413 646 c 0,3,4
 498 646 498 646 577 615 c 1,5,-1
 521 443 l 1,6,7
 419 458 419 458 391 459 c 0,8,9
 346 459 346 459 325 418 c 1,10,-1
 514 418 l 1,11,-1
 482 316 l 1,12,-1
 287 316 l 1,13,-1
 283 297 l 1,14,-1
 477 297 l 1,15,-1
 448 197 l 1,16,-1
 279 197 l 1,17,18
 288 161 288 161 343 161 c 0,19,20
 359 161 359 161 457 171 c 1,21,-1
 456 13 l 1,22,23
 363 -11 363 -11 282 -10 c 0,24,25
 174 -10 174 -10 116 44 c 128,-1,26
 58 98 58 98 55 197 c 1,27,-1
 -5 197 l 1,28,-1
 12 297 l 1,29,-1
 64 297 l 1,30,-1
 68 316 l 1,31,-1
 16 316 l 1,32,-1
 34 418 l 1,0,-1
EndSplineSet
EndChar

StartChar: trademark
Encoding: 8482 8482 251
Width: 671
GlyphClass: 2
Flags: W
LayerCount: 2
Fore
SplineSet
620 283 m 1,0,-1
 509 283 l 1,1,-1
 537 441 l 1,2,-1
 531 441 l 1,3,-1
 488 283 l 1,4,-1
 380 283 l 1,5,-1
 393 441 l 1,6,-1
 387 441 l 1,7,-1
 359 283 l 1,8,-1
 251 283 l 1,9,-1
 325 636 l 1,10,-1
 478 636 l 1,11,-1
 469 483 l 1,12,-1
 473 483 l 1,13,-1
 515 636 l 1,14,-1
 668 636 l 1,15,-1
 620 283 l 1,0,-1
289 539 m 1,16,-1
 226 539 l 1,17,-1
 181 283 l 1,18,-1
 60 283 l 1,19,-1
 105 539 l 1,20,-1
 34 539 l 1,21,-1
 58 636 l 1,22,-1
 313 636 l 1,23,-1
 289 539 l 1,16,-1
EndSplineSet
EndChar

StartChar: partialdiff
Encoding: 8706 8706 252
Width: 543
GlyphClass: 2
Flags: W
LayerCount: 2
Fore
SplineSet
241 410 m 0,0,1
 280 410 280 410 304 406 c 1,2,-1
 308 410 l 1,3,4
 259 476 259 476 100 475 c 1,5,-1
 130 646 l 1,6,7
 366 646 366 646 458 558.5 c 128,-1,8
 550 471 550 471 515 271 c 0,9,10
 491 137 491 137 414 63.5 c 128,-1,11
 337 -10 337 -10 211.5 -10 c 128,-1,12
 86 -10 86 -10 33.5 42.5 c 128,-1,13
 -19 95 -19 95 1 213 c 0,14,15
 18 309 18 309 80 359.5 c 128,-1,16
 142 410 142 410 241 410 c 0,0,1
293 272.5 m 128,-1,18
 290 290 290 290 268.5 290 c 128,-1,19
 247 290 247 290 236 267.5 c 128,-1,20
 225 245 225 245 217.5 201.5 c 128,-1,21
 210 158 210 158 213.5 140.5 c 128,-1,22
 217 123 217 123 238.5 123 c 128,-1,23
 260 123 260 123 270 145 c 128,-1,24
 280 167 280 167 288 211 c 128,-1,17
 296 255 296 255 293 272.5 c 128,-1,18
EndSplineSet
EndChar

StartChar: product
Encoding: 8719 8719 253
Width: 625
GlyphClass: 2
Flags: W
LayerCount: 2
Fore
SplineSet
231 0 m 1,0,-1
 15 0 l 1,1,-1
 97 463 l 1,2,-1
 26 463 l 1,3,-1
 56 636 l 1,4,-1
 682 636 l 1,5,-1
 652 463 l 1,6,-1
 585 463 l 1,7,-1
 503 0 l 1,8,-1
 287 0 l 1,9,-1
 369 463 l 1,10,-1
 313 463 l 1,11,-1
 231 0 l 1,0,-1
EndSplineSet
EndChar

StartChar: summation
Encoding: 8721 8721 254
Width: 532
GlyphClass: 2
Flags: W
LayerCount: 2
Fore
SplineSet
533 461 m 1,0,-1
 375 461 l 1,1,-1
 439 352 l 1,2,-1
 427 284 l 1,3,-1
 306 163 l 1,4,-1
 493 163 l 1,5,-1
 464 0 l 1,6,-1
 -25 0 l 1,7,-1
 -10 127 l 1,8,-1
 178 311 l 1,9,-1
 44 498 l 1,10,-1
 73 636 l 1,11,-1
 564 636 l 1,12,-1
 533 461 l 1,0,-1
EndSplineSet
EndChar

StartChar: minus
Encoding: 8722 8722 255
Width: 487
GlyphClass: 2
Flags: W
LayerCount: 2
Fore
SplineSet
440 214 m 1,0,-1
 18 214 l 1,1,-1
 48 380 l 1,2,-1
 470 380 l 1,3,-1
 440 214 l 1,0,-1
EndSplineSet
EndChar

StartChar: radical
Encoding: 8730 8730 256
Width: 612
GlyphClass: 2
Flags: W
LayerCount: 2
Fore
SplineSet
257 167 m 1,0,-1
 516 852 l 1,1,-1
 901 852 l 1,2,-1
 847 686 l 1,3,-1
 658 686 l 1,4,-1
 296 -145 l 1,5,-1
 78 -145 l 1,6,-1
 24 490 l 1,7,-1
 246 490 l 1,8,-1
 250 167 l 1,9,-1
 257 167 l 1,0,-1
EndSplineSet
EndChar

StartChar: infinity
Encoding: 8734 8734 257
Width: 743
GlyphClass: 2
Flags: W
LayerCount: 2
Fore
SplineSet
251 474 m 128,-1,1
 334 474 334 474 386 397 c 1,2,-1
 391 397 l 1,3,4
 430 434 430 434 468 454 c 128,-1,5
 506 474 506 474 559 474 c 0,6,7
 653 474 653 474 690.5 421.5 c 128,-1,8
 728 369 728 369 711 275 c 0,9,10
 675 73 675 73 489 74 c 0,11,12
 401 74 401 74 352 152 c 1,13,-1
 343 152 l 1,14,15
 303 114 303 114 267 94 c 128,-1,16
 231 74 231 74 181 74 c 0,17,18
 89 74 89 74 52.5 125.5 c 128,-1,19
 16 177 16 177 32.5 271.5 c 128,-1,20
 49 366 49 366 108.5 420 c 128,-1,0
 168 474 168 474 251 474 c 128,-1,1
524 333 m 0,21,22
 490 333 490 333 444 270 c 1,23,24
 469 214 469 214 503 214 c 0,25,26
 534 214 534 214 544.5 273.5 c 128,-1,27
 555 333 555 333 524 333 c 0,21,22
237 333 m 0,28,29
 208 333 208 333 198 273.5 c 128,-1,30
 188 214 188 214 216 214 c 0,31,32
 251 214 251 214 297 273 c 1,33,34
 271 333 271 333 237 333 c 0,28,29
EndSplineSet
EndChar

StartChar: integral
Encoding: 8747 8747 258
Width: 451
GlyphClass: 2
Flags: W
LayerCount: 2
Fore
SplineSet
87 166 m 2,0,-1
 183 605 l 2,1,2
 211 730 211 730 280.5 791 c 128,-1,3
 350 852 350 852 485 852 c 2,4,-1
 583 852 l 1,5,-1
 543 686 l 1,6,7
 462 686 462 686 433.5 661.5 c 128,-1,8
 405 637 405 637 389 565 c 2,9,-1
 287 105 l 2,10,11
 255 -37 255 -37 185.5 -91 c 128,-1,12
 116 -145 116 -145 -38 -145 c 2,13,-1
 -131 -145 l 1,14,-1
 -84 33 l 1,15,16
 -34 33 -34 33 -4.5 38.5 c 128,-1,17
 25 44 25 44 43.5 62 c 128,-1,18
 62 80 62 80 69.5 101.5 c 128,-1,19
 77 123 77 123 87 166 c 2,0,-1
EndSplineSet
EndChar

StartChar: approxequal
Encoding: 8776 8776 259
Width: 503
GlyphClass: 2
Flags: W
LayerCount: 2
Fore
SplineSet
461 269 m 1,0,-1
 458 256 l 2,1,2
 445 183 445 183 413.5 144 c 128,-1,3
 382 105 382 105 306 105 c 0,4,5
 261 105 261 105 180 134 c 1,6,-1
 174 99 l 1,7,-1
 17 99 l 1,8,-1
 19 114 l 2,9,10
 32 188 32 188 65.5 225.5 c 128,-1,11
 99 263 99 263 167 263 c 0,12,13
 203 263 203 263 298 234 c 1,14,-1
 304 269 l 1,15,-1
 461 269 l 1,0,-1
487 465 m 1,16,-1
 485 452 l 2,17,18
 472 379 472 379 439.5 340 c 128,-1,19
 407 301 407 301 332 301 c 0,20,21
 287 301 287 301 206 330 c 1,22,-1
 200 295 l 1,23,-1
 43 295 l 1,24,-1
 46 309 l 2,25,26
 59 383 59 383 92 421.5 c 128,-1,27
 125 460 125 460 193 460 c 0,28,29
 227 460 227 460 324 431 c 1,30,-1
 330 465 l 1,31,-1
 487 465 l 1,16,-1
EndSplineSet
EndChar

StartChar: notequal
Encoding: 8800 8800 260
Width: 464
GlyphClass: 2
Flags: W
LayerCount: 2
Fore
SplineSet
395 95 m 1,0,-1
 223 95 l 1,1,-1
 199 46 l 1,2,-1
 31 46 l 1,3,-1
 55 95 l 1,4,-1
 4 95 l 1,5,-1
 31 246 l 1,6,-1
 134 246 l 1,7,-1
 155 287 l 1,8,-1
 38 287 l 1,9,-1
 65 437 l 1,10,-1
 233 437 l 1,11,-1
 273 516 l 1,12,-1
 442 516 l 1,13,-1
 402 437 l 1,14,-1
 456 437 l 1,15,-1
 429 287 l 1,16,-1
 324 287 l 1,17,-1
 302 246 l 1,18,-1
 422 246 l 1,19,-1
 395 95 l 1,0,-1
EndSplineSet
EndChar

StartChar: lessequal
Encoding: 8804 8804 261
Width: 510
GlyphClass: 2
Flags: W
LayerCount: 2
Fore
SplineSet
451 156 m 1,0,-1
 32 306 l 1,1,-1
 60 464 l 1,2,-1
 533 620 l 1,3,-1
 504 456 l 1,4,-1
 247 386 l 1,5,-1
 479 318 l 1,6,-1
 451 156 l 1,0,-1
423 0 m 1,7,-1
 -22 0 l 1,8,-1
 4 148 l 1,9,-1
 449 148 l 1,10,-1
 423 0 l 1,7,-1
EndSplineSet
EndChar

StartChar: greaterequal
Encoding: 8805 8805 262
Width: 510
GlyphClass: 2
Flags: W
LayerCount: 2
Fore
SplineSet
477 306 m 1,0,-1
 6 156 l 1,1,-1
 34 318 l 1,2,-1
 289 386 l 1,3,-1
 59 456 l 1,4,-1
 88 620 l 1,5,-1
 505 464 l 1,6,-1
 477 306 l 1,0,-1
423 0 m 1,7,-1
 -22 0 l 1,8,-1
 4 148 l 1,9,-1
 449 148 l 1,10,-1
 423 0 l 1,7,-1
EndSplineSet
EndChar

StartChar: lozenge
Encoding: 9674 9674 263
Width: 590
GlyphClass: 2
Flags: W
LayerCount: 2
Fore
SplineSet
550 303 m 1,0,-1
 294 -56 l 1,1,-1
 167 -56 l 1,2,-1
 41 303 l 1,3,-1
 295 663 l 1,4,-1
 420 663 l 1,5,-1
 550 303 l 1,0,-1
378 303 m 1,6,-1
 325 472 l 1,7,-1
 213 303 l 1,8,-1
 265 133 l 1,9,-1
 378 303 l 1,6,-1
EndSplineSet
EndChar

StartChar: ff
Encoding: 64256 64256 264
Width: 643
GlyphClass: 2
Flags: W
LayerCount: 2
Fore
SplineSet
577 664 m 0,0,1
 646 664 646 664 728 658 c 1,2,-1
 683 498 l 1,3,4
 614 504 614 504 604.5 504 c 128,-1,5
 595 504 595 504 594 494 c 2,6,-1
 590 476 l 1,7,-1
 677 476 l 1,8,-1
 642 338 l 1,9,-1
 568 338 l 1,10,-1
 508 0 l 1,11,-1
 294 0 l 1,12,-1
 354 338 l 1,13,-1
 265 338 l 1,14,-1
 205 0 l 1,15,-1
 -9 0 l 1,16,-1
 51 338 l 1,17,-1
 2 338 l 1,18,-1
 26 476 l 1,19,-1
 75 476 l 1,20,-1
 84 525 l 2,21,22
 108 663 108 663 274 664 c 0,23,24
 314 664 314 664 405 659 c 1,25,-1
 363 501 l 1,26,27
 324 504 324 504 302 504 c 0,28,29
 292 504 292 504 291 494 c 2,30,-1
 287 476 l 1,31,-1
 378 476 l 1,32,-1
 387 525 l 2,33,34
 412 664 412 664 577 664 c 0,0,1
EndSplineSet
EndChar

StartChar: fi
Encoding: 64257 64257 265
Width: 603
GlyphClass: 2
Flags: W
LayerCount: 2
Fore
SplineSet
507 0 m 1,0,-1
 294 0 l 1,1,-1
 353 338 l 1,2,-1
 264 338 l 1,3,-1
 205 0 l 1,4,-1
 -9 0 l 1,5,-1
 50 338 l 1,6,-1
 1 338 l 1,7,-1
 26 476 l 1,8,-1
 75 476 l 1,9,-1
 83 525 l 2,10,11
 107 663 107 663 273 664 c 0,12,13
 336 664 336 664 396 660 c 1,14,-1
 356 501 l 1,15,16
 317 504 317 504 304.5 504 c 128,-1,17
 292 504 292 504 290 494 c 2,18,-1
 287 476 l 1,19,-1
 591 476 l 1,20,-1
 507 0 l 1,0,-1
393 584 m 0,21,22
 408 671 408 671 517.5 671 c 128,-1,23
 627 671 627 671 612 584 c 0,24,25
 604 539 604 539 573.5 519.5 c 128,-1,26
 543 500 543 500 487.5 500 c 128,-1,27
 432 500 432 500 408.5 519 c 128,-1,28
 385 538 385 538 393 584 c 0,21,22
EndSplineSet
EndChar

StartChar: fl
Encoding: 64258 64258 266
Width: 613
GlyphClass: 2
Flags: W
LayerCount: 2
Fore
SplineSet
318 127 m 2,0,-1
 355 338 l 1,1,-1
 266 338 l 1,2,-1
 206 0 l 1,3,-1
 -8 0 l 1,4,-1
 52 338 l 1,5,-1
 3 338 l 1,6,-1
 27 476 l 1,7,-1
 76 476 l 1,8,-1
 85 525 l 2,9,10
 109 663 109 663 274 664 c 0,11,12
 312 664 312 664 397 656 c 1,13,-1
 358 501 l 1,14,15
 324 504 324 504 308.5 504 c 128,-1,16
 293 504 293 504 291 494 c 2,17,-1
 288 476 l 1,18,-1
 379 476 l 1,19,-1
 411 656 l 1,20,-1
 621 656 l 1,21,-1
 536 174 l 2,22,23
 531 146 531 146 569 146 c 1,24,-1
 527 -10 l 1,25,-1
 443 -10 l 2,26,27
 294 -10 294 -10 318 127 c 2,0,-1
EndSplineSet
EndChar

StartChar: ffi
Encoding: 64259 64259 267
Width: 906
GlyphClass: 2
Flags: W
LayerCount: 2
Fore
SplineSet
811 0 m 1,0,-1
 598 0 l 1,1,-1
 657 338 l 1,2,-1
 568 338 l 1,3,-1
 509 0 l 1,4,-1
 295 0 l 1,5,-1
 354 338 l 1,6,-1
 264 338 l 1,7,-1
 205 0 l 1,8,-1
 -9 0 l 1,9,-1
 50 338 l 1,10,-1
 1 338 l 1,11,-1
 26 476 l 1,12,-1
 75 476 l 1,13,-1
 83 525 l 2,14,15
 107 663 107 663 273 664 c 0,16,17
 313 664 313 664 404 659 c 1,18,-1
 362 501 l 1,19,20
 323 504 323 504 302 504 c 0,21,22
 292 504 292 504 290 494 c 2,23,-1
 287 476 l 1,24,-1
 379 476 l 1,25,-1
 387 525 l 2,26,27
 411 663 411 663 577 664 c 0,28,29
 642 664 642 664 700 660 c 1,30,-1
 660 501 l 1,31,32
 621 504 621 504 608.5 504 c 128,-1,33
 596 504 596 504 594 494 c 2,34,-1
 591 476 l 1,35,-1
 895 476 l 1,36,-1
 811 0 l 1,0,-1
696 584 m 0,37,38
 711 671 711 671 820.5 671 c 128,-1,39
 930 671 930 671 915 584 c 0,40,41
 907 539 907 539 876.5 519.5 c 128,-1,42
 846 500 846 500 791 500 c 128,-1,43
 736 500 736 500 712 519 c 128,-1,44
 688 538 688 538 696 584 c 0,37,38
EndSplineSet
EndChar

StartChar: ffl
Encoding: 64260 64260 268
Width: 916
GlyphClass: 2
Flags: W
LayerCount: 2
Fore
SplineSet
577 664 m 0,0,1
 615 664 615 664 700 656 c 1,2,-1
 661 501 l 1,3,4
 627 504 627 504 611.5 504 c 128,-1,5
 596 504 596 504 594 494 c 2,6,-1
 591 476 l 1,7,-1
 682 476 l 1,8,-1
 714 656 l 1,9,-1
 924 656 l 1,10,-1
 839 174 l 2,11,12
 834 146 834 146 872 146 c 1,13,-1
 830 -10 l 1,14,-1
 746 -10 l 2,15,16
 598 -10 598 -10 621 127 c 2,17,-1
 658 338 l 1,18,-1
 569 338 l 1,19,-1
 509 0 l 1,20,-1
 295 0 l 1,21,-1
 355 338 l 1,22,-1
 266 338 l 1,23,-1
 206 0 l 1,24,-1
 -8 0 l 1,25,-1
 52 338 l 1,26,-1
 3 338 l 1,27,-1
 27 476 l 1,28,-1
 76 476 l 1,29,-1
 85 525 l 2,30,31
 109 663 109 663 274 664 c 0,32,33
 314 664 314 664 406 659 c 1,34,-1
 364 501 l 1,35,36
 325 504 325 504 303 504 c 0,37,38
 293 504 293 504 291 494 c 2,39,-1
 288 476 l 1,40,-1
 379 476 l 1,41,-1
 388 525 l 2,42,43
 412 664 412 664 577 664 c 0,0,1
EndSplineSet
EndChar

StartChar: uniE021
Encoding: 57377 57377 269
Width: 658
Flags: W
LayerCount: 2
Fore
SplineSet
170 580 m 1,0,1
 170 580 170 580 52 580 c 1,2,-1
 74 704 l 1,3,-1
 708 704 l 1,4,-1
 686 579 l 1,5,-1
 532 579 l 2,6,-1
 557 576 l 0,7,8
 563 574 563 574 590 542 c 0,9,10
 612 516 612 516 612 479 c 0,11,12
 612 466 612 466 610 452 c 0,13,14
 601 403 601 403 578 363 c 0,15,16
 558 328 558 328 522 308 c 0,17,18
 466 275 466 275 455 275 c 2,19,20
 455 275 455 275 447 275 c 1,21,-1
 583 0 l 1,22,-1
 408 0 l 1,23,-1
 291 268 l 1,24,-1
 255 268 l 1,25,-1
 206 0 l 1,26,-1
 66 0 l 1,27,-1
 170 580 l 1,0,1
460 455 m 0,28,29
 462 464 462 464 462 472 c 0,30,31
 462 500 462 500 440 513 c 0,32,33
 411 530 411 530 364 530 c 2,34,-1
 306 530 l 1,35,-1
 278 371 l 1,36,37
 292 371 292 371 305 371 c 2,38,39
 365 371 365 371 395 382 c 0,40,41
 423 393 423 393 439.5 414 c 128,-1,42
 456 435 456 435 460 455 c 0,28,29
EndSplineSet
EndChar

StartChar: uniE022
Encoding: 57378 57378 270
Width: 739
Flags: W
LayerCount: 2
Fore
SplineSet
792 704 m 17,0,-1
 770 580 l 1,1,-1
 580 580 l 1,2,3
 611 576 611 576 611 576 c 2,4,5
 649 571 649 571 686 524 c 0,6,7
 722 477 722 477 722 400 c 0,8,9
 722 367 722 367 715 327 c 0,10,11
 698 230 698 230 636 148 c 0,12,13
 581 74 581 74 500 37 c 0,14,15
 421 0 421 0 303 0 c 2,16,17
 303 0 303 0 109 0 c 1,18,-1
 154 252 l 1,19,-1
 38 252 l 1,20,-1
 78 357 l 1,21,-1
 172 357 l 1,22,23
 178 388 178 388 182 410 c 1,24,-1
 66 410 l 1,25,-1
 106 515 l 1,26,-1
 200 515 l 1,27,-1
 211 580 l 1,28,-1
 63 580 l 1,29,30
 68 600 68 600 74 638 c 0,31,32
 76 647 76 647 78 657 c 0,33,34
 82 677 82 677 85 701 c 9,35,-1
 792 704 l 17,0,-1
270 127 m 1,36,-1
 307 128 l 2,37,38
 330 129 330 129 402 155 c 0,39,40
 464 177 464 177 497 218 c 0,41,42
 530 258 530 258 543 332 c 0,43,44
 549 365 549 365 549 393 c 0,45,46
 549 462 549 462 511 490 c 0,47,48
 447 538 447 538 383 538 c 0,49,50
 383 538 383 538 381 538 c 0,51,52
 369 538 369 538 358 538 c 2,53,54
 351 538 351 538 343 538 c 1,55,-1
 339 515 l 1,56,-1
 406 515 l 1,57,58
 366 410 366 410 366 410 c 1,59,-1
 320 410 l 1,60,-1
 311 357 l 1,61,-1
 378 357 l 1,62,63
 376 346 376 346 338 252 c 1,64,-1
 292 252 l 1,65,-1
 270 127 l 1,36,-1
EndSplineSet
EndChar

StartChar: uniE023
Encoding: 57379 57379 271
Width: 834
Flags: W
LayerCount: 2
Fore
SplineSet
210 529 m 0,0,1
 210 529 210 529 259 529 c 1,2,3
 207 448 207 448 178 419 c 1,4,-1
 282 419 l 1,5,-1
 364 570 l 1,6,-1
 61 570 l 1,7,-1
 85 704 l 1,8,-1
 873 704 l 1,9,-1
 849 570 l 1,10,-1
 566 570 l 1,11,-1
 593 419 l 1,12,-1
 687 419 l 1,13,14
 669 446 669 446 644 529 c 1,15,-1
 696 529 l 1,16,17
 701 523 701 523 716.5 498 c 128,-1,18
 732 473 732 473 740 463.5 c 128,-1,19
 748 454 748 454 766.5 439.5 c 128,-1,20
 785 425 785 425 797.5 415.5 c 128,-1,21
 810 406 810 406 822 399 c 1,22,-1
 820 386 l 1,23,-1
 814 352 l 1,24,25
 728 299 728 299 640 214 c 1,26,-1
 618 214 l 1,27,-1
 665 0 l 1,28,-1
 529 0 l 9,29,-1
 471 321 l 16,30,31
 471 321 471 321 367 321 c 1,32,-1
 214 0 l 1,33,-1
 76 0 l 1,34,-1
 187 214 l 1,35,-1
 161 214 l 1,36,37
 116 300 116 300 20 352 c 1,38,-1
 28 399 l 1,39,40
 127 448 127 448 210 529 c 0,0,1
612 261 m 1,41,42
 629 286 629 286 667 321 c 1,43,-1
 599 322 l 1,44,-1
 612 261 l 1,41,42
203 258 m 1,45,-1
 235 323 l 1,46,-1
 167 323 l 1,47,48
 189 298 189 298 203 258 c 1,45,-1
452 495 m 1,49,50
 452 495 452 495 416 419 c 1,51,-1
 457 419 l 1,52,-1
 452 495 l 1,49,50
EndSplineSet
EndChar

StartChar: uniE024
Encoding: 57380 57380 272
Width: 993
Flags: W
LayerCount: 2
Fore
SplineSet
458 510 m 1,0,1
 458 510 458 510 594 738 c 1,2,-1
 745 738 l 1,3,-1
 629 551 l 1,4,-1
 703 572 l 1,5,6
 703 580 703 580 704 587 c 0,7,8
 710 623 710 623 768 672 c 0,9,10
 820 716 820 716 882 716 c 128,-1,11
 944 716 944 716 980 672 c 0,12,13
 1008 638 1008 638 1009 594 c 0,14,15
 1009 581 1009 581 1006 566 c 0,16,17
 995 504 995 504 943 460 c 128,-1,18
 891 416 891 416 831 416 c 0,19,20
 830 416 830 416 828 416 c 0,21,22
 759 416 759 416 733 455 c 0,23,24
 727 464 727 464 723 471 c 1,25,-1
 557 430 l 1,26,-1
 471 296 l 1,27,-1
 664 233 l 1,28,29
 689 258 689 258 692 259 c 0,30,31
 781 302 781 302 802 302 c 0,32,33
 864 300 864 300 902 256 c 0,34,35
 931 224 931 224 931 180 c 0,36,37
 931 167 931 167 928 153 c 0,38,39
 928 152 928 152 928 152 c 0,40,41
 917 90 917 90 864.5 46 c 128,-1,42
 812 2 812 2 749 2 c 0,43,44
 683 2 683 2 651 45 c 0,45,46
 623 84 623 84 620 109 c 1,47,-1
 407 185 l 1,48,-1
 295 0 l 1,49,-1
 147 0 l 1,50,-1
 289 221 l 1,51,-1
 253 238 l 1,52,53
 250 234 250 234 219 207 c 0,54,55
 183 176 183 176 116 176 c 0,56,57
 52 176 52 176 16 220 c 0,58,59
 -11 253 -11 253 -11 297 c 0,60,61
 -11 311 -11 311 -8 327 c 0,62,63
 3 392 3 392 54 434 c 0,64,65
 97 470 97 470 139 481 c 0,66,67
 166 488 166 488 187 488 c 0,68,69
 207 488 207 488 222 482 c 0,70,71
 253 470 253 470 263 453 c 1,72,-1
 458 510 l 1,0,1
806 566 m 0,73,74
 805 561 805 561 805 556 c 0,75,76
 804 540 804 540 814 529 c 0,77,78
 826 514 826 514 849 514 c 128,-1,79
 872 514 872 514 889.5 529 c 128,-1,80
 907 544 907 544 911 566 c 0,81,82
 912 571 912 571 912 577 c 0,83,84
 912 593 912 593 902 604 c 0,85,86
 890 619 890 619 867.5 619 c 128,-1,87
 845 619 845 619 827.5 603.5 c 128,-1,88
 810 588 810 588 806 566 c 0,73,74
728 150 m 0,89,90
 727 145 727 145 728 140 c 0,91,92
 728 124 728 124 737 113 c 0,93,94
 749 98 749 98 771.5 98 c 128,-1,95
 794 98 794 98 812 113 c 128,-1,96
 830 128 830 128 834 150 c 0,97,98
 835 155 835 155 834 160 c 0,99,100
 834 176 834 176 825 187 c 0,101,102
 813 202 813 202 790.5 202 c 128,-1,103
 768 202 768 202 750 187 c 128,-1,104
 732 172 732 172 728 150 c 0,89,90
92 328 m 0,105,106
 91 323 91 323 91 318 c 0,107,108
 90 303 90 303 100 291 c 0,109,110
 112 276 112 276 135 276 c 128,-1,111
 158 276 158 276 175.5 291 c 128,-1,112
 193 306 193 306 197 328 c 0,113,114
 198 333 198 333 198 338 c 0,115,116
 198 353 198 353 188 365 c 0,117,118
 176 380 176 380 153.5 380 c 128,-1,119
 131 380 131 380 113.5 365 c 128,-1,120
 96 350 96 350 92 328 c 0,105,106
386 385 m 1,121,122
 386 385 386 385 298 353 c 1,123,124
 299 351 299 351 298 349 c 1,125,-1
 349 332 l 1,126,-1
 386 385 l 1,121,122
EndSplineSet
EndChar

StartChar: uniE025
Encoding: 57381 57381 273
Width: 977
Flags: W
LayerCount: 2
Fore
SplineSet
86 328 m 0,0,1
 85 323 85 323 85 318 c 0,2,3
 85 301 85 301 96 287 c 0,4,5
 110 270 110 270 134.5 270 c 128,-1,6
 159 270 159 270 179 287 c 128,-1,7
 199 304 199 304 203 328 c 0,8,9
 204 333 204 333 204 338 c 0,10,11
 204 355 204 355 193 369 c 0,12,13
 179 386 179 386 154.5 386 c 128,-1,14
 130 386 130 386 110 369 c 128,-1,15
 90 352 90 352 86 328 c 0,0,1
734 150 m 0,16,17
 733 144 733 144 733 139 c 0,18,19
 733 122 733 122 744 109 c 0,20,21
 758 92 758 92 782.5 92 c 128,-1,22
 807 92 807 92 827 109 c 0,23,24
 848 126 848 126 852 150 c 0,25,26
 853 156 853 156 853 161 c 0,27,28
 853 178 853 178 842 191 c 0,29,30
 828 208 828 208 803.5 208 c 128,-1,31
 779 208 779 208 758.5 191 c 128,-1,32
 738 174 738 174 734 150 c 0,16,17
812 566 m 0,33,34
 811 561 811 561 811 556 c 0,35,36
 811 538 811 538 822 525 c 0,37,38
 836 508 836 508 860.5 508 c 128,-1,39
 885 508 885 508 905 525 c 128,-1,40
 925 542 925 542 929 566 c 0,41,42
 930 571 930 571 930 577 c 0,43,44
 930 595 930 595 919 608 c 0,45,46
 905 625 905 625 880.5 625 c 128,-1,47
 856 625 856 625 836 607.5 c 128,-1,48
 816 590 816 590 812 566 c 0,33,34
747 480 m 16,49,50
 747 480 747 480 506 414 c 1,51,52
 525 408 525 408 525 408 c 0,53,54
 544 402 544 402 579 382 c 0,55,56
 611 362 611 362 621 352 c 0,57,58
 637 332 637 332 647 316 c 0,59,60
 659 292 659 292 662 266 c 0,61,62
 665 237 665 237 665 224 c 1,63,-1
 680 219 l 1,64,65
 688 232 688 232 709 249 c 0,66,67
 756 289 756 289 811 289 c 0,68,69
 812 288 812 288 812 288 c 0,70,71
 868 288 868 288 902 248 c 0,72,73
 927 218 927 218 927 180 c 0,74,75
 927 165 927 165 925 152 c 0,76,77
 915 96 915 96 868 56 c 0,78,79
 820 16 820 16 764 16 c 0,80,81
 706 16 706 16 675 55 c 0,82,83
 649 90 649 90 648 120 c 1,84,-1
 638 122 l 1,85,86
 616 78 616 78 574 44 c 0,87,88
 509 -10 509 -10 393 -10 c 0,89,90
 181 -10 181 -10 181 167 c 0,91,92
 181 169 181 169 181 170 c 1,93,-1
 287 188 l 1,94,95
 294 140 294 140 327 110 c 0,96,97
 327 109 327 109 327 108 c 0,98,99
 327 88 327 88 396 88 c 0,100,101
 400 88 400 88 403 88 c 8,102,103
 456 89 456 89 507 112 c 16,104,105
 530 122 530 122 544 153 c 1,106,-1
 244 250 l 1,107,108
 240 242 240 242 212 218 c 0,109,110
 179 190 179 190 118 190 c 0,111,112
 62 190 62 190 28 230 c 0,113,114
 3 260 3 260 3 299 c 0,115,116
 3 314 3 314 5 327 c 0,117,118
 15 384 15 384 62 424 c 128,-1,119
 109 464 109 464 166 464 c 0,120,121
 232 464 232 464 243 448 c 0,122,123
 245 444 245 444 249 440 c 1,124,-1
 272 446 l 1,125,126
 271 458 271 458 271 472 c 0,127,128
 271 495 271 495 275 522 c 0,129,130
 293 624 293 624 357 678 c 0,131,132
 435 744 435 744 512 745 c 0,133,134
 612 745 612 745 655 715 c 128,-1,135
 698 685 698 685 703 590 c 1,136,-1
 585 570 l 1,137,138
 582 612 582 612 557.5 624 c 128,-1,139
 533 636 533 636 493 636 c 0,140,141
 467 636 467 636 428 606 c 0,142,143
 405 589 405 589 393 546 c 0,144,145
 391 532 391 532 389 522 c 0,146,147
 386 505 386 505 386 495 c 0,148,149
 386 487 386 487 388 483 c 0,150,151
 389 480 389 480 389 478 c 1,152,-1
 729 571 l 1,153,154
 729 578 729 578 730 585 c 0,155,156
 736 618 736 618 788 662 c 0,157,158
 835 702 835 702 891.5 702 c 128,-1,159
 948 702 948 702 981 662 c 0,160,161
 1006 631 1006 631 1006 591 c 0,162,163
 1006 579 1006 579 1004 566 c 0,164,165
 994 510 994 510 947 470 c 0,166,167
 899 430 899 430 843 430 c 0,168,169
 781 430 781 430 756 465 c 8,170,171
 749 477 749 477 747 480 c 16,49,50
533 265 m 1,172,173
 531 268 531 268 529 270 c 0,174,175
 508 289 508 289 489 296 c 0,176,177
 448 312 448 312 431 318 c 0,178,179
 399 328 399 328 346 355 c 0,180,181
 335 362 335 362 324 366 c 1,182,-1
 281 354 l 1,183,184
 281 349 281 349 280 344 c 1,185,-1
 533 265 l 1,172,173
EndSplineSet
EndChar

StartChar: uniE026
Encoding: 57382 57382 274
Width: 880
Flags: W
LayerCount: 2
Fore
SplineSet
178 0 m 1,0,-1
 12 0 l 1,1,-1
 109 590 l 1,2,-1
 61 590 l 1,3,-1
 81 704 l 1,4,-1
 924 704 l 1,5,-1
 904 590 l 1,6,-1
 801 590 l 1,7,8
 816 590 816 590 846 542 c 0,9,10
 861 517 861 517 861 484 c 0,11,12
 861 469 861 469 858 452 c 0,13,14
 858 452 858 452 857 450 c 0,15,16
 843 369 843 369 805.5 343.5 c 128,-1,17
 768 318 768 318 718 294 c 1,18,19
 718 294 718 294 800 0 c 1,20,-1
 674 0 l 1,21,-1
 599 268 l 1,22,-1
 567 268 l 1,23,-1
 512 0 l 1,24,-1
 348 0 l 1,25,26
 348 0 348 0 338 386 c 1,27,-1
 178 0 l 1,0,-1
749 482 m 0,28,29
 749 484 749 484 749 486 c 0,30,31
 749 504 749 504 727 550 c 0,32,33
 712 580 712 580 640 580 c 2,34,-1
 630 580 l 1,35,-1
 594 383 l 1,36,-1
 615 383 l 2,37,38
 679 384 679 384 709 416 c 0,39,40
 744 454 744 454 749 482 c 0,28,29
216 590 m 1,41,-1
 145 194 l 1,42,43
 145 194 145 194 205 340 c 1,44,-1
 303 590 l 1,45,-1
 216 590 l 1,41,-1
441 590 m 1,46,-1
 445 312 l 2,47,48
 446 276 446 276 447 194 c 1,49,50
 457 234 457 234 457 234 c 1,51,-1
 524 590 l 1,52,53
 482 590 482 590 441 590 c 1,46,-1
EndSplineSet
EndChar

StartChar: uniE027
Encoding: 57383 57383 275
Width: 868
Flags: W
LayerCount: 2
Fore
SplineSet
421 590 m 129,-1,1
 421 590 421 590 316 590 c 1,2,-1
 307 540 l 1,3,-1
 402 540 l 1,4,0
 421 590 421 590 421 590 c 129,-1,1
595 202 m 17,5,-1
 700 590 l 1,6,-1
 567 590 l 9,7,-1
 595 202 l 17,5,-1
90 540 m 17,8,9
 90 540 90 540 193 540 c 1,10,-1
 202 590 l 1,11,-1
 65 590 l 1,12,-1
 85 704 l 1,13,-1
 907 704 l 1,14,-1
 887 590 l 1,15,-1
 810 590 l 1,16,-1
 642 0 l 1,17,-1
 496 0 l 1,18,-1
 465 423 l 9,19,20
 465 423 465 423 281 0 c 25,21,22
 281 0 281 0 118 0 c 17,23,-1
 155 288 l 1,24,-1
 29 288 l 1,25,26
 45 328 45 328 62 382 c 0,27,28
 62 382 62 382 169 382 c 1,29,-1
 178 444 l 1,30,-1
 51 444 l 9,31,-1
 90 540 l 17,8,9
291 444 m 1,32,-1
 282 382 l 1,33,-1
 330 382 l 1,34,-1
 358 444 l 1,35,-1
 291 444 l 1,32,-1
268 288 m 25,36,37
 268 288 268 288 290 288 c 1,38,-1
 251 198 l 9,39,-1
 268 288 l 25,36,37
EndSplineSet
EndChar
